G04*
G04 #@! TF.GenerationSoftware,Altium Limited,Altium Designer,21.3.2 (30)*
G04*
G04 Layer_Color=8388736*
%FSTAX24Y24*%
%MOIN*%
G70*
G04*
G04 #@! TF.SameCoordinates,AAB4DB19-2E37-4297-9B89-C5A600987651*
G04*
G04*
G04 #@! TF.FilePolarity,Positive*
G04*
G01*
G75*
%ADD10C,0.0079*%
%ADD13C,0.0050*%
%ADD115C,0.0039*%
D10*
X019696Y015152D02*
G03*
X019696Y015152I-000039J0D01*
G01*
D13*
X017004Y014941D02*
X017697D01*
X017004Y014563D02*
X017697D01*
Y014941D01*
X017004Y014563D02*
Y014941D01*
X015581Y0161D02*
X016919D01*
X015581Y0154D02*
X016919D01*
Y0161D01*
X015581Y0154D02*
Y0161D01*
X020009Y015033D02*
X021191D01*
X020009Y016215D02*
X021191D01*
X020009Y015033D02*
Y016215D01*
X021191Y015033D02*
Y016215D01*
X022007Y014412D02*
X021692D01*
Y014255D01*
X021745Y014202D01*
X02185D01*
X021902Y014255D01*
Y014412D01*
Y014307D02*
X022007Y014202D01*
X021692Y013888D02*
Y014097D01*
X02185D01*
X021797Y013993D01*
Y01394D01*
X02185Y013888D01*
X021955D01*
X022007Y01394D01*
Y014045D01*
X021955Y014097D01*
X017966Y015495D02*
X017914Y015442D01*
X017809D01*
X017756Y015495D01*
Y015705D01*
X017809Y015757D01*
X017914D01*
X017966Y015705D01*
X018071Y015757D02*
X018176D01*
X018124D01*
Y015442D01*
X018071Y015495D01*
X018544Y015757D02*
X018334D01*
X018544Y015547D01*
Y015495D01*
X018491Y015442D01*
X018386D01*
X018334Y015495D01*
X019245Y016184D02*
X019192Y016236D01*
Y016341D01*
X019245Y016394D01*
X019455D01*
X019507Y016341D01*
Y016236D01*
X019455Y016184D01*
X019507Y016079D02*
Y015974D01*
Y016026D01*
X019192D01*
X019245Y016079D01*
Y015816D02*
X019192Y015764D01*
Y015659D01*
X019245Y015606D01*
X019297D01*
X01935Y015659D01*
Y015711D01*
Y015659D01*
X019402Y015606D01*
X019455D01*
X019507Y015659D01*
Y015764D01*
X019455Y015816D01*
X018412Y016243D02*
Y016558D01*
X018255D01*
X018202Y016505D01*
Y0164D01*
X018255Y016348D01*
X018412D01*
X018307D02*
X018202Y016243D01*
X017888Y016558D02*
X017993Y016505D01*
X018097Y0164D01*
Y016295D01*
X018045Y016243D01*
X01794D01*
X017888Y016295D01*
Y016348D01*
X01794Y0164D01*
X018097D01*
X020448Y018545D02*
X020395Y018492D01*
X02029D01*
X020238Y018545D01*
Y018755D01*
X02029Y018807D01*
X020395D01*
X020448Y018755D01*
X020762Y018492D02*
X020657Y018545D01*
X020552Y01865D01*
Y018755D01*
X020605Y018807D01*
X02071D01*
X020762Y018755D01*
Y018702D01*
X02071Y01865D01*
X020552D01*
X02029Y017857D02*
Y017542D01*
X020448D01*
X0205Y017595D01*
Y0177D01*
X020448Y017752D01*
X02029D01*
X020395D02*
X0205Y017857D01*
X020605D02*
X02071D01*
X020657D01*
Y017542D01*
X020605Y017595D01*
X018738Y018157D02*
Y017842D01*
X018895D01*
X018948Y017895D01*
Y018D01*
X018895Y018052D01*
X018738D01*
X018843D02*
X018948Y018157D01*
X019262D02*
X019052D01*
X019262Y017947D01*
Y017895D01*
X01921Y017842D01*
X019105D01*
X019052Y017895D01*
X018788Y017257D02*
Y016942D01*
X018945D01*
X018998Y016995D01*
Y0171D01*
X018945Y017152D01*
X018788D01*
X018893D02*
X018998Y017257D01*
X01926D02*
Y016942D01*
X019102Y0171D01*
X019312D01*
X031843Y011623D02*
X032158D01*
Y01178D01*
X032105Y011833D01*
X032D01*
X031948Y01178D01*
Y011623D01*
Y011728D02*
X031843Y011833D01*
X032105Y011938D02*
X032158Y01199D01*
Y012095D01*
X032105Y012147D01*
X032053D01*
X032Y012095D01*
Y012042D01*
Y012095D01*
X031948Y012147D01*
X031895D01*
X031843Y012095D01*
Y01199D01*
X031895Y011938D01*
X022655Y015969D02*
X022708Y015916D01*
Y015811D01*
X022655Y015759D01*
X022445D01*
X022393Y015811D01*
Y015916D01*
X022445Y015969D01*
X022393Y016074D02*
Y016179D01*
Y016126D01*
X022708D01*
X022655Y016074D01*
X022393Y016336D02*
Y016441D01*
Y016389D01*
X022708D01*
X022655Y016336D01*
X022545Y014334D02*
X022492Y014386D01*
Y014491D01*
X022545Y014544D01*
X022755D01*
X022807Y014491D01*
Y014386D01*
X022755Y014334D01*
X022807Y014229D02*
Y014124D01*
Y014176D01*
X022492D01*
X022545Y014229D01*
Y013966D02*
X022492Y013914D01*
Y013809D01*
X022545Y013756D01*
X022755D01*
X022807Y013809D01*
Y013914D01*
X022755Y013966D01*
X022545D01*
X020552Y016905D02*
X020605Y016958D01*
X02071D01*
X020762Y016905D01*
Y016695D01*
X02071Y016643D01*
X020605D01*
X020552Y016695D01*
X020238Y016958D02*
X020447D01*
Y0168D01*
X020343Y016853D01*
X02029D01*
X020238Y0168D01*
Y016695D01*
X02029Y016643D01*
X020395D01*
X020447Y016695D01*
X019455Y014315D02*
X019508Y014262D01*
Y014157D01*
X019455Y014105D01*
X019245D01*
X019193Y014157D01*
Y014262D01*
X019245Y014315D01*
X019455Y01442D02*
X019508Y014472D01*
Y014577D01*
X019455Y01463D01*
X019403D01*
X01935Y014577D01*
Y014525D01*
Y014577D01*
X019298Y01463D01*
X019245D01*
X019193Y014577D01*
Y014472D01*
X019245Y01442D01*
X018582Y014315D02*
X018634Y014262D01*
Y014157D01*
X018582Y014105D01*
X018372D01*
X018319Y014157D01*
Y014262D01*
X018372Y014315D01*
X018319Y014577D02*
X018634D01*
X018477Y01442D01*
Y01463D01*
X016205Y014348D02*
X016258Y014295D01*
Y01419D01*
X016205Y014138D01*
X015995D01*
X015943Y01419D01*
Y014295D01*
X015995Y014348D01*
X015943Y014662D02*
Y014453D01*
X016153Y014662D01*
X016205D01*
X016258Y01461D01*
Y014505D01*
X016205Y014453D01*
D115*
X021693Y014465D02*
X022007D01*
X021693Y013835D02*
X022007D01*
X021693D02*
Y014465D01*
X022007Y013835D02*
Y014465D01*
X017835Y015757D02*
X018465D01*
X017835Y015443D02*
X018465D01*
Y015757D01*
X017835Y015443D02*
Y015757D01*
X019507Y015685D02*
Y016315D01*
X019193Y015685D02*
Y016315D01*
Y015685D02*
X019507D01*
X019193Y016315D02*
X019507D01*
X017835Y016243D02*
X018465D01*
X017835Y016557D02*
X018465D01*
X017835Y016243D02*
Y016557D01*
X018465Y016243D02*
Y016557D01*
X020185Y018807D02*
X020815D01*
X020185Y018493D02*
X020815D01*
Y018807D01*
X020185Y018493D02*
Y018807D01*
Y017857D02*
X020815D01*
X020185Y017543D02*
X020815D01*
Y017857D01*
X020185Y017543D02*
Y017857D01*
X018685Y018157D02*
X019315D01*
X018685Y017843D02*
X019315D01*
Y018157D01*
X018685Y017843D02*
Y018157D01*
X018735Y017257D02*
X019365D01*
X018735Y016943D02*
X019365D01*
Y017257D01*
X018735Y016943D02*
Y017257D01*
X031843Y01157D02*
Y0122D01*
X032157Y01157D02*
Y0122D01*
X031843D02*
X032157D01*
X031843Y01157D02*
X032157D01*
X022393Y015785D02*
Y016415D01*
X022707Y015785D02*
Y016415D01*
X022393D02*
X022707D01*
X022393Y015785D02*
X022707D01*
X022807Y013835D02*
Y014465D01*
X022493Y013835D02*
Y014465D01*
Y013835D02*
X022807D01*
X022493Y014465D02*
X022807D01*
X020185Y016643D02*
X020815D01*
X020185Y016957D02*
X020815D01*
X020185Y016643D02*
Y016957D01*
X020815Y016643D02*
Y016957D01*
X019193Y014052D02*
Y014682D01*
X019507Y014052D02*
Y014682D01*
X019193D02*
X019507D01*
X019193Y014052D02*
X019507D01*
X018319D02*
Y014682D01*
X018634Y014052D02*
Y014682D01*
X018319D02*
X018634D01*
X018319Y014052D02*
X018634D01*
X015943Y014085D02*
Y014715D01*
X016257Y014085D02*
Y014715D01*
X015943D02*
X016257D01*
X015943Y014085D02*
X016257D01*
M02*
