G04*
G04 #@! TF.GenerationSoftware,Altium Limited,Altium Designer,21.3.2 (30)*
G04*
G04 Layer_Color=32896*
%FSTAX24Y24*%
%MOIN*%
G70*
G04*
G04 #@! TF.SameCoordinates,AAB4DB19-2E37-4297-9B89-C5A600987651*
G04*
G04*
G04 #@! TF.FilePolarity,Positive*
G04*
G01*
G75*
%ADD13C,0.0050*%
%ADD115C,0.0039*%
D13*
X041817Y025895D02*
X04187Y025842D01*
X041975D01*
X042027Y025895D01*
Y026105D01*
X041975Y026157D01*
X04187D01*
X041817Y026105D01*
X041712Y025895D02*
X04166Y025842D01*
X041555D01*
X041503Y025895D01*
Y025947D01*
X041555Y026D01*
X041503Y026052D01*
Y026105D01*
X041555Y026157D01*
X04166D01*
X041712Y026105D01*
Y026052D01*
X04166Y026D01*
X041712Y025947D01*
Y025895D01*
X04166Y026D02*
X041555D01*
X041852Y026845D02*
X041905Y026792D01*
X04201D01*
X042062Y026845D01*
Y027055D01*
X04201Y027107D01*
X041905D01*
X041852Y027055D01*
X041747D02*
X041695Y027107D01*
X04159D01*
X041538Y027055D01*
Y026845D01*
X04159Y026792D01*
X041695D01*
X041747Y026845D01*
Y026897D01*
X041695Y02695D01*
X041538D01*
X037805Y04095D02*
X037858Y041002D01*
Y041107D01*
X037805Y04116D01*
X037595D01*
X037543Y041107D01*
Y041002D01*
X037595Y04095D01*
X037543Y040845D02*
Y04074D01*
Y040793D01*
X037858D01*
X037805Y040845D01*
X03644Y037705D02*
X036388Y037758D01*
X036283D01*
X03623Y037705D01*
Y037495D01*
X036283Y037443D01*
X036388D01*
X03644Y037495D01*
X036545Y037705D02*
X036598Y037758D01*
X036702D01*
X036755Y037705D01*
Y037653D01*
X036702Y0376D01*
X03665D01*
X036702D01*
X036755Y037548D01*
Y037495D01*
X036702Y037443D01*
X036598D01*
X036545Y037495D01*
X03707Y037758D02*
X03686D01*
Y0376D01*
X036965Y037653D01*
X037017D01*
X03707Y0376D01*
Y037495D01*
X037017Y037443D01*
X036912D01*
X03686Y037495D01*
X015575Y031095D02*
X015627Y031042D01*
X015732D01*
X015785Y031095D01*
Y031305D01*
X015732Y031357D01*
X015627D01*
X015575Y031305D01*
X01547Y031095D02*
X015417Y031042D01*
X015312D01*
X01526Y031095D01*
Y031147D01*
X015312Y0312D01*
X015365D01*
X015312D01*
X01526Y031252D01*
Y031305D01*
X015312Y031357D01*
X015417D01*
X01547Y031305D01*
X014998Y031357D02*
Y031042D01*
X015155Y0312D01*
X014945D01*
X017695Y02939D02*
X017642Y029338D01*
Y029233D01*
X017695Y02918D01*
X017905D01*
X017957Y029233D01*
Y029338D01*
X017905Y02939D01*
X017695Y029495D02*
X017642Y029548D01*
Y029653D01*
X017695Y029705D01*
X017747D01*
X0178Y029653D01*
Y0296D01*
Y029653D01*
X017852Y029705D01*
X017905D01*
X017957Y029653D01*
Y029548D01*
X017905Y029495D01*
X017642Y02981D02*
Y03002D01*
X017695D01*
X017905Y02981D01*
X017957D01*
X019395Y02839D02*
X019342Y028338D01*
Y028233D01*
X019395Y02818D01*
X019605D01*
X019657Y028233D01*
Y028338D01*
X019605Y02839D01*
X019657Y028705D02*
Y028495D01*
X019447Y028705D01*
X019395D01*
X019342Y028653D01*
Y028548D01*
X019395Y028495D01*
X019342Y02881D02*
Y02902D01*
X019395D01*
X019605Y02881D01*
X019657D01*
X021855Y02881D02*
X021908Y028862D01*
Y028967D01*
X021855Y02902D01*
X021645D01*
X021593Y028967D01*
Y028862D01*
X021645Y02881D01*
X021593Y028495D02*
Y028705D01*
X021803Y028495D01*
X021855D01*
X021908Y028547D01*
Y028652D01*
X021855Y028705D01*
X021908Y02818D02*
X021855Y028285D01*
X02175Y02839D01*
X021645D01*
X021593Y028338D01*
Y028233D01*
X021645Y02818D01*
X021698D01*
X02175Y028233D01*
Y02839D01*
X027995Y02859D02*
X027942Y028538D01*
Y028433D01*
X027995Y02838D01*
X028205D01*
X028257Y028433D01*
Y028538D01*
X028205Y02859D01*
X028257Y028905D02*
Y028695D01*
X028047Y028905D01*
X027995D01*
X027942Y028853D01*
Y028748D01*
X027995Y028695D01*
X028205Y02901D02*
X028257Y029062D01*
Y029167D01*
X028205Y02922D01*
X027995D01*
X027942Y029167D01*
Y029062D01*
X027995Y02901D01*
X028047D01*
X0281Y029062D01*
Y02922D01*
X030605Y02901D02*
X030658Y029062D01*
Y029167D01*
X030605Y02922D01*
X030395D01*
X030343Y029167D01*
Y029062D01*
X030395Y02901D01*
X030343Y028695D02*
Y028905D01*
X030553Y028695D01*
X030605D01*
X030658Y028747D01*
Y028852D01*
X030605Y028905D01*
Y02859D02*
X030658Y028538D01*
Y028433D01*
X030605Y02838D01*
X030553D01*
X0305Y028433D01*
X030448Y02838D01*
X030395D01*
X030343Y028433D01*
Y028538D01*
X030395Y02859D01*
X030448D01*
X0305Y028538D01*
X030553Y02859D01*
X030605D01*
X0305Y028538D02*
Y028433D01*
X022007Y014412D02*
X021692D01*
Y014255D01*
X021745Y014202D01*
X02185D01*
X021902Y014255D01*
Y014412D01*
Y014307D02*
X022007Y014202D01*
X021692Y013888D02*
Y014097D01*
X02185D01*
X021797Y013993D01*
Y01394D01*
X02185Y013888D01*
X021955D01*
X022007Y01394D01*
Y014045D01*
X021955Y014097D01*
X017966Y015495D02*
X017914Y015442D01*
X017809D01*
X017756Y015495D01*
Y015705D01*
X017809Y015757D01*
X017914D01*
X017966Y015705D01*
X018071Y015757D02*
X018176D01*
X018124D01*
Y015442D01*
X018071Y015495D01*
X018544Y015757D02*
X018334D01*
X018544Y015547D01*
Y015495D01*
X018491Y015442D01*
X018386D01*
X018334Y015495D01*
X019245Y016184D02*
X019192Y016236D01*
Y016341D01*
X019245Y016394D01*
X019455D01*
X019507Y016341D01*
Y016236D01*
X019455Y016184D01*
X019507Y016079D02*
Y015974D01*
Y016026D01*
X019192D01*
X019245Y016079D01*
Y015816D02*
X019192Y015764D01*
Y015659D01*
X019245Y015606D01*
X019297D01*
X01935Y015659D01*
Y015711D01*
Y015659D01*
X019402Y015606D01*
X019455D01*
X019507Y015659D01*
Y015764D01*
X019455Y015816D01*
X018412Y016243D02*
Y016558D01*
X018255D01*
X018202Y016505D01*
Y0164D01*
X018255Y016348D01*
X018412D01*
X018307D02*
X018202Y016243D01*
X017888Y016558D02*
X017993Y016505D01*
X018097Y0164D01*
Y016295D01*
X018045Y016243D01*
X01794D01*
X017888Y016295D01*
Y016348D01*
X01794Y0164D01*
X018097D01*
X020448Y018545D02*
X020395Y018492D01*
X02029D01*
X020238Y018545D01*
Y018755D01*
X02029Y018807D01*
X020395D01*
X020448Y018755D01*
X020762Y018492D02*
X020657Y018545D01*
X020552Y01865D01*
Y018755D01*
X020605Y018807D01*
X02071D01*
X020762Y018755D01*
Y018702D01*
X02071Y01865D01*
X020552D01*
X02029Y017857D02*
Y017542D01*
X020448D01*
X0205Y017595D01*
Y0177D01*
X020448Y017752D01*
X02029D01*
X020395D02*
X0205Y017857D01*
X020605D02*
X02071D01*
X020657D01*
Y017542D01*
X020605Y017595D01*
X018738Y018157D02*
Y017842D01*
X018895D01*
X018948Y017895D01*
Y018D01*
X018895Y018052D01*
X018738D01*
X018843D02*
X018948Y018157D01*
X019262D02*
X019052D01*
X019262Y017947D01*
Y017895D01*
X01921Y017842D01*
X019105D01*
X019052Y017895D01*
X018788Y017257D02*
Y016942D01*
X018945D01*
X018998Y016995D01*
Y0171D01*
X018945Y017152D01*
X018788D01*
X018893D02*
X018998Y017257D01*
X01926D02*
Y016942D01*
X019102Y0171D01*
X019312D01*
X031843Y011623D02*
X032158D01*
Y01178D01*
X032105Y011833D01*
X032D01*
X031948Y01178D01*
Y011623D01*
Y011728D02*
X031843Y011833D01*
X032105Y011938D02*
X032158Y01199D01*
Y012095D01*
X032105Y012147D01*
X032053D01*
X032Y012095D01*
Y012042D01*
Y012095D01*
X031948Y012147D01*
X031895D01*
X031843Y012095D01*
Y01199D01*
X031895Y011938D01*
X022655Y015969D02*
X022708Y015916D01*
Y015811D01*
X022655Y015759D01*
X022445D01*
X022393Y015811D01*
Y015916D01*
X022445Y015969D01*
X022393Y016074D02*
Y016179D01*
Y016126D01*
X022708D01*
X022655Y016074D01*
X022393Y016336D02*
Y016441D01*
Y016389D01*
X022708D01*
X022655Y016336D01*
X022545Y014334D02*
X022492Y014386D01*
Y014491D01*
X022545Y014544D01*
X022755D01*
X022807Y014491D01*
Y014386D01*
X022755Y014334D01*
X022807Y014229D02*
Y014124D01*
Y014176D01*
X022492D01*
X022545Y014229D01*
Y013966D02*
X022492Y013914D01*
Y013809D01*
X022545Y013756D01*
X022755D01*
X022807Y013809D01*
Y013914D01*
X022755Y013966D01*
X022545D01*
X020552Y016905D02*
X020605Y016958D01*
X02071D01*
X020762Y016905D01*
Y016695D01*
X02071Y016643D01*
X020605D01*
X020552Y016695D01*
X020238Y016958D02*
X020447D01*
Y0168D01*
X020343Y016853D01*
X02029D01*
X020238Y0168D01*
Y016695D01*
X02029Y016643D01*
X020395D01*
X020447Y016695D01*
X019455Y014315D02*
X019508Y014262D01*
Y014157D01*
X019455Y014105D01*
X019245D01*
X019193Y014157D01*
Y014262D01*
X019245Y014315D01*
X019455Y01442D02*
X019508Y014472D01*
Y014577D01*
X019455Y01463D01*
X019403D01*
X01935Y014577D01*
Y014525D01*
Y014577D01*
X019298Y01463D01*
X019245D01*
X019193Y014577D01*
Y014472D01*
X019245Y01442D01*
X018582Y014315D02*
X018634Y014262D01*
Y014157D01*
X018582Y014105D01*
X018372D01*
X018319Y014157D01*
Y014262D01*
X018372Y014315D01*
X018319Y014577D02*
X018634D01*
X018477Y01442D01*
Y01463D01*
X016205Y014348D02*
X016258Y014295D01*
Y01419D01*
X016205Y014138D01*
X015995D01*
X015943Y01419D01*
Y014295D01*
X015995Y014348D01*
X015943Y014662D02*
Y014453D01*
X016153Y014662D01*
X016205D01*
X016258Y01461D01*
Y014505D01*
X016205Y014453D01*
X037605Y034405D02*
X037553Y034458D01*
X037448D01*
X037395Y034405D01*
Y034195D01*
X037448Y034143D01*
X037553D01*
X037605Y034195D01*
X03771Y034405D02*
X037763Y034458D01*
X037867D01*
X03792Y034405D01*
Y034353D01*
X037867Y0343D01*
X037815D01*
X037867D01*
X03792Y034248D01*
Y034195D01*
X037867Y034143D01*
X037763D01*
X03771Y034195D01*
X038235Y034458D02*
X03813Y034405D01*
X038025Y0343D01*
Y034195D01*
X038077Y034143D01*
X038182D01*
X038235Y034195D01*
Y034248D01*
X038182Y0343D01*
X038025D01*
X024495Y03364D02*
X024442Y033588D01*
Y033483D01*
X024495Y03343D01*
X024705D01*
X024757Y033483D01*
Y033588D01*
X024705Y03364D01*
X024495Y033745D02*
X024442Y033798D01*
Y033902D01*
X024495Y033955D01*
X024547D01*
X0246Y033902D01*
Y03385D01*
Y033902D01*
X024652Y033955D01*
X024705D01*
X024757Y033902D01*
Y033798D01*
X024705Y033745D01*
X024757Y03427D02*
Y03406D01*
X024547Y03427D01*
X024495D01*
X024442Y034217D01*
Y034112D01*
X024495Y03406D01*
X032795Y03364D02*
X032742Y033588D01*
Y033483D01*
X032795Y03343D01*
X033005D01*
X033057Y033483D01*
Y033588D01*
X033005Y03364D01*
X032795Y033745D02*
X032742Y033798D01*
Y033902D01*
X032795Y033955D01*
X032847D01*
X0329Y033902D01*
Y03385D01*
Y033902D01*
X032952Y033955D01*
X033005D01*
X033057Y033902D01*
Y033798D01*
X033005Y033745D01*
X032795Y03406D02*
X032742Y034112D01*
Y034217D01*
X032795Y03427D01*
X033005D01*
X033057Y034217D01*
Y034112D01*
X033005Y03406D01*
X032795D01*
D115*
X04145Y026157D02*
X04208D01*
X04145Y025843D02*
X04208D01*
X04145D02*
Y026157D01*
X04208Y025843D02*
Y026157D01*
X041485Y027107D02*
X042115D01*
X041485Y026793D02*
X042115D01*
X041485D02*
Y027107D01*
X042115Y026793D02*
Y027107D01*
X037543Y041265D02*
X037857D01*
X037543Y040635D02*
X037857D01*
Y041265D01*
X037543Y040635D02*
Y041265D01*
X036335Y037443D02*
X036965D01*
X036335Y037757D02*
X036965D01*
Y037443D02*
Y037757D01*
X036335Y037443D02*
Y037757D01*
X01505Y031357D02*
X01568D01*
X01505Y031043D02*
X01568D01*
X01505D02*
Y031357D01*
X01568Y031043D02*
Y031357D01*
X017957Y029285D02*
Y029915D01*
X017643Y029285D02*
Y029915D01*
X017957D01*
X017643Y029285D02*
X017957D01*
X019343Y028285D02*
X019657D01*
X019343Y028915D02*
X019657D01*
X019343Y028285D02*
Y028915D01*
X019657Y028285D02*
Y028915D01*
X021593Y028915D02*
X021907D01*
X021593Y028285D02*
X021907D01*
Y028915D01*
X021593Y028285D02*
Y028915D01*
X028257Y028485D02*
Y029115D01*
X027943Y028485D02*
Y029115D01*
X028257D01*
X027943Y028485D02*
X028257D01*
X030343D02*
Y029115D01*
X030657Y028485D02*
Y029115D01*
X030343Y028485D02*
X030657D01*
X030343Y029115D02*
X030657D01*
X021693Y014465D02*
X022007D01*
X021693Y013835D02*
X022007D01*
X021693D02*
Y014465D01*
X022007Y013835D02*
Y014465D01*
X017835Y015757D02*
X018465D01*
X017835Y015443D02*
X018465D01*
Y015757D01*
X017835Y015443D02*
Y015757D01*
X019507Y015685D02*
Y016315D01*
X019193Y015685D02*
Y016315D01*
Y015685D02*
X019507D01*
X019193Y016315D02*
X019507D01*
X017835Y016243D02*
X018465D01*
X017835Y016557D02*
X018465D01*
X017835Y016243D02*
Y016557D01*
X018465Y016243D02*
Y016557D01*
X020185Y018807D02*
X020815D01*
X020185Y018493D02*
X020815D01*
Y018807D01*
X020185Y018493D02*
Y018807D01*
Y017857D02*
X020815D01*
X020185Y017543D02*
X020815D01*
Y017857D01*
X020185Y017543D02*
Y017857D01*
X018685Y018157D02*
X019315D01*
X018685Y017843D02*
X019315D01*
Y018157D01*
X018685Y017843D02*
Y018157D01*
X018735Y017257D02*
X019365D01*
X018735Y016943D02*
X019365D01*
Y017257D01*
X018735Y016943D02*
Y017257D01*
X031843Y01157D02*
Y0122D01*
X032157Y01157D02*
Y0122D01*
X031843D02*
X032157D01*
X031843Y01157D02*
X032157D01*
X022393Y015785D02*
Y016415D01*
X022707Y015785D02*
Y016415D01*
X022393D02*
X022707D01*
X022393Y015785D02*
X022707D01*
X022807Y013835D02*
Y014465D01*
X022493Y013835D02*
Y014465D01*
Y013835D02*
X022807D01*
X022493Y014465D02*
X022807D01*
X020185Y016643D02*
X020815D01*
X020185Y016957D02*
X020815D01*
X020185Y016643D02*
Y016957D01*
X020815Y016643D02*
Y016957D01*
X019193Y014052D02*
Y014682D01*
X019507Y014052D02*
Y014682D01*
X019193D02*
X019507D01*
X019193Y014052D02*
X019507D01*
X018319D02*
Y014682D01*
X018634Y014052D02*
Y014682D01*
X018319D02*
X018634D01*
X018319Y014052D02*
X018634D01*
X015943Y014085D02*
Y014715D01*
X016257Y014085D02*
Y014715D01*
X015943D02*
X016257D01*
X015943Y014085D02*
X016257D01*
X0375Y034143D02*
Y034457D01*
X03813Y034143D02*
Y034457D01*
X0375D02*
X03813D01*
X0375Y034143D02*
X03813D01*
X024443Y033535D02*
X024757D01*
X024443Y034165D02*
X024757D01*
X024443Y033535D02*
Y034165D01*
X024757Y033535D02*
Y034165D01*
X032743Y033535D02*
X033057D01*
X032743Y034165D02*
X033057D01*
X032743Y033535D02*
Y034165D01*
X033057Y033535D02*
Y034165D01*
M02*
