G04*
G04 #@! TF.GenerationSoftware,Altium Limited,Altium Designer,21.3.2 (30)*
G04*
G04 Layer_Color=32896*
%FSTAX24Y24*%
%MOIN*%
G70*
G04*
G04 #@! TF.SameCoordinates,AAB4DB19-2E37-4297-9B89-C5A600987651*
G04*
G04*
G04 #@! TF.FilePolarity,Positive*
G04*
G01*
G75*
%ADD10C,0.0079*%
%ADD13C,0.0050*%
D10*
X021653Y014809D02*
G03*
X021496Y014652I0J-000157D01*
G01*
Y013648D02*
G03*
X021653Y013491I000157J0D01*
G01*
X022047D02*
G03*
X022204Y013648I0J000157D01*
G01*
Y014652D02*
G03*
X022047Y014809I-000157J0D01*
G01*
X017648Y015954D02*
G03*
X017491Y015797I0J-000157D01*
G01*
X018809D02*
G03*
X018652Y015954I-000157J0D01*
G01*
Y015246D02*
G03*
X018809Y015403I0J000157D01*
G01*
X017491D02*
G03*
X017648Y015246I000157J0D01*
G01*
X019704Y016502D02*
G03*
X019547Y016659I-000157J0D01*
G01*
Y015341D02*
G03*
X019704Y015498I0J000157D01*
G01*
X018996D02*
G03*
X019153Y015341I000157J0D01*
G01*
Y016659D02*
G03*
X018996Y016502I0J-000157D01*
G01*
X018652Y016046D02*
G03*
X018809Y016203I0J000157D01*
G01*
X017491D02*
G03*
X017648Y016046I000157J0D01*
G01*
Y016754D02*
G03*
X017491Y016597I0J-000157D01*
G01*
X018809D02*
G03*
X018652Y016754I-000157J0D01*
G01*
X019998Y019004D02*
G03*
X019841Y018847I0J-000157D01*
G01*
X021159D02*
G03*
X021002Y019004I-000157J0D01*
G01*
Y018296D02*
G03*
X021159Y018453I0J000157D01*
G01*
X019841D02*
G03*
X019998Y018296I000157J0D01*
G01*
Y018054D02*
G03*
X019841Y017897I0J-000157D01*
G01*
X021159D02*
G03*
X021002Y018054I-000157J0D01*
G01*
Y017346D02*
G03*
X021159Y017503I0J000157D01*
G01*
X019841D02*
G03*
X019998Y017346I000157J0D01*
G01*
X018498Y018354D02*
G03*
X018341Y018197I0J-000157D01*
G01*
X019659D02*
G03*
X019502Y018354I-000157J0D01*
G01*
Y017646D02*
G03*
X019659Y017803I0J000157D01*
G01*
X018341D02*
G03*
X018498Y017646I000157J0D01*
G01*
X018548Y017454D02*
G03*
X018391Y017297I0J-000157D01*
G01*
X019709D02*
G03*
X019552Y017454I-000157J0D01*
G01*
Y016746D02*
G03*
X019709Y016903I0J000157D01*
G01*
X018391D02*
G03*
X018548Y016746I000157J0D01*
G01*
X031646Y011383D02*
G03*
X031803Y011226I000157J0D01*
G01*
Y012544D02*
G03*
X031646Y012387I0J-000157D01*
G01*
X032354D02*
G03*
X032197Y012544I-000157J0D01*
G01*
Y011226D02*
G03*
X032354Y011383I0J000157D01*
G01*
X022196Y015598D02*
G03*
X022353Y015441I000157J0D01*
G01*
Y016759D02*
G03*
X022196Y016602I0J-000157D01*
G01*
X022904D02*
G03*
X022747Y016759I-000157J0D01*
G01*
Y015441D02*
G03*
X022904Y015598I0J000157D01*
G01*
X023004Y014652D02*
G03*
X022847Y014809I-000157J0D01*
G01*
Y013491D02*
G03*
X023004Y013648I0J000157D01*
G01*
X022296D02*
G03*
X022453Y013491I000157J0D01*
G01*
Y014809D02*
G03*
X022296Y014652I0J-000157D01*
G01*
X021002Y016446D02*
G03*
X021159Y016603I0J000157D01*
G01*
X019841D02*
G03*
X019998Y016446I000157J0D01*
G01*
Y017154D02*
G03*
X019841Y016997I0J-000157D01*
G01*
X021159D02*
G03*
X021002Y017154I-000157J0D01*
G01*
X018996Y013865D02*
G03*
X019153Y013708I000157J0D01*
G01*
Y015027D02*
G03*
X018996Y014869I0J-000157D01*
G01*
X019704D02*
G03*
X019547Y015027I-000157J0D01*
G01*
Y013708D02*
G03*
X019704Y013865I0J000157D01*
G01*
X018122D02*
G03*
X01828Y013708I000157J0D01*
G01*
Y015027D02*
G03*
X018122Y014869I0J-000157D01*
G01*
X018831D02*
G03*
X018674Y015027I-000157J0D01*
G01*
Y013708D02*
G03*
X018831Y013865I0J000157D01*
G01*
X015746Y013898D02*
G03*
X015903Y013741I000157J0D01*
G01*
Y015059D02*
G03*
X015746Y014902I0J-000157D01*
G01*
X016454D02*
G03*
X016297Y015059I-000157J0D01*
G01*
Y013741D02*
G03*
X016454Y013898I0J000157D01*
G01*
X019696Y015152D02*
G03*
X019696Y015152I-000039J0D01*
G01*
X021496Y013648D02*
Y014652D01*
X022204Y013648D02*
Y014652D01*
X021653Y014809D02*
X022047D01*
X021653Y013491D02*
X022047D01*
X018809Y015403D02*
Y015797D01*
X017491Y015403D02*
Y015797D01*
X017648Y015954D02*
X018652D01*
X017648Y015246D02*
X018652D01*
X019153Y015341D02*
X019547D01*
X019153Y016659D02*
X019547D01*
X019704Y015498D02*
Y016502D01*
X018996Y015498D02*
Y016502D01*
X017491Y016203D02*
Y016597D01*
X018809Y016203D02*
Y016597D01*
X017648Y016046D02*
X018652D01*
X017648Y016754D02*
X018652D01*
X021159Y018453D02*
Y018847D01*
X019841Y018453D02*
Y018847D01*
X019998Y019004D02*
X021002D01*
X019998Y018296D02*
X021002D01*
X021159Y017503D02*
Y017897D01*
X019841Y017503D02*
Y017897D01*
X019998Y018054D02*
X021002D01*
X019998Y017346D02*
X021002D01*
X019659Y017803D02*
Y018197D01*
X018341Y017803D02*
Y018197D01*
X018498Y018354D02*
X019502D01*
X018498Y017646D02*
X019502D01*
X019709Y016903D02*
Y017297D01*
X018391Y016903D02*
Y017297D01*
X018548Y017454D02*
X019552D01*
X018548Y016746D02*
X019552D01*
X031803Y012544D02*
X032197D01*
X031803Y011226D02*
X032197D01*
X031646Y011383D02*
Y012387D01*
X032354Y011383D02*
Y012387D01*
X022353Y016759D02*
X022747D01*
X022353Y015441D02*
X022747D01*
X022196Y015598D02*
Y016602D01*
X022904Y015598D02*
Y016602D01*
X022453Y013491D02*
X022847D01*
X022453Y014809D02*
X022847D01*
X023004Y013648D02*
Y014652D01*
X022296Y013648D02*
Y014652D01*
X019841Y016603D02*
Y016997D01*
X021159Y016603D02*
Y016997D01*
X019998Y016446D02*
X021002D01*
X019998Y017154D02*
X021002D01*
X019153Y015027D02*
X019547D01*
X019153Y013708D02*
X019547D01*
X018996Y013865D02*
Y014869D01*
X019704Y013865D02*
Y014869D01*
X01828Y015027D02*
X018674D01*
X01828Y013708D02*
X018674D01*
X018122Y013865D02*
Y014869D01*
X018831Y013865D02*
Y014869D01*
X015903Y015059D02*
X016297D01*
X015903Y013741D02*
X016297D01*
X015746Y013898D02*
Y014902D01*
X016454Y013898D02*
Y014902D01*
D13*
X01603Y0154D02*
X01647D01*
X01603Y0161D02*
X01647D01*
X020009Y015033D02*
X020326D01*
X020009Y016215D02*
X020326D01*
X020874Y015033D02*
X021191D01*
X020874Y016215D02*
X021191D01*
X02133Y016965D02*
Y016702D01*
X021278Y01665D01*
X021173D01*
X02112Y016702D01*
Y016965D01*
X021015Y01665D02*
X02091D01*
X020963D01*
Y016965D01*
X021015Y016912D01*
X01884Y01707D02*
Y017385D01*
X018683D01*
X01863Y017332D01*
Y017227D01*
X018683Y017175D01*
X01884D01*
X018735D02*
X01863Y01707D01*
X018315Y017385D02*
X01842Y017332D01*
X018525Y017227D01*
Y017122D01*
X018473Y01707D01*
X018368D01*
X018315Y017122D01*
Y017175D01*
X018368Y017227D01*
X018525D01*
X02222Y01514D02*
Y015455D01*
X022063D01*
X02201Y015402D01*
Y015297D01*
X022063Y015245D01*
X02222D01*
X022115D02*
X02201Y01514D01*
X021695Y015455D02*
X021905D01*
Y015297D01*
X0218Y01535D01*
X021748D01*
X021695Y015297D01*
Y015192D01*
X021748Y01514D01*
X021853D01*
X021905Y015192D01*
X01974Y01777D02*
Y018085D01*
X019583D01*
X01953Y018032D01*
Y017927D01*
X019583Y017875D01*
X01974D01*
X019635D02*
X01953Y01777D01*
X019268D02*
Y018085D01*
X019425Y017927D01*
X019215D01*
X03237Y01287D02*
Y013185D01*
X032213D01*
X03216Y013132D01*
Y013027D01*
X032213Y012975D01*
X03237D01*
X032265D02*
X03216Y01287D01*
X032055Y013132D02*
X032003Y013185D01*
X031898D01*
X031845Y013132D01*
Y01308D01*
X031898Y013027D01*
X03195D01*
X031898D01*
X031845Y012975D01*
Y012922D01*
X031898Y01287D01*
X032003D01*
X032055Y012922D01*
X01969Y01867D02*
Y018985D01*
X019533D01*
X01948Y018932D01*
Y018827D01*
X019533Y018775D01*
X01969D01*
X019585D02*
X01948Y01867D01*
X019165D02*
X019375D01*
X019165Y01888D01*
Y018932D01*
X019218Y018985D01*
X019323D01*
X019375Y018932D01*
X02119Y01837D02*
Y018685D01*
X021033D01*
X02098Y018632D01*
Y018527D01*
X021033Y018475D01*
X02119D01*
X021085D02*
X02098Y01837D01*
X020875D02*
X02077D01*
X020823D01*
Y018685D01*
X020875Y018632D01*
X01769Y015615D02*
X0179D01*
Y015457D01*
X017795D01*
X0179D01*
Y0153D01*
X017585Y015615D02*
Y0153D01*
X017428D01*
X017375Y015352D01*
Y015405D01*
X017428Y015457D01*
X017585D01*
X017428D01*
X017375Y01551D01*
Y015562D01*
X017428Y015615D01*
X017585D01*
X01727Y0153D02*
X017165D01*
X017218D01*
Y015615D01*
X01727Y015562D01*
X01691Y016775D02*
X01712D01*
Y016617D01*
X017015D01*
X01712D01*
Y01646D01*
X016805D02*
X0167D01*
X016753D01*
Y016775D01*
X016805Y016722D01*
X01951Y017272D02*
X019563Y017325D01*
X019668D01*
X01972Y017272D01*
Y017062D01*
X019668Y01701D01*
X019563D01*
X01951Y017062D01*
X019405Y01701D02*
X0193D01*
X019353D01*
Y017325D01*
X019405Y017272D01*
X019143D02*
X01909Y017325D01*
X018985D01*
X018933Y017272D01*
Y01722D01*
X018985Y017167D01*
X019038D01*
X018985D01*
X018933Y017115D01*
Y017062D01*
X018985Y01701D01*
X01909D01*
X019143Y017062D01*
X01865Y016532D02*
X018703Y016585D01*
X018808D01*
X01886Y016532D01*
Y016322D01*
X018808Y01627D01*
X018703D01*
X01865Y016322D01*
X018545Y01627D02*
X01844D01*
X018493D01*
Y016585D01*
X018545Y016532D01*
X018073Y01627D02*
X018283D01*
X018073Y01648D01*
Y016532D01*
X018125Y016585D01*
X01823D01*
X018283Y016532D01*
X02271Y017372D02*
X022763Y017425D01*
X022868D01*
X02292Y017372D01*
Y017162D01*
X022868Y01711D01*
X022763D01*
X02271Y017162D01*
X022605Y01711D02*
X0225D01*
X022553D01*
Y017425D01*
X022605Y017372D01*
X022343Y01711D02*
X022238D01*
X02229D01*
Y017425D01*
X022343Y017372D01*
X02281Y015422D02*
X022863Y015475D01*
X022968D01*
X02302Y015422D01*
Y015212D01*
X022968Y01516D01*
X022863D01*
X02281Y015212D01*
X022705Y01516D02*
X0226D01*
X022653D01*
Y015475D01*
X022705Y015422D01*
X022443D02*
X02239Y015475D01*
X022285D01*
X022233Y015422D01*
Y015212D01*
X022285Y01516D01*
X02239D01*
X022443Y015212D01*
Y015422D01*
X02102Y019582D02*
X021073Y019635D01*
X021178D01*
X02123Y019582D01*
Y019372D01*
X021178Y01932D01*
X021073D01*
X02102Y019372D01*
X020705Y019635D02*
X02081Y019582D01*
X020915Y019477D01*
Y019372D01*
X020863Y01932D01*
X020758D01*
X020705Y019372D01*
Y019425D01*
X020758Y019477D01*
X020915D01*
X021Y017732D02*
X021053Y017785D01*
X021158D01*
X02121Y017732D01*
Y017522D01*
X021158Y01747D01*
X021053D01*
X021Y017522D01*
X020685Y017785D02*
X020895D01*
Y017627D01*
X02079Y01768D01*
X020738D01*
X020685Y017627D01*
Y017522D01*
X020738Y01747D01*
X020843D01*
X020895Y017522D01*
X01864Y015622D02*
X018693Y015675D01*
X018798D01*
X01885Y015622D01*
Y015412D01*
X018798Y01536D01*
X018693D01*
X01864Y015412D01*
X018378Y01536D02*
Y015675D01*
X018535Y015517D01*
X018325D01*
X01951Y015622D02*
X019563Y015675D01*
X019668D01*
X01972Y015622D01*
Y015412D01*
X019668Y01536D01*
X019563D01*
X01951Y015412D01*
X019405Y015622D02*
X019353Y015675D01*
X019248D01*
X019195Y015622D01*
Y01557D01*
X019248Y015517D01*
X0193D01*
X019248D01*
X019195Y015465D01*
Y015412D01*
X019248Y01536D01*
X019353D01*
X019405Y015412D01*
X01626Y015652D02*
X016313Y015705D01*
X016418D01*
X01647Y015652D01*
Y015442D01*
X016418Y01539D01*
X016313D01*
X01626Y015442D01*
X015945Y01539D02*
X016155D01*
X015945Y0156D01*
Y015652D01*
X015998Y015705D01*
X016103D01*
X016155Y015652D01*
M02*
