G04*
G04 #@! TF.GenerationSoftware,Altium Limited,Altium Designer,21.3.2 (30)*
G04*
G04 Layer_Color=128*
%FSTAX24Y24*%
%MOIN*%
G70*
G04*
G04 #@! TF.SameCoordinates,AAB4DB19-2E37-4297-9B89-C5A600987651*
G04*
G04*
G04 #@! TF.FilePolarity,Positive*
G04*
G01*
G75*
%ADD18R,0.0394X0.0382*%
%ADD24R,0.0374X0.0394*%
%ADD31R,0.0394X0.0374*%
%ADD110R,0.0461X0.0709*%
G04:AMPARAMS|DCode=111|XSize=23.6mil|YSize=9.4mil|CornerRadius=1.2mil|HoleSize=0mil|Usage=FLASHONLY|Rotation=0.000|XOffset=0mil|YOffset=0mil|HoleType=Round|Shape=RoundedRectangle|*
%AMROUNDEDRECTD111*
21,1,0.0236,0.0071,0,0,0.0*
21,1,0.0213,0.0094,0,0,0.0*
1,1,0.0024,0.0106,-0.0035*
1,1,0.0024,-0.0106,-0.0035*
1,1,0.0024,-0.0106,0.0035*
1,1,0.0024,0.0106,0.0035*
%
%ADD111ROUNDEDRECTD111*%
G36*
X03955Y024D02*
Y0122D01*
X03915Y0118D01*
X0352D01*
X0348Y0122D01*
Y0163D01*
X03385Y01725D01*
X03075D01*
X02885Y01915D01*
Y019637D01*
X028896Y019657D01*
X028896Y019657D01*
X029025Y019537D01*
X028935Y019627D01*
X028867Y019695D01*
X028867Y019743D01*
Y020445D01*
X029162Y02074D01*
X032319D01*
X036029Y02445D01*
X0391D01*
X03955Y024D01*
D02*
G37*
G36*
X020748Y016159D02*
X020649D01*
Y016293D01*
X020748D01*
Y016159D01*
D02*
G37*
G36*
X020551D02*
X020452D01*
Y016293D01*
X020551D01*
Y016159D01*
D02*
G37*
G36*
X020895Y015663D02*
X020305D01*
Y016081D01*
X020895D01*
Y015663D01*
D02*
G37*
G36*
Y015167D02*
X020305D01*
Y015585D01*
X020895D01*
Y015167D01*
D02*
G37*
G36*
X020748Y014955D02*
X020649D01*
Y015089D01*
X020748D01*
Y014955D01*
D02*
G37*
G36*
X020551D02*
X020452D01*
Y015089D01*
X020551D01*
Y014955D01*
D02*
G37*
G36*
X031756Y021666D02*
X031156Y021116D01*
X028856D01*
X028206Y020466D01*
Y018716D01*
X030806Y016116D01*
Y014216D01*
X029656Y013066D01*
Y012666D01*
X028906D01*
X028806Y012766D01*
Y013316D01*
X026556Y015566D01*
Y020616D01*
X027706Y021766D01*
X030006D01*
X030206Y021966D01*
X031756D01*
Y021666D01*
D02*
G37*
G36*
X029086Y024516D02*
Y023253D01*
X026925D01*
X025821Y02215D01*
X019279D01*
X018682Y021553D01*
X018648D01*
Y020953D01*
X017898Y020203D01*
X017198Y019503D01*
Y015303D01*
X017298Y015203D01*
Y014403D01*
X018148Y013553D01*
Y012653D01*
X017898Y012403D01*
X017048D01*
X01665Y012801D01*
Y015201D01*
X016348Y015503D01*
Y024053D01*
X016948Y024653D01*
X028948D01*
X029086Y024516D01*
D02*
G37*
D18*
X017061Y014752D02*
D03*
X01764D02*
D03*
D24*
X017835Y0156D02*
D03*
X018465D02*
D03*
Y0164D02*
D03*
X017835D02*
D03*
X020185Y01865D02*
D03*
X020815D02*
D03*
X020185Y0177D02*
D03*
X020815D02*
D03*
X018685Y018D02*
D03*
X019315D02*
D03*
X018735Y0171D02*
D03*
X019365D02*
D03*
X020815Y0168D02*
D03*
X020185D02*
D03*
D31*
X02185Y013835D02*
D03*
Y014465D02*
D03*
X01935Y016315D02*
D03*
Y015685D02*
D03*
X032Y01157D02*
D03*
Y0122D02*
D03*
X02255Y015785D02*
D03*
Y016415D02*
D03*
X02265Y014465D02*
D03*
Y013835D02*
D03*
X01935Y014052D02*
D03*
Y014682D02*
D03*
X018477Y014052D02*
D03*
Y014682D02*
D03*
X0161Y014085D02*
D03*
Y014715D02*
D03*
D110*
X015671Y01575D02*
D03*
X016829D02*
D03*
D111*
X020049Y01523D02*
D03*
Y015427D02*
D03*
Y015624D02*
D03*
Y015821D02*
D03*
Y016018D02*
D03*
X021151D02*
D03*
Y015821D02*
D03*
Y015624D02*
D03*
Y015427D02*
D03*
Y01523D02*
D03*
M02*
