G04*
G04 #@! TF.GenerationSoftware,Altium Limited,Altium Designer,21.3.2 (30)*
G04*
G04 Layer_Color=65535*
%FSTAX24Y24*%
%MOIN*%
G70*
G04*
G04 #@! TF.SameCoordinates,AAB4DB19-2E37-4297-9B89-C5A600987651*
G04*
G04*
G04 #@! TF.FilePolarity,Positive*
G04*
G01*
G75*
%ADD10C,0.0079*%
%ADD11C,0.0060*%
%ADD12C,0.0000*%
%ADD13C,0.0050*%
%ADD14C,0.0100*%
%ADD15C,0.0080*%
%ADD16C,0.0020*%
%ADD17C,0.0070*%
D10*
X042426Y029147D02*
G03*
X042269Y029304I-000157J0D01*
G01*
X041265D02*
G03*
X041107Y029147I0J-000157D01*
G01*
Y028753D02*
G03*
X041265Y028596I000157J0D01*
G01*
X042269D02*
G03*
X042426Y028753I0J000157D01*
G01*
Y028197D02*
G03*
X042269Y028354I-000157J0D01*
G01*
X041265D02*
G03*
X041107Y028197I0J-000157D01*
G01*
Y027803D02*
G03*
X041265Y027646I000157J0D01*
G01*
X042269D02*
G03*
X042426Y027803I0J000157D01*
G01*
X042424Y026197D02*
G03*
X042267Y026354I-000157J0D01*
G01*
X041263D02*
G03*
X041106Y026197I0J-000157D01*
G01*
Y025803D02*
G03*
X041263Y025646I000157J0D01*
G01*
X042267D02*
G03*
X042424Y025803I0J000157D01*
G01*
X042459Y027147D02*
G03*
X042302Y027304I-000157J0D01*
G01*
X041298D02*
G03*
X041141Y027147I0J-000157D01*
G01*
Y026753D02*
G03*
X041298Y026596I000157J0D01*
G01*
X042302D02*
G03*
X042459Y026753I0J000157D01*
G01*
X038244Y032147D02*
G03*
X038087Y032304I-000157J0D01*
G01*
X037083D02*
G03*
X036926Y032147I0J-000157D01*
G01*
Y031753D02*
G03*
X037083Y031596I000157J0D01*
G01*
X038087D02*
G03*
X038244Y031753I0J000157D01*
G01*
X038226Y031197D02*
G03*
X038068Y031354I-000157J0D01*
G01*
X037065D02*
G03*
X036907Y031197I0J-000157D01*
G01*
Y030803D02*
G03*
X037065Y030646I000157J0D01*
G01*
X038068D02*
G03*
X038226Y030803I0J000157D01*
G01*
Y030197D02*
G03*
X038068Y030354I-000157J0D01*
G01*
X037065D02*
G03*
X036907Y030197I0J-000157D01*
G01*
Y029803D02*
G03*
X037065Y029646I000157J0D01*
G01*
X038068D02*
G03*
X038226Y029803I0J000157D01*
G01*
X039822Y026481D02*
G03*
X039822Y026481I-000039J0D01*
G01*
X012914Y041012D02*
G03*
X012914Y041012I-000039J0D01*
G01*
X012552Y037946D02*
G03*
X012709Y038103I0J000157D01*
G01*
X011391D02*
G03*
X011548Y037946I000157J0D01*
G01*
Y038654D02*
G03*
X011391Y038497I0J-000157D01*
G01*
X012709D02*
G03*
X012552Y038654I-000157J0D01*
G01*
X014302Y040696D02*
G03*
X014459Y040853I0J000157D01*
G01*
X013141D02*
G03*
X013298Y040696I000157J0D01*
G01*
Y041404D02*
G03*
X013141Y041247I0J-000157D01*
G01*
X014459D02*
G03*
X014302Y041404I-000157J0D01*
G01*
X014317Y039846D02*
G03*
X014474Y040003I0J000157D01*
G01*
X013156D02*
G03*
X013313Y039846I000157J0D01*
G01*
Y040554D02*
G03*
X013156Y040397I0J-000157D01*
G01*
X014474D02*
G03*
X014317Y040554I-000157J0D01*
G01*
X020052Y039346D02*
G03*
X020209Y039503I0J000157D01*
G01*
X018891D02*
G03*
X019048Y039346I000157J0D01*
G01*
Y040054D02*
G03*
X018891Y039897I0J-000157D01*
G01*
X020209D02*
G03*
X020052Y040054I-000157J0D01*
G01*
X041333Y034202D02*
G03*
X041333Y034202I-000039J0D01*
G01*
X040747Y038549D02*
G03*
X04059Y038392I0J-000157D01*
G01*
X041908D02*
G03*
X041751Y038549I-000157J0D01*
G01*
Y037841D02*
G03*
X041908Y037998I0J000157D01*
G01*
X04059D02*
G03*
X040747Y037841I000157J0D01*
G01*
X041752Y038796D02*
G03*
X041909Y038953I0J000157D01*
G01*
X040591D02*
G03*
X040748Y038796I000157J0D01*
G01*
Y039504D02*
G03*
X040591Y039347I0J-000157D01*
G01*
X041909D02*
G03*
X041752Y039504I-000157J0D01*
G01*
X038054Y041452D02*
G03*
X037897Y041609I-000157J0D01*
G01*
Y040291D02*
G03*
X038054Y040448I0J000157D01*
G01*
X037346D02*
G03*
X037503Y040291I000157J0D01*
G01*
Y041609D02*
G03*
X037346Y041452I0J-000157D01*
G01*
X036417Y040596D02*
G03*
X036574Y040753I0J000157D01*
G01*
X035256D02*
G03*
X035413Y040596I000157J0D01*
G01*
Y041304D02*
G03*
X035256Y041147I0J-000157D01*
G01*
X036574D02*
G03*
X036417Y041304I-000157J0D01*
G01*
X035991Y037403D02*
G03*
X036148Y037246I000157J0D01*
G01*
X037152D02*
G03*
X037309Y037403I0J000157D01*
G01*
Y037797D02*
G03*
X037152Y037954I-000157J0D01*
G01*
X036148D02*
G03*
X035991Y037797I0J-000157D01*
G01*
X031696Y033348D02*
G03*
X031853Y033191I000157J0D01*
G01*
Y034509D02*
G03*
X031696Y034352I0J-000157D01*
G01*
X032404D02*
G03*
X032247Y034509I-000157J0D01*
G01*
Y033191D02*
G03*
X032404Y033348I0J000157D01*
G01*
X016504Y036417D02*
G03*
X016347Y036574I-000157J0D01*
G01*
Y035256D02*
G03*
X016504Y035413I0J000157D01*
G01*
X015796D02*
G03*
X015953Y035256I000157J0D01*
G01*
Y036574D02*
G03*
X015796Y036417I0J-000157D01*
G01*
X015053Y036574D02*
G03*
X014896Y036417I0J-000157D01*
G01*
Y035413D02*
G03*
X015053Y035256I000157J0D01*
G01*
X015447D02*
G03*
X015604Y035413I0J000157D01*
G01*
Y036417D02*
G03*
X015447Y036574I-000157J0D01*
G01*
X016504Y033552D02*
G03*
X016347Y033709I-000157J0D01*
G01*
Y032391D02*
G03*
X016504Y032548I0J000157D01*
G01*
X015796D02*
G03*
X015953Y032391I000157J0D01*
G01*
Y033709D02*
G03*
X015796Y033552I0J-000157D01*
G01*
X015003Y033709D02*
G03*
X014846Y033552I0J-000157D01*
G01*
Y032548D02*
G03*
X015003Y032391I000157J0D01*
G01*
X015397D02*
G03*
X015554Y032548I0J000157D01*
G01*
Y033552D02*
G03*
X015397Y033709I-000157J0D01*
G01*
X016024Y031397D02*
G03*
X015867Y031554I-000157J0D01*
G01*
X014863D02*
G03*
X014706Y031397I0J-000157D01*
G01*
Y031003D02*
G03*
X014863Y030846I000157J0D01*
G01*
X015867D02*
G03*
X016024Y031003I0J000157D01*
G01*
X017997Y028941D02*
G03*
X018154Y029098I0J000157D01*
G01*
Y030102D02*
G03*
X017997Y030259I-000157J0D01*
G01*
X017603D02*
G03*
X017446Y030102I0J-000157D01*
G01*
Y029098D02*
G03*
X017603Y028941I000157J0D01*
G01*
X014963Y027904D02*
G03*
X014806Y027747I0J-000157D01*
G01*
X016124D02*
G03*
X015967Y027904I-000157J0D01*
G01*
Y027196D02*
G03*
X016124Y027353I0J000157D01*
G01*
X014806D02*
G03*
X014963Y027196I000157J0D01*
G01*
X015952Y026296D02*
G03*
X016109Y026453I0J000157D01*
G01*
X014791D02*
G03*
X014948Y026296I000157J0D01*
G01*
Y027004D02*
G03*
X014791Y026847I0J-000157D01*
G01*
X016109D02*
G03*
X015952Y027004I-000157J0D01*
G01*
X021122Y029466D02*
G03*
X021122Y029466I-000039J0D01*
G01*
X029771Y029652D02*
G03*
X029771Y029652I-000039J0D01*
G01*
X035968Y02125D02*
G03*
X035968Y02125I-000039J0D01*
G01*
X027393Y022421D02*
G03*
X027393Y022421I-000039J0D01*
G01*
X015594Y01315D02*
G03*
X015594Y01315I-000039J0D01*
G01*
Y02125D02*
G03*
X015594Y02125I-000039J0D01*
G01*
X035968Y01315D02*
G03*
X035968Y01315I-000039J0D01*
G01*
X031623Y012079D02*
G03*
X031623Y012079I-000039J0D01*
G01*
X040589Y033944D02*
G03*
X040589Y033944I-000039J0D01*
G01*
X038376Y025853D02*
G03*
X038533Y025696I000157J0D01*
G01*
X039537D02*
G03*
X039694Y025853I0J000157D01*
G01*
Y026247D02*
G03*
X039537Y026404I-000157J0D01*
G01*
X038533D02*
G03*
X038376Y026247I0J-000157D01*
G01*
X012246Y030798D02*
G03*
X012246Y030798I-000039J0D01*
G01*
X035093Y043368D02*
G03*
X035093Y043368I-000039J0D01*
G01*
X023897Y033191D02*
G03*
X024054Y033348I0J000157D01*
G01*
Y034352D02*
G03*
X023897Y034509I-000157J0D01*
G01*
X023503D02*
G03*
X023346Y034352I0J-000157D01*
G01*
Y033348D02*
G03*
X023503Y033191I000157J0D01*
G01*
X040639Y041094D02*
G03*
X040639Y041094I-000039J0D01*
G01*
X014617Y024921D02*
G03*
X014617Y024921I-000039J0D01*
G01*
X012103D02*
G03*
X012103Y024921I-000039J0D01*
G01*
X037313Y034654D02*
G03*
X037156Y034497I0J-000157D01*
G01*
X038474D02*
G03*
X038317Y034654I-000157J0D01*
G01*
Y033946D02*
G03*
X038474Y034103I0J000157D01*
G01*
X037156D02*
G03*
X037313Y033946I000157J0D01*
G01*
X024246Y033348D02*
G03*
X024403Y033191I000157J0D01*
G01*
Y034509D02*
G03*
X024246Y034352I0J-000157D01*
G01*
X024954D02*
G03*
X024797Y034509I-000157J0D01*
G01*
Y033191D02*
G03*
X024954Y033348I0J000157D01*
G01*
X032546D02*
G03*
X032703Y033191I000157J0D01*
G01*
Y034509D02*
G03*
X032546Y034352I0J-000157D01*
G01*
X033254D02*
G03*
X033097Y034509I-000157J0D01*
G01*
Y033191D02*
G03*
X033254Y033348I0J000157D01*
G01*
X022209Y041647D02*
G03*
X022052Y041804I-000157J0D01*
G01*
X021048D02*
G03*
X020891Y041647I0J-000157D01*
G01*
Y041253D02*
G03*
X021048Y041096I000157J0D01*
G01*
X022052D02*
G03*
X022209Y041253I0J000157D01*
G01*
Y043547D02*
G03*
X022052Y043704I-000157J0D01*
G01*
X021048D02*
G03*
X020891Y043547I0J-000157D01*
G01*
Y043153D02*
G03*
X021048Y042996I000157J0D01*
G01*
X022052D02*
G03*
X022209Y043153I0J000157D01*
G01*
X022224Y040647D02*
G03*
X022067Y040804I-000157J0D01*
G01*
X021063D02*
G03*
X020906Y040647I0J-000157D01*
G01*
Y040253D02*
G03*
X021063Y040096I000157J0D01*
G01*
X022067D02*
G03*
X022224Y040253I0J000157D01*
G01*
X031146Y035631D02*
G03*
X031303Y035474I000157J0D01*
G01*
Y036793D02*
G03*
X031146Y036635I0J-000157D01*
G01*
X031854D02*
G03*
X031697Y036793I-000157J0D01*
G01*
Y035474D02*
G03*
X031854Y035631I0J000157D01*
G01*
X034146D02*
G03*
X034303Y035474I000157J0D01*
G01*
Y036793D02*
G03*
X034146Y036635I0J-000157D01*
G01*
X034854D02*
G03*
X034697Y036793I-000157J0D01*
G01*
Y035474D02*
G03*
X034854Y035631I0J000157D01*
G01*
X032146D02*
G03*
X032303Y035474I000157J0D01*
G01*
Y036793D02*
G03*
X032146Y036635I0J-000157D01*
G01*
X032854D02*
G03*
X032697Y036793I-000157J0D01*
G01*
Y035474D02*
G03*
X032854Y035631I0J000157D01*
G01*
X033146D02*
G03*
X033303Y035474I000157J0D01*
G01*
Y036793D02*
G03*
X033146Y036635I0J-000157D01*
G01*
X033854D02*
G03*
X033697Y036793I-000157J0D01*
G01*
Y035474D02*
G03*
X033854Y035631I0J000157D01*
G01*
X020244Y043797D02*
G03*
X020087Y043954I-000157J0D01*
G01*
X019083D02*
G03*
X018926Y043797I0J-000157D01*
G01*
Y043403D02*
G03*
X019083Y043246I000157J0D01*
G01*
X020087D02*
G03*
X020244Y043403I0J000157D01*
G01*
X022159Y037347D02*
G03*
X022002Y037504I-000157J0D01*
G01*
X020998D02*
G03*
X020841Y037347I0J-000157D01*
G01*
Y036953D02*
G03*
X020998Y036796I000157J0D01*
G01*
X022002D02*
G03*
X022159Y036953I0J000157D01*
G01*
Y038397D02*
G03*
X022002Y038554I-000157J0D01*
G01*
X020998D02*
G03*
X020841Y038397I0J-000157D01*
G01*
Y038003D02*
G03*
X020998Y037846I000157J0D01*
G01*
X022002D02*
G03*
X022159Y038003I0J000157D01*
G01*
X024703Y044974D02*
G03*
X024546Y044817I0J-000157D01*
G01*
Y043813D02*
G03*
X024703Y043656I000157J0D01*
G01*
X025097D02*
G03*
X025254Y043813I0J000157D01*
G01*
Y044817D02*
G03*
X025097Y044974I-000157J0D01*
G01*
X029603Y045074D02*
G03*
X029446Y044917I0J-000157D01*
G01*
Y043913D02*
G03*
X029603Y043756I000157J0D01*
G01*
X029997D02*
G03*
X030154Y043913I0J000157D01*
G01*
Y044917D02*
G03*
X029997Y045074I-000157J0D01*
G01*
X023803Y044974D02*
G03*
X023646Y044817I0J-000157D01*
G01*
Y043813D02*
G03*
X023803Y043656I000157J0D01*
G01*
X024197D02*
G03*
X024354Y043813I0J000157D01*
G01*
Y044817D02*
G03*
X024197Y044974I-000157J0D01*
G01*
X026303Y045009D02*
G03*
X026146Y044852I0J-000157D01*
G01*
Y043848D02*
G03*
X026303Y043691I000157J0D01*
G01*
X026697D02*
G03*
X026854Y043848I0J000157D01*
G01*
Y044852D02*
G03*
X026697Y045009I-000157J0D01*
G01*
X022209Y042597D02*
G03*
X022052Y042754I-000157J0D01*
G01*
X021048D02*
G03*
X020891Y042597I0J-000157D01*
G01*
Y042203D02*
G03*
X021048Y042046I000157J0D01*
G01*
X022052D02*
G03*
X022209Y042203I0J000157D01*
G01*
X030426Y035933D02*
G03*
X030426Y035933I-000039J0D01*
G01*
X041107Y028753D02*
Y029147D01*
X042426Y028753D02*
Y029147D01*
X041265Y029304D02*
X042269D01*
X041265Y028596D02*
X042269D01*
X041107Y027803D02*
Y028197D01*
X042426Y027803D02*
Y028197D01*
X041265Y028354D02*
X042269D01*
X041265Y027646D02*
X042269D01*
X041106Y025803D02*
Y026197D01*
X042424Y025803D02*
Y026197D01*
X041263Y026354D02*
X042267D01*
X041263Y025646D02*
X042267D01*
X041141Y026753D02*
Y027147D01*
X042459Y026753D02*
Y027147D01*
X041298Y027304D02*
X042302D01*
X041298Y026596D02*
X042302D01*
X036926Y031753D02*
Y032147D01*
X038244Y031753D02*
Y032147D01*
X037083Y032304D02*
X038087D01*
X037083Y031596D02*
X038087D01*
X036907Y030803D02*
Y031197D01*
X038226Y030803D02*
Y031197D01*
X037065Y031354D02*
X038068D01*
X037065Y030646D02*
X038068D01*
X036907Y029803D02*
Y030197D01*
X038226Y029803D02*
Y030197D01*
X037065Y030354D02*
X038068D01*
X037065Y029646D02*
X038068D01*
X011548Y037946D02*
X012552D01*
X011548Y038654D02*
X012552D01*
X012709Y038103D02*
Y038497D01*
X011391Y038103D02*
Y038497D01*
X013298Y040696D02*
X014302D01*
X013298Y041404D02*
X014302D01*
X014459Y040853D02*
Y041247D01*
X013141Y040853D02*
Y041247D01*
X013313Y039846D02*
X014317D01*
X013313Y040554D02*
X014317D01*
X014474Y040003D02*
Y040397D01*
X013156Y040003D02*
Y040397D01*
X019876Y041859D02*
Y042174D01*
X019482Y041859D02*
X019876D01*
Y042726D02*
Y043041D01*
X019482D02*
X019876D01*
X019048Y039346D02*
X020052D01*
X019048Y040054D02*
X020052D01*
X020209Y039503D02*
Y039897D01*
X018891Y039503D02*
Y039897D01*
X019876Y040359D02*
Y040674D01*
X019482Y040359D02*
X019876D01*
Y041226D02*
Y041541D01*
X019482D02*
X019876D01*
X040747Y038549D02*
X041751D01*
X040747Y037841D02*
X041751D01*
X04059Y037998D02*
Y038392D01*
X041908Y037998D02*
Y038392D01*
X040748Y038796D02*
X041752D01*
X040748Y039504D02*
X041752D01*
X041909Y038953D02*
Y039347D01*
X040591Y038953D02*
Y039347D01*
X038054Y040448D02*
Y041452D01*
X037346Y040448D02*
Y041452D01*
X037503Y041609D02*
X037897D01*
X037503Y040291D02*
X037897D01*
X035413Y040596D02*
X036417D01*
X035413Y041304D02*
X036417D01*
X036574Y040753D02*
Y041147D01*
X035256Y040753D02*
Y041147D01*
X037309Y037403D02*
Y037797D01*
X035991Y037403D02*
Y037797D01*
X036148Y037246D02*
X037152D01*
X036148Y037954D02*
X037152D01*
X031696Y033348D02*
Y034352D01*
X032404Y033348D02*
Y034352D01*
X031853Y033191D02*
X032247D01*
X031853Y034509D02*
X032247D01*
X016504Y035413D02*
Y036417D01*
X015796Y035413D02*
Y036417D01*
X015953Y036574D02*
X016347D01*
X015953Y035256D02*
X016347D01*
X015053D02*
X015447D01*
X015053Y036574D02*
X015447D01*
X014896Y035413D02*
Y036417D01*
X015604Y035413D02*
Y036417D01*
X016504Y032548D02*
Y033552D01*
X015796Y032548D02*
Y033552D01*
X015953Y033709D02*
X016347D01*
X015953Y032391D02*
X016347D01*
X015003D02*
X015397D01*
X015003Y033709D02*
X015397D01*
X014846Y032548D02*
Y033552D01*
X015554Y032548D02*
Y033552D01*
X014706Y031003D02*
Y031397D01*
X016024Y031003D02*
Y031397D01*
X014863Y031554D02*
X015867D01*
X014863Y030846D02*
X015867D01*
X017603Y030259D02*
X017997D01*
X017603Y028941D02*
X017997D01*
X018154Y029098D02*
Y030102D01*
X017446Y029098D02*
Y030102D01*
X014963Y027904D02*
X015967D01*
X014963Y027196D02*
X015967D01*
X014806Y027353D02*
Y027747D01*
X016124Y027353D02*
Y027747D01*
X014948Y026296D02*
X015952D01*
X014948Y027004D02*
X015952D01*
X016109Y026453D02*
Y026847D01*
X014791Y026453D02*
Y026847D01*
X039694Y025853D02*
Y026247D01*
X038376Y025853D02*
Y026247D01*
X038533Y025696D02*
X039537D01*
X038533Y026404D02*
X039537D01*
X023503Y034509D02*
X023897D01*
X023503Y033191D02*
X023897D01*
X024054Y033348D02*
Y034352D01*
X023346Y033348D02*
Y034352D01*
X037313Y034654D02*
X038317D01*
X037313Y033946D02*
X038317D01*
X037156Y034103D02*
Y034497D01*
X038474Y034103D02*
Y034497D01*
X024246Y033348D02*
Y034352D01*
X024954Y033348D02*
Y034352D01*
X024403Y033191D02*
X024797D01*
X024403Y034509D02*
X024797D01*
X032546Y033348D02*
Y034352D01*
X033254Y033348D02*
Y034352D01*
X032703Y033191D02*
X033097D01*
X032703Y034509D02*
X033097D01*
X020891Y041253D02*
Y041647D01*
X022209Y041253D02*
Y041647D01*
X021048Y041804D02*
X022052D01*
X021048Y041096D02*
X022052D01*
X020891Y043153D02*
Y043547D01*
X022209Y043153D02*
Y043547D01*
X021048Y043704D02*
X022052D01*
X021048Y042996D02*
X022052D01*
X020906Y040253D02*
Y040647D01*
X022224Y040253D02*
Y040647D01*
X021063Y040804D02*
X022067D01*
X021063Y040096D02*
X022067D01*
X031146Y035631D02*
Y036635D01*
X031854Y035631D02*
Y036635D01*
X031303Y035474D02*
X031697D01*
X031303Y036793D02*
X031697D01*
X034146Y035631D02*
Y036635D01*
X034854Y035631D02*
Y036635D01*
X034303Y035474D02*
X034697D01*
X034303Y036793D02*
X034697D01*
X032146Y035631D02*
Y036635D01*
X032854Y035631D02*
Y036635D01*
X032303Y035474D02*
X032697D01*
X032303Y036793D02*
X032697D01*
X033146Y035631D02*
Y036635D01*
X033854Y035631D02*
Y036635D01*
X033303Y035474D02*
X033697D01*
X033303Y036793D02*
X033697D01*
X018926Y043403D02*
Y043797D01*
X020244Y043403D02*
Y043797D01*
X019083Y043954D02*
X020087D01*
X019083Y043246D02*
X020087D01*
X020841Y036953D02*
Y037347D01*
X022159Y036953D02*
Y037347D01*
X020998Y037504D02*
X022002D01*
X020998Y036796D02*
X022002D01*
X020841Y038003D02*
Y038397D01*
X022159Y038003D02*
Y038397D01*
X020998Y038554D02*
X022002D01*
X020998Y037846D02*
X022002D01*
X024703Y043656D02*
X025097D01*
X024703Y044974D02*
X025097D01*
X024546Y043813D02*
Y044817D01*
X025254Y043813D02*
Y044817D01*
X029603Y043756D02*
X029997D01*
X029603Y045074D02*
X029997D01*
X029446Y043913D02*
Y044917D01*
X030154Y043913D02*
Y044917D01*
X023803Y043656D02*
X024197D01*
X023803Y044974D02*
X024197D01*
X023646Y043813D02*
Y044817D01*
X024354Y043813D02*
Y044817D01*
X026303Y043691D02*
X026697D01*
X026303Y045009D02*
X026697D01*
X026146Y043848D02*
Y044852D01*
X026854Y043848D02*
Y044852D01*
X020891Y042203D02*
Y042597D01*
X022209Y042203D02*
Y042597D01*
X021048Y042754D02*
X022052D01*
X021048Y042046D02*
X022052D01*
D11*
X0128Y0358D02*
G03*
X0128Y0358I-0001J0D01*
G01*
X0134D02*
G03*
X0134Y0358I-0007J0D01*
G01*
X019618Y028206D02*
G03*
X019736Y028324I0J000118D01*
G01*
Y028876D02*
G03*
X019618Y028994I-000118J0D01*
G01*
X019382D02*
G03*
X019264Y028876I0J-000118D01*
G01*
Y028324D02*
G03*
X019382Y028206I000118J0D01*
G01*
X021632Y028994D02*
G03*
X021514Y028876I0J-000118D01*
G01*
Y028324D02*
G03*
X021632Y028206I000118J0D01*
G01*
X021868D02*
G03*
X021986Y028324I0J000118D01*
G01*
Y028876D02*
G03*
X021868Y028994I-000118J0D01*
G01*
X027864Y028524D02*
G03*
X027982Y028406I000118J0D01*
G01*
Y029194D02*
G03*
X027864Y029076I0J-000118D01*
G01*
X028336D02*
G03*
X028218Y029194I-000118J0D01*
G01*
Y028406D02*
G03*
X028336Y028524I0J000118D01*
G01*
X030736Y029076D02*
G03*
X030618Y029194I-000118J0D01*
G01*
Y028406D02*
G03*
X030736Y028524I0J000118D01*
G01*
X030264D02*
G03*
X030382Y028406I000118J0D01*
G01*
Y029194D02*
G03*
X030264Y029076I0J-000118D01*
G01*
X01345Y033D02*
G03*
X01345Y033I-0007J0D01*
G01*
X01285D02*
G03*
X01285Y033I-0001J0D01*
G01*
X0139Y0354D02*
Y0355D01*
Y0361D02*
Y0362D01*
X0115Y0354D02*
Y0355D01*
Y0361D02*
Y0362D01*
X01185Y037D02*
X01225D01*
X0132D01*
Y0346D02*
X01355D01*
X0122D02*
X0132D01*
X01185D02*
X0122D01*
X0132Y037D02*
X01355D01*
X01907Y03457D02*
X02043D01*
X02067D01*
X02203D01*
X01907Y03003D02*
X02203D01*
X019264Y028324D02*
Y028876D01*
X019382Y028994D02*
X019618D01*
X019736Y028324D02*
Y028876D01*
X019382Y028206D02*
X019618D01*
X021986Y028324D02*
Y028876D01*
X021632Y028206D02*
X021868D01*
X021514Y028324D02*
Y028876D01*
X021632Y028994D02*
X021868D01*
X027982Y028406D02*
X028218D01*
X028336Y028524D02*
Y029076D01*
X027982Y029194D02*
X028218D01*
X027864Y028524D02*
Y029076D01*
X030382Y029194D02*
X030618D01*
X030264Y028524D02*
Y029076D01*
X030382Y028406D02*
X030618D01*
X030736Y028524D02*
Y029076D01*
X02772Y02998D02*
X03068D01*
X02932Y03452D02*
X03068D01*
X02908D02*
X02932D01*
X02772D02*
X02908D01*
X01325Y0342D02*
X0136D01*
X0119Y0318D02*
X01225D01*
X01325D01*
X0136D01*
X0123Y0342D02*
X01325D01*
X0119D02*
X0123D01*
X01155Y0333D02*
Y0334D01*
Y0326D02*
Y0327D01*
X01395Y0333D02*
Y0334D01*
Y0326D02*
Y0327D01*
D12*
X036979Y0367D02*
G03*
X036979Y0367I-000079J0D01*
G01*
X02043Y03457D02*
G03*
X02067Y03457I00012J0D01*
G01*
X016429Y0288D02*
G03*
X016429Y0288I-000079J0D01*
G01*
X02908Y03452D02*
G03*
X02932Y03452I00012J0D01*
G01*
D13*
X042523Y02125D02*
G03*
X042523Y02125I-00315J0D01*
G01*
X02215Y01315D02*
G03*
X02215Y01315I-00315J0D01*
G01*
Y02125D02*
G03*
X02215Y02125I-00315J0D01*
G01*
X042523Y01315D02*
G03*
X042523Y01315I-00315J0D01*
G01*
X042519Y0317D02*
G03*
X042519Y0317I-001969J0D01*
G01*
X037793Y026771D02*
X039173D01*
X037793D02*
Y029332D01*
X039173D01*
Y026771D02*
Y029332D01*
X011733Y041957D02*
X012422D01*
X011733Y039043D02*
X012422D01*
Y041866D02*
Y041957D01*
Y039043D02*
Y039134D01*
X010729Y041957D02*
X010867D01*
X010729Y039043D02*
X010867D01*
X042632Y034493D02*
Y037407D01*
X040368D02*
X042632D01*
X040368Y034493D02*
Y037407D01*
Y034493D02*
X042632D01*
X020619Y028108D02*
X020682D01*
X020619Y029092D02*
X020682D01*
X029267Y029278D02*
X02933D01*
X029267Y028293D02*
X02933D01*
X0231Y014D02*
X02887D01*
X03013D02*
X0359D01*
Y0205D01*
X03013D02*
X0359D01*
X0231D02*
X02887D01*
X0231Y014D02*
Y0205D01*
X027637Y023571D02*
X031637D01*
X027637Y021919D02*
Y023571D01*
Y021919D02*
X031637D01*
Y023571D01*
X0273Y010929D02*
Y012581D01*
X0313D01*
Y010929D02*
Y012581D01*
X0273Y010929D02*
X0313D01*
X03763Y025893D02*
X03774D01*
X03763Y026207D02*
X03774D01*
X038235Y02595D02*
Y02615D01*
X010868Y030507D02*
X013132D01*
Y027593D02*
Y030507D01*
X010868Y027593D02*
X013132D01*
X010868D02*
Y030507D01*
X035888Y043612D02*
X037424D01*
X035888Y041624D02*
X037424D01*
X039675Y041385D02*
X041939D01*
X039675D02*
Y044299D01*
X041939D01*
Y041385D02*
Y044299D01*
X013239Y020709D02*
Y024606D01*
X015503D01*
Y020709D02*
Y024606D01*
X013239Y020709D02*
X015503D01*
X010725D02*
Y024606D01*
X012989D01*
Y020709D02*
Y024606D01*
X010725Y020709D02*
X012989D01*
X027143Y0443D02*
Y04441D01*
X027457Y0443D02*
Y04441D01*
X0272Y043805D02*
X0274D01*
X029993Y042764D02*
Y04302D01*
X029029D02*
X029993D01*
X022907D02*
X023871D01*
X022907Y042764D02*
Y04302D01*
X0229Y03545D02*
X029987D01*
X012883Y038243D02*
Y038557D01*
X01304D01*
X013093Y038505D01*
Y0384D01*
X01304Y038348D01*
X012883D01*
X012988D02*
X013093Y038243D01*
X013198Y038505D02*
X01325Y038557D01*
X013355D01*
X013407Y038505D01*
Y038452D01*
X013355Y0384D01*
X013302D01*
X013355D01*
X013407Y038348D01*
Y038295D01*
X013355Y038243D01*
X01325D01*
X013198Y038295D01*
X013512Y038243D02*
X013617D01*
X013565D01*
Y038557D01*
X013512Y038505D01*
X037595Y0399D02*
X037543Y039848D01*
Y039743D01*
X037595Y03969D01*
X037805D01*
X037857Y039743D01*
Y039848D01*
X037805Y0399D01*
X037857Y040005D02*
Y04011D01*
Y040057D01*
X037543D01*
X037595Y040005D01*
X03611Y016922D02*
X036057Y016975D01*
X035952D01*
X0359Y016922D01*
Y016712D01*
X035952Y01666D01*
X036057D01*
X03611Y016712D01*
X036372Y01666D02*
Y016975D01*
X036215Y016817D01*
X036425D01*
X03653Y01666D02*
X036635D01*
X036582D01*
Y016975D01*
X03653Y016922D01*
X035369Y02284D02*
X035316Y022788D01*
Y022683D01*
X035369Y02263D01*
X035579D01*
X035631Y022683D01*
Y022788D01*
X035579Y02284D01*
X035631Y023102D02*
X035316D01*
X035474Y022945D01*
Y023155D01*
X035369Y02326D02*
X035316Y023312D01*
Y023417D01*
X035369Y02347D01*
X035579D01*
X035631Y023417D01*
Y023312D01*
X035579Y02326D01*
X035369D01*
X01574Y016922D02*
X015687Y016975D01*
X015582D01*
X01553Y016922D01*
Y016712D01*
X015582Y01666D01*
X015687D01*
X01574Y016712D01*
X015845Y016922D02*
X015897Y016975D01*
X016002D01*
X016055Y016922D01*
Y01687D01*
X016002Y016817D01*
X01595D01*
X016002D01*
X016055Y016765D01*
Y016712D01*
X016002Y01666D01*
X015897D01*
X015845Y016712D01*
X01616D02*
X016212Y01666D01*
X016317D01*
X01637Y016712D01*
Y016922D01*
X016317Y016975D01*
X016212D01*
X01616Y016922D01*
Y01687D01*
X016212Y016817D01*
X01637D01*
X01574Y025022D02*
X015687Y025075D01*
X015582D01*
X01553Y025022D01*
Y024812D01*
X015582Y02476D01*
X015687D01*
X01574Y024812D01*
X015845Y025022D02*
X015897Y025075D01*
X016002D01*
X016055Y025022D01*
Y02497D01*
X016002Y024917D01*
X01595D01*
X016002D01*
X016055Y024865D01*
Y024812D01*
X016002Y02476D01*
X015897D01*
X015845Y024812D01*
X01616Y025022D02*
X016212Y025075D01*
X016317D01*
X01637Y025022D01*
Y02497D01*
X016317Y024917D01*
X01637Y024865D01*
Y024812D01*
X016317Y02476D01*
X016212D01*
X01616Y024812D01*
Y024865D01*
X016212Y024917D01*
X01616Y02497D01*
Y025022D01*
X016212Y024917D02*
X016317D01*
X04262Y012242D02*
X04283Y012032D01*
X04262D02*
X04283Y012242D01*
X04262Y012137D02*
X04283D01*
X042725Y012032D02*
Y012242D01*
X043092Y01198D02*
Y012295D01*
X042935Y012137D01*
X043145D01*
X04262Y046792D02*
X04283Y046582D01*
X04262D02*
X04283Y046792D01*
X04262Y046687D02*
X04283D01*
X042725Y046582D02*
Y046792D01*
X042935D02*
X042987Y046845D01*
X043092D01*
X043145Y046792D01*
Y04674D01*
X043092Y046687D01*
X04304D01*
X043092D01*
X043145Y046635D01*
Y046582D01*
X043092Y04653D01*
X042987D01*
X042935Y046582D01*
X01032Y012442D02*
X01053Y012232D01*
X01032D02*
X01053Y012442D01*
X01032Y012337D02*
X01053D01*
X010425Y012232D02*
Y012442D01*
X010635Y01218D02*
X01074D01*
X010687D01*
Y012495D01*
X010635Y012442D01*
X029088Y027957D02*
Y027905D01*
X029193Y0278D01*
X029298Y027905D01*
Y027957D01*
X029193Y0278D02*
Y027643D01*
X029612D02*
X029402D01*
X029612Y027852D01*
Y027905D01*
X02956Y027957D01*
X029455D01*
X029402Y027905D01*
X02049Y027857D02*
Y027805D01*
X020595Y0277D01*
X0207Y027805D01*
Y027857D01*
X020595Y0277D02*
Y027543D01*
X020805D02*
X02091D01*
X020857D01*
Y027857D01*
X020805Y027805D01*
X035388Y037207D02*
Y036945D01*
X03544Y036893D01*
X035545D01*
X035598Y036945D01*
Y037207D01*
X035702D02*
X035912D01*
Y037155D01*
X035702Y036945D01*
Y036893D01*
X013838Y030507D02*
Y030245D01*
X01389Y030193D01*
X013995D01*
X014048Y030245D01*
Y030507D01*
X014362D02*
X014257Y030455D01*
X014152Y03035D01*
Y030245D01*
X014205Y030193D01*
X01431D01*
X014362Y030245D01*
Y030298D01*
X01431Y03035D01*
X014152D01*
X03502Y044255D02*
Y043992D01*
X035072Y04394D01*
X035177D01*
X03523Y043992D01*
Y044255D01*
X035545D02*
X035335D01*
Y044097D01*
X03544Y04415D01*
X035492D01*
X035545Y044097D01*
Y043992D01*
X035492Y04394D01*
X035387D01*
X035335Y043992D01*
X02265Y043885D02*
Y043622D01*
X022702Y04357D01*
X022807D01*
X02286Y043622D01*
Y043885D01*
X023122Y04357D02*
Y043885D01*
X022965Y043727D01*
X023175D01*
X01552Y043515D02*
Y043252D01*
X015572Y0432D01*
X015677D01*
X01573Y043252D01*
Y043515D01*
X015835Y043462D02*
X015887Y043515D01*
X015992D01*
X016045Y043462D01*
Y04341D01*
X015992Y043357D01*
X01594D01*
X015992D01*
X016045Y043305D01*
Y043252D01*
X015992Y0432D01*
X015887D01*
X015835Y043252D01*
X036288Y029207D02*
Y028945D01*
X03634Y028893D01*
X036445D01*
X036498Y028945D01*
Y029207D01*
X036812Y028893D02*
X036602D01*
X036812Y029102D01*
Y029155D01*
X03676Y029207D01*
X036655D01*
X036602Y029155D01*
X01109Y034742D02*
X011037Y034795D01*
X010932D01*
X01088Y034742D01*
Y03469D01*
X010932Y034637D01*
X011037D01*
X01109Y034585D01*
Y034532D01*
X011037Y03448D01*
X010932D01*
X01088Y034532D01*
X011195Y034795D02*
Y03448D01*
X0113Y034585D01*
X011405Y03448D01*
Y034795D01*
X01172Y03448D02*
X01151D01*
X01172Y03469D01*
Y034742D01*
X011667Y034795D01*
X011562D01*
X01151Y034742D01*
X010893Y037555D02*
X01084Y037607D01*
X010735D01*
X010683Y037555D01*
Y037502D01*
X010735Y03745D01*
X01084D01*
X010893Y037398D01*
Y037345D01*
X01084Y037293D01*
X010735D01*
X010683Y037345D01*
X010998Y037607D02*
Y037293D01*
X011102Y037398D01*
X011207Y037293D01*
Y037607D01*
X011312Y037293D02*
X011417D01*
X011365D01*
Y037607D01*
X011312Y037555D01*
X03948Y039143D02*
Y039457D01*
X039638D01*
X03969Y039405D01*
Y0393D01*
X039638Y039248D01*
X03948D01*
X039585D02*
X03969Y039143D01*
X039795Y039405D02*
X039848Y039457D01*
X039952D01*
X040005Y039405D01*
Y039352D01*
X039952Y0393D01*
X0399D01*
X039952D01*
X040005Y039248D01*
Y039195D01*
X039952Y039143D01*
X039848D01*
X039795Y039195D01*
X04011Y039405D02*
X040162Y039457D01*
X040267D01*
X04032Y039405D01*
Y039195D01*
X040267Y039143D01*
X040162D01*
X04011Y039195D01*
Y039405D01*
X03953Y038093D02*
Y038407D01*
X039688D01*
X03974Y038355D01*
Y03825D01*
X039688Y038198D01*
X03953D01*
X039635D02*
X03974Y038093D01*
X040055D02*
X039845D01*
X040055Y038302D01*
Y038355D01*
X040002Y038407D01*
X039898D01*
X039845Y038355D01*
X04016Y038145D02*
X040212Y038093D01*
X040317D01*
X04037Y038145D01*
Y038355D01*
X040317Y038407D01*
X040212D01*
X04016Y038355D01*
Y038302D01*
X040212Y03825D01*
X04037D01*
X01628Y026393D02*
Y026707D01*
X016438D01*
X01649Y026655D01*
Y02655D01*
X016438Y026498D01*
X01628D01*
X016385D02*
X01649Y026393D01*
X016805D02*
X016595D01*
X016805Y026602D01*
Y026655D01*
X016752Y026707D01*
X016648D01*
X016595Y026655D01*
X01691D02*
X016962Y026707D01*
X017067D01*
X01712Y026655D01*
Y026602D01*
X017067Y02655D01*
X01712Y026498D01*
Y026445D01*
X017067Y026393D01*
X016962D01*
X01691Y026445D01*
Y026498D01*
X016962Y02655D01*
X01691Y026602D01*
Y026655D01*
X016962Y02655D02*
X017067D01*
X01638Y027293D02*
Y027607D01*
X016538D01*
X01659Y027555D01*
Y02745D01*
X016538Y027398D01*
X01638D01*
X016485D02*
X01659Y027293D01*
X016905D02*
X016695D01*
X016905Y027502D01*
Y027555D01*
X016852Y027607D01*
X016748D01*
X016695Y027555D01*
X01701Y027607D02*
X01722D01*
Y027555D01*
X01701Y027345D01*
Y027293D01*
X03158Y034843D02*
Y035157D01*
X031738D01*
X03179Y035105D01*
Y035D01*
X031738Y034948D01*
X03158D01*
X031685D02*
X03179Y034843D01*
X032105D02*
X031895D01*
X032105Y035052D01*
Y035105D01*
X032052Y035157D01*
X031948D01*
X031895Y035105D01*
X03242Y035157D02*
X032315Y035105D01*
X03221Y035D01*
Y034895D01*
X032262Y034843D01*
X032367D01*
X03242Y034895D01*
Y034948D01*
X032367Y035D01*
X03221D01*
X02333Y03484D02*
Y035155D01*
X023487D01*
X02354Y035102D01*
Y034997D01*
X023487Y034945D01*
X02333D01*
X023435D02*
X02354Y03484D01*
X023855D02*
X023645D01*
X023855Y03505D01*
Y035102D01*
X023802Y035155D01*
X023697D01*
X023645Y035102D01*
X02417Y035155D02*
X02396D01*
Y034997D01*
X024065Y03505D01*
X024117D01*
X02417Y034997D01*
Y034892D01*
X024117Y03484D01*
X024012D01*
X02396Y034892D01*
X03553Y040093D02*
Y040407D01*
X035688D01*
X03574Y040355D01*
Y04025D01*
X035688Y040198D01*
X03553D01*
X035635D02*
X03574Y040093D01*
X036055D02*
X035845D01*
X036055Y040302D01*
Y040355D01*
X036002Y040407D01*
X035898D01*
X035845Y040355D01*
X036317Y040093D02*
Y040407D01*
X03616Y04025D01*
X03637D01*
X016257Y03403D02*
X015943D01*
Y034188D01*
X015995Y03424D01*
X0161D01*
X016152Y034188D01*
Y03403D01*
Y034135D02*
X016257Y03424D01*
Y034555D02*
Y034345D01*
X016048Y034555D01*
X015995D01*
X015943Y034502D01*
Y034398D01*
X015995Y034345D01*
Y03466D02*
X015943Y034712D01*
Y034817D01*
X015995Y03487D01*
X016048D01*
X0161Y034817D01*
Y034765D01*
Y034817D01*
X016152Y03487D01*
X016205D01*
X016257Y034817D01*
Y034712D01*
X016205Y03466D01*
X02086Y04307D02*
Y043385D01*
X021017D01*
X02107Y043332D01*
Y043227D01*
X021017Y043175D01*
X02086D01*
X020965D02*
X02107Y04307D01*
X021385D02*
X021175D01*
X021385Y04328D01*
Y043332D01*
X021332Y043385D01*
X021227D01*
X021175Y043332D01*
X0217Y04307D02*
X02149D01*
X0217Y04328D01*
Y043332D01*
X021647Y043385D01*
X021542D01*
X02149Y043332D01*
X02613Y04534D02*
Y045655D01*
X026287D01*
X02634Y045602D01*
Y045497D01*
X026287Y045445D01*
X02613D01*
X026235D02*
X02634Y04534D01*
X026655D02*
X026445D01*
X026655Y04555D01*
Y045602D01*
X026602Y045655D01*
X026497D01*
X026445Y045602D01*
X02676Y04534D02*
X026865D01*
X026812D01*
Y045655D01*
X02676Y045602D01*
X01908Y038493D02*
Y038807D01*
X019238D01*
X01929Y038755D01*
Y03865D01*
X019238Y038598D01*
X01908D01*
X019185D02*
X01929Y038493D01*
X019605D02*
X019395D01*
X019605Y038702D01*
Y038755D01*
X019552Y038807D01*
X019448D01*
X019395Y038755D01*
X01971D02*
X019762Y038807D01*
X019867D01*
X01992Y038755D01*
Y038545D01*
X019867Y038493D01*
X019762D01*
X01971Y038545D01*
Y038755D01*
X014656Y040843D02*
Y041157D01*
X014814D01*
X014866Y041105D01*
Y041D01*
X014814Y040948D01*
X014656D01*
X014761D02*
X014866Y040843D01*
X014971D02*
X015076D01*
X015024D01*
Y041157D01*
X014971Y041105D01*
X015234Y040895D02*
X015286Y040843D01*
X015391D01*
X015444Y040895D01*
Y041105D01*
X015391Y041157D01*
X015286D01*
X015234Y041105D01*
Y041052D01*
X015286Y041D01*
X015444D01*
X014656Y040143D02*
Y040457D01*
X014814D01*
X014866Y040405D01*
Y0403D01*
X014814Y040248D01*
X014656D01*
X014761D02*
X014866Y040143D01*
X014971D02*
X015076D01*
X015024D01*
Y040457D01*
X014971Y040405D01*
X015234D02*
X015286Y040457D01*
X015391D01*
X015444Y040405D01*
Y040352D01*
X015391Y0403D01*
X015444Y040248D01*
Y040195D01*
X015391Y040143D01*
X015286D01*
X015234Y040195D01*
Y040248D01*
X015286Y0403D01*
X015234Y040352D01*
Y040405D01*
X015286Y0403D02*
X015391D01*
X02081Y03887D02*
Y039185D01*
X020967D01*
X02102Y039132D01*
Y039027D01*
X020967Y038975D01*
X02081D01*
X020915D02*
X02102Y03887D01*
X021125D02*
X02123D01*
X021177D01*
Y039185D01*
X021125Y039132D01*
X021387Y039185D02*
X021597D01*
Y039132D01*
X021387Y038922D01*
Y03887D01*
X02453Y0453D02*
Y045615D01*
X024687D01*
X02474Y045562D01*
Y045457D01*
X024687Y045405D01*
X02453D01*
X024635D02*
X02474Y0453D01*
X024845D02*
X02495D01*
X024897D01*
Y045615D01*
X024845Y045562D01*
X025317Y045615D02*
X025212Y045562D01*
X025107Y045457D01*
Y045352D01*
X02516Y0453D01*
X025265D01*
X025317Y045352D01*
Y045405D01*
X025265Y045457D01*
X025107D01*
X02943Y0454D02*
Y045715D01*
X029587D01*
X02964Y045662D01*
Y045557D01*
X029587Y045505D01*
X02943D01*
X029535D02*
X02964Y0454D01*
X029745D02*
X02985D01*
X029797D01*
Y045715D01*
X029745Y045662D01*
X030217Y045715D02*
X030007D01*
Y045557D01*
X030112Y04561D01*
X030165D01*
X030217Y045557D01*
Y045452D01*
X030165Y0454D01*
X03006D01*
X030007Y045452D01*
X02363Y0453D02*
Y045615D01*
X023787D01*
X02384Y045562D01*
Y045457D01*
X023787Y045405D01*
X02363D01*
X023735D02*
X02384Y0453D01*
X023945D02*
X02405D01*
X023997D01*
Y045615D01*
X023945Y045562D01*
X024365Y0453D02*
Y045615D01*
X024207Y045457D01*
X024417D01*
X02081Y03782D02*
Y038135D01*
X020967D01*
X02102Y038082D01*
Y037977D01*
X020967Y037925D01*
X02081D01*
X020915D02*
X02102Y03782D01*
X021125D02*
X02123D01*
X021177D01*
Y038135D01*
X021125Y038082D01*
X021387D02*
X02144Y038135D01*
X021545D01*
X021597Y038082D01*
Y03803D01*
X021545Y037977D01*
X021492D01*
X021545D01*
X021597Y037925D01*
Y037872D01*
X021545Y03782D01*
X02144D01*
X021387Y037872D01*
X0189Y04427D02*
Y044585D01*
X019057D01*
X01911Y044532D01*
Y044427D01*
X019057Y044375D01*
X0189D01*
X019005D02*
X01911Y04427D01*
X019215D02*
X01932D01*
X019267D01*
Y044585D01*
X019215Y044532D01*
X019687Y04427D02*
X019477D01*
X019687Y04448D01*
Y044532D01*
X019635Y044585D01*
X01953D01*
X019477Y044532D01*
X02086Y04402D02*
Y044335D01*
X021017D01*
X02107Y044282D01*
Y044177D01*
X021017Y044125D01*
X02086D01*
X020965D02*
X02107Y04402D01*
X021175D02*
X02128D01*
X021227D01*
Y044335D01*
X021175Y044282D01*
X021437Y04402D02*
X021542D01*
X02149D01*
Y044335D01*
X021437Y044282D01*
X02088Y04112D02*
Y041435D01*
X021037D01*
X02109Y041382D01*
Y041277D01*
X021037Y041225D01*
X02088D01*
X020985D02*
X02109Y04112D01*
X021195D02*
X0213D01*
X021247D01*
Y041435D01*
X021195Y041382D01*
X021457D02*
X02151Y041435D01*
X021615D01*
X021667Y041382D01*
Y041172D01*
X021615Y04112D01*
X02151D01*
X021457Y041172D01*
Y041382D01*
X02086Y04212D02*
Y042435D01*
X021017D01*
X02107Y042382D01*
Y042277D01*
X021017Y042225D01*
X02086D01*
X020965D02*
X02107Y04212D01*
X021175Y042172D02*
X021227Y04212D01*
X021332D01*
X021385Y042172D01*
Y042382D01*
X021332Y042435D01*
X021227D01*
X021175Y042382D01*
Y04233D01*
X021227Y042277D01*
X021385D01*
X016207Y036938D02*
X015893D01*
Y037095D01*
X015945Y037148D01*
X01605D01*
X016102Y037095D01*
Y036938D01*
Y037043D02*
X016207Y037148D01*
X015945Y037252D02*
X015893Y037305D01*
Y03741D01*
X015945Y037462D01*
X015998D01*
X01605Y03741D01*
X016102Y037462D01*
X016155D01*
X016207Y03741D01*
Y037305D01*
X016155Y037252D01*
X016102D01*
X01605Y037305D01*
X015998Y037252D01*
X015945D01*
X01605Y037305D02*
Y03741D01*
X03835Y02672D02*
Y027035D01*
X038507D01*
X03856Y026982D01*
Y026877D01*
X038507Y026825D01*
X03835D01*
X038455D02*
X03856Y02672D01*
X038665Y027035D02*
X038875D01*
Y026982D01*
X038665Y026772D01*
Y02672D01*
X018505Y042498D02*
X018295D01*
X018243Y042445D01*
Y04234D01*
X018295Y042288D01*
X018505D01*
X018557Y04234D01*
Y042445D01*
X018452Y042393D02*
X018557Y042498D01*
Y042445D02*
X018505Y042498D01*
X018557Y04276D02*
X018243D01*
X0184Y042602D01*
Y042812D01*
X018555Y040948D02*
X018345D01*
X018293Y040895D01*
Y04079D01*
X018345Y040738D01*
X018555D01*
X018607Y04079D01*
Y040895D01*
X018502Y040843D02*
X018607Y040948D01*
Y040895D02*
X018555Y040948D01*
X018345Y041052D02*
X018293Y041105D01*
Y04121D01*
X018345Y041262D01*
X018398D01*
X01845Y04121D01*
Y041157D01*
Y04121D01*
X018502Y041262D01*
X018555D01*
X018607Y04121D01*
Y041105D01*
X018555Y041052D01*
X02745Y012992D02*
Y013202D01*
X027397Y013255D01*
X027292D01*
X02724Y013202D01*
Y012992D01*
X027292Y01294D01*
X027397D01*
X027345Y013045D02*
X02745Y01294D01*
X027397D02*
X02745Y012992D01*
X027765Y01294D02*
X027555D01*
X027765Y01315D01*
Y013202D01*
X027712Y013255D01*
X027607D01*
X027555Y013202D01*
X02753Y023982D02*
Y024192D01*
X027477Y024245D01*
X027372D01*
X02732Y024192D01*
Y023982D01*
X027372Y02393D01*
X027477D01*
X027425Y024035D02*
X02753Y02393D01*
X027477D02*
X02753Y023982D01*
X027635Y02393D02*
X02774D01*
X027687D01*
Y024245D01*
X027635Y024192D01*
X02304Y021285D02*
Y02097D01*
X02325D01*
X023355D02*
X02346D01*
X023407D01*
Y021285D01*
X023355Y021232D01*
X00937Y017805D02*
X009265D01*
X009317D01*
Y017542D01*
X009265Y01749D01*
X009212D01*
X00916Y017542D01*
X009475Y017805D02*
Y01749D01*
X009632D01*
X009685Y017542D01*
Y017752D01*
X009632Y017805D01*
X009475D01*
X01Y017752D02*
X009947Y017805D01*
X009842D01*
X00979Y017752D01*
Y017542D01*
X009842Y01749D01*
X009947D01*
X01Y017542D01*
X010105Y01749D02*
X01021D01*
X010157D01*
Y017805D01*
X010105Y017752D01*
X039598Y037157D02*
X039493D01*
X039545D01*
Y036895D01*
X039493Y036843D01*
X03944D01*
X039388Y036895D01*
X039702Y037105D02*
X039755Y037157D01*
X03986D01*
X039912Y037105D01*
Y037052D01*
X03986Y037D01*
X039912Y036948D01*
Y036895D01*
X03986Y036843D01*
X039755D01*
X039702Y036895D01*
Y036948D01*
X039755Y037D01*
X039702Y037052D01*
Y037105D01*
X039755Y037D02*
X03986D01*
X01102Y031445D02*
X010915D01*
X010967D01*
Y031182D01*
X010915Y03113D01*
X010862D01*
X01081Y031182D01*
X011125Y031445D02*
X011335D01*
Y031392D01*
X011125Y031182D01*
Y03113D01*
X02725Y035115D02*
X027145D01*
X027197D01*
Y034852D01*
X027145Y0348D01*
X027092D01*
X02704Y034852D01*
X027565Y035115D02*
X02746Y035062D01*
X027355Y034957D01*
Y034852D01*
X027407Y0348D01*
X027512D01*
X027565Y034852D01*
Y034905D01*
X027512Y034957D01*
X027355D01*
X01339Y025565D02*
X013285D01*
X013337D01*
Y025302D01*
X013285Y02525D01*
X013232D01*
X01318Y025302D01*
X013705Y025565D02*
X013495D01*
Y025407D01*
X0136Y02546D01*
X013652D01*
X013705Y025407D01*
Y025302D01*
X013652Y02525D01*
X013547D01*
X013495Y025302D01*
X01088Y025565D02*
X010775D01*
X010827D01*
Y025302D01*
X010775Y02525D01*
X010722D01*
X01067Y025302D01*
X011142Y02525D02*
Y025565D01*
X010985Y025407D01*
X011195D01*
X03983Y044975D02*
X039725D01*
X039777D01*
Y044712D01*
X039725Y04466D01*
X039672D01*
X03962Y044712D01*
X039935Y044922D02*
X039987Y044975D01*
X040092D01*
X040145Y044922D01*
Y04487D01*
X040092Y044817D01*
X04004D01*
X040092D01*
X040145Y044765D01*
Y044712D01*
X040092Y04466D01*
X039987D01*
X039935Y044712D01*
X019548Y035207D02*
X019443D01*
X019495D01*
Y034945D01*
X019443Y034893D01*
X01939D01*
X019338Y034945D01*
X019862Y034893D02*
X019652D01*
X019862Y035102D01*
Y035155D01*
X01981Y035207D01*
X019705D01*
X019652Y035155D01*
X0112Y042707D02*
X011095D01*
X011148D01*
Y042445D01*
X011095Y042393D01*
X011043D01*
X01099Y042445D01*
X011305Y042393D02*
X01141D01*
X011357D01*
Y042707D01*
X011305Y042655D01*
X035043Y03139D02*
Y03118D01*
X0352D01*
Y031285D01*
Y03118D01*
X035357D01*
X035043Y031495D02*
X035357D01*
Y031652D01*
X035305Y031705D01*
X035252D01*
X0352Y031652D01*
Y031495D01*
Y031652D01*
X035148Y031705D01*
X035095D01*
X035043Y031652D01*
Y031495D01*
X035095Y03181D02*
X035043Y031862D01*
Y031967D01*
X035095Y03202D01*
X035148D01*
X0352Y031967D01*
Y031915D01*
Y031967D01*
X035252Y03202D01*
X035305D01*
X035357Y031967D01*
Y031862D01*
X035305Y03181D01*
X039793Y02829D02*
Y02808D01*
X03995D01*
Y028185D01*
Y02808D01*
X040107D01*
X039793Y028395D02*
X040107D01*
Y028552D01*
X040055Y028605D01*
X040002D01*
X03995Y028552D01*
Y028395D01*
Y028552D01*
X039898Y028605D01*
X039845D01*
X039793Y028552D01*
Y028395D01*
X040107Y02892D02*
Y02871D01*
X039898Y02892D01*
X039845D01*
X039793Y028867D01*
Y028762D01*
X039845Y02871D01*
X02708Y045465D02*
Y04515D01*
X027237D01*
X02729Y045202D01*
Y045412D01*
X027237Y045465D01*
X02708D01*
X027605Y04515D02*
X027395D01*
X027605Y04536D01*
Y045412D01*
X027552Y045465D01*
X027447D01*
X027395Y045412D01*
X03719Y026885D02*
Y02657D01*
X037347D01*
X0374Y026622D01*
Y026832D01*
X037347Y026885D01*
X03719D01*
X037505Y02657D02*
X03761D01*
X037557D01*
Y026885D01*
X037505Y026832D01*
X017795Y03069D02*
X017743Y030638D01*
Y030533D01*
X017795Y03048D01*
X018005D01*
X018057Y030533D01*
Y030638D01*
X018005Y03069D01*
X017795Y030795D02*
X017743Y030848D01*
Y030952D01*
X017795Y031005D01*
X017848D01*
X0179Y030952D01*
Y0309D01*
Y030952D01*
X017952Y031005D01*
X018005D01*
X018057Y030952D01*
Y030848D01*
X018005Y030795D01*
X017743Y03111D02*
Y03132D01*
X017795D01*
X018005Y03111D01*
X018057D01*
X03734Y035232D02*
X037287Y035285D01*
X037182D01*
X03713Y035232D01*
Y035022D01*
X037182Y03497D01*
X037287D01*
X03734Y035022D01*
X037445Y035232D02*
X037497Y035285D01*
X037602D01*
X037655Y035232D01*
Y03518D01*
X037602Y035127D01*
X03755D01*
X037602D01*
X037655Y035075D01*
Y035022D01*
X037602Y03497D01*
X037497D01*
X037445Y035022D01*
X03797Y035285D02*
X037865Y035232D01*
X03776Y035127D01*
Y035022D01*
X037812Y03497D01*
X037917D01*
X03797Y035022D01*
Y035075D01*
X037917Y035127D01*
X03776D01*
X03629Y038505D02*
X036238Y038557D01*
X036133D01*
X03608Y038505D01*
Y038295D01*
X036133Y038243D01*
X036238D01*
X03629Y038295D01*
X036395Y038505D02*
X036448Y038557D01*
X036552D01*
X036605Y038505D01*
Y038452D01*
X036552Y0384D01*
X0365D01*
X036552D01*
X036605Y038348D01*
Y038295D01*
X036552Y038243D01*
X036448D01*
X036395Y038295D01*
X03692Y038557D02*
X03671D01*
Y0384D01*
X036815Y038452D01*
X036867D01*
X03692Y0384D01*
Y038295D01*
X036867Y038243D01*
X036762D01*
X03671Y038295D01*
X01634Y031405D02*
X016288Y031457D01*
X016183D01*
X01613Y031405D01*
Y031195D01*
X016183Y031143D01*
X016288D01*
X01634Y031195D01*
X016445Y031405D02*
X016498Y031457D01*
X016602D01*
X016655Y031405D01*
Y031352D01*
X016602Y0313D01*
X01655D01*
X016602D01*
X016655Y031248D01*
Y031195D01*
X016602Y031143D01*
X016498D01*
X016445Y031195D01*
X016917Y031143D02*
Y031457D01*
X01676Y0313D01*
X01697D01*
X02444Y035102D02*
X024387Y035155D01*
X024282D01*
X02423Y035102D01*
Y034892D01*
X024282Y03484D01*
X024387D01*
X02444Y034892D01*
X024545Y035102D02*
X024597Y035155D01*
X024702D01*
X024755Y035102D01*
Y03505D01*
X024702Y034997D01*
X02465D01*
X024702D01*
X024755Y034945D01*
Y034892D01*
X024702Y03484D01*
X024597D01*
X024545Y034892D01*
X02507Y03484D02*
X02486D01*
X02507Y03505D01*
Y035102D01*
X025017Y035155D01*
X024912D01*
X02486Y035102D01*
X03274D02*
X032687Y035155D01*
X032582D01*
X03253Y035102D01*
Y034892D01*
X032582Y03484D01*
X032687D01*
X03274Y034892D01*
X032845Y035102D02*
X032897Y035155D01*
X033002D01*
X033055Y035102D01*
Y03505D01*
X033002Y034997D01*
X03295D01*
X033002D01*
X033055Y034945D01*
Y034892D01*
X033002Y03484D01*
X032897D01*
X032845Y034892D01*
X03316Y035102D02*
X033212Y035155D01*
X033317D01*
X03337Y035102D01*
Y034892D01*
X033317Y03484D01*
X033212D01*
X03316Y034892D01*
Y035102D01*
X027395Y02864D02*
X027343Y028588D01*
Y028483D01*
X027395Y02843D01*
X027605D01*
X027657Y028483D01*
Y028588D01*
X027605Y02864D01*
X027657Y028955D02*
Y028745D01*
X027448Y028955D01*
X027395D01*
X027343Y028902D01*
Y028798D01*
X027395Y028745D01*
X027605Y02906D02*
X027657Y029112D01*
Y029217D01*
X027605Y02927D01*
X027395D01*
X027343Y029217D01*
Y029112D01*
X027395Y02906D01*
X027448D01*
X0275Y029112D01*
Y02927D01*
X031045Y02849D02*
X030993Y028438D01*
Y028333D01*
X031045Y02828D01*
X031255D01*
X031307Y028333D01*
Y028438D01*
X031255Y02849D01*
X031307Y028805D02*
Y028595D01*
X031098Y028805D01*
X031045D01*
X030993Y028752D01*
Y028648D01*
X031045Y028595D01*
Y02891D02*
X030993Y028962D01*
Y029067D01*
X031045Y02912D01*
X031098D01*
X03115Y029067D01*
X031202Y02912D01*
X031255D01*
X031307Y029067D01*
Y028962D01*
X031255Y02891D01*
X031202D01*
X03115Y028962D01*
X031098Y02891D01*
X031045D01*
X03115Y028962D02*
Y029067D01*
X019395Y02734D02*
X019343Y027288D01*
Y027183D01*
X019395Y02713D01*
X019605D01*
X019657Y027183D01*
Y027288D01*
X019605Y02734D01*
X019657Y027655D02*
Y027445D01*
X019448Y027655D01*
X019395D01*
X019343Y027602D01*
Y027498D01*
X019395Y027445D01*
X019343Y02776D02*
Y02797D01*
X019395D01*
X019605Y02776D01*
X019657D01*
X021745Y02719D02*
X021693Y027138D01*
Y027033D01*
X021745Y02698D01*
X021955D01*
X022007Y027033D01*
Y027138D01*
X021955Y02719D01*
X022007Y027505D02*
Y027295D01*
X021798Y027505D01*
X021745D01*
X021693Y027452D01*
Y027348D01*
X021745Y027295D01*
X021693Y02782D02*
X021745Y027715D01*
X02185Y02761D01*
X021955D01*
X022007Y027662D01*
Y027767D01*
X021955Y02782D01*
X021902D01*
X02185Y027767D01*
Y02761D01*
X015145Y03424D02*
X015093Y034188D01*
Y034083D01*
X015145Y03403D01*
X015355D01*
X015407Y034083D01*
Y034188D01*
X015355Y03424D01*
X015407Y034555D02*
Y034345D01*
X015198Y034555D01*
X015145D01*
X015093Y034502D01*
Y034398D01*
X015145Y034345D01*
X015093Y03487D02*
Y03466D01*
X01525D01*
X015198Y034765D01*
Y034817D01*
X01525Y03487D01*
X015355D01*
X015407Y034817D01*
Y034712D01*
X015355Y03466D01*
X03134Y037402D02*
X031287Y037455D01*
X031182D01*
X03113Y037402D01*
Y037192D01*
X031182Y03714D01*
X031287D01*
X03134Y037192D01*
X031655Y03714D02*
X031445D01*
X031655Y03735D01*
Y037402D01*
X031602Y037455D01*
X031497D01*
X031445Y037402D01*
X031917Y03714D02*
Y037455D01*
X03176Y037297D01*
X03197D01*
X03434Y037382D02*
X034287Y037435D01*
X034182D01*
X03413Y037382D01*
Y037172D01*
X034182Y03712D01*
X034287D01*
X03434Y037172D01*
X034655Y03712D02*
X034445D01*
X034655Y03733D01*
Y037382D01*
X034602Y037435D01*
X034497D01*
X034445Y037382D01*
X03476D02*
X034812Y037435D01*
X034917D01*
X03497Y037382D01*
Y03733D01*
X034917Y037277D01*
X034865D01*
X034917D01*
X03497Y037225D01*
Y037172D01*
X034917Y03712D01*
X034812D01*
X03476Y037172D01*
X03234Y037382D02*
X032287Y037435D01*
X032182D01*
X03213Y037382D01*
Y037172D01*
X032182Y03712D01*
X032287D01*
X03234Y037172D01*
X032655Y03712D02*
X032445D01*
X032655Y03733D01*
Y037382D01*
X032602Y037435D01*
X032497D01*
X032445Y037382D01*
X03297Y03712D02*
X03276D01*
X03297Y03733D01*
Y037382D01*
X032917Y037435D01*
X032812D01*
X03276Y037382D01*
X03334Y037402D02*
X033287Y037455D01*
X033182D01*
X03313Y037402D01*
Y037192D01*
X033182Y03714D01*
X033287D01*
X03334Y037192D01*
X033655Y03714D02*
X033445D01*
X033655Y03735D01*
Y037402D01*
X033602Y037455D01*
X033497D01*
X033445Y037402D01*
X03376Y03714D02*
X033865D01*
X033812D01*
Y037455D01*
X03376Y037402D01*
X015195Y03704D02*
X015143Y036988D01*
Y036883D01*
X015195Y03683D01*
X015405D01*
X015457Y036883D01*
Y036988D01*
X015405Y03704D01*
X015457Y037355D02*
Y037145D01*
X015248Y037355D01*
X015195D01*
X015143Y037302D01*
Y037198D01*
X015195Y037145D01*
Y03746D02*
X015143Y037512D01*
Y037617D01*
X015195Y03767D01*
X015405D01*
X015457Y037617D01*
Y037512D01*
X015405Y03746D01*
X015195D01*
X03873Y034532D02*
X038677Y034585D01*
X038572D01*
X03852Y034532D01*
Y034322D01*
X038572Y03427D01*
X038677D01*
X03873Y034322D01*
X038835Y03427D02*
X03894D01*
X038887D01*
Y034585D01*
X038835Y034532D01*
X039097Y034322D02*
X03915Y03427D01*
X039255D01*
X039307Y034322D01*
Y034532D01*
X039255Y034585D01*
X03915D01*
X039097Y034532D01*
Y03448D01*
X03915Y034427D01*
X039307D01*
X036066Y032155D02*
X036014Y032207D01*
X035909D01*
X035856Y032155D01*
Y031945D01*
X035909Y031893D01*
X036014D01*
X036066Y031945D01*
X036171Y031893D02*
X036276D01*
X036224D01*
Y032207D01*
X036171Y032155D01*
X036434D02*
X036486Y032207D01*
X036591D01*
X036644Y032155D01*
Y032102D01*
X036591Y03205D01*
X036644Y031998D01*
Y031945D01*
X036591Y031893D01*
X036486D01*
X036434Y031945D01*
Y031998D01*
X036486Y03205D01*
X036434Y032102D01*
Y032155D01*
X036486Y03205D02*
X036591D01*
X035966Y031105D02*
X035914Y031157D01*
X035809D01*
X035756Y031105D01*
Y030895D01*
X035809Y030843D01*
X035914D01*
X035966Y030895D01*
X036071Y030843D02*
X036176D01*
X036124D01*
Y031157D01*
X036071Y031105D01*
X036334Y031157D02*
X036544D01*
Y031105D01*
X036334Y030895D01*
Y030843D01*
X035966Y030105D02*
X035914Y030157D01*
X035809D01*
X035756Y030105D01*
Y029895D01*
X035809Y029843D01*
X035914D01*
X035966Y029895D01*
X036071Y029843D02*
X036176D01*
X036124D01*
Y030157D01*
X036071Y030105D01*
X036544Y030157D02*
X036439Y030105D01*
X036334Y03D01*
Y029895D01*
X036386Y029843D01*
X036491D01*
X036544Y029895D01*
Y029948D01*
X036491Y03D01*
X036334D01*
X042866Y029055D02*
X042814Y029107D01*
X042709D01*
X042656Y029055D01*
Y028845D01*
X042709Y028793D01*
X042814D01*
X042866Y028845D01*
X042971Y028793D02*
X043076D01*
X043024D01*
Y029107D01*
X042971Y029055D01*
X043444Y029107D02*
X043234D01*
Y02895D01*
X043339Y029002D01*
X043391D01*
X043444Y02895D01*
Y028845D01*
X043391Y028793D01*
X043286D01*
X043234Y028845D01*
X042866Y028155D02*
X042814Y028207D01*
X042709D01*
X042656Y028155D01*
Y027945D01*
X042709Y027893D01*
X042814D01*
X042866Y027945D01*
X042971Y027893D02*
X043076D01*
X043024D01*
Y028207D01*
X042971Y028155D01*
X043391Y027893D02*
Y028207D01*
X043234Y02805D01*
X043444D01*
X042848Y027055D02*
X042795Y027107D01*
X04269D01*
X042638Y027055D01*
Y026845D01*
X04269Y026793D01*
X042795D01*
X042848Y026845D01*
X042952D02*
X043005Y026793D01*
X04311D01*
X043162Y026845D01*
Y027055D01*
X04311Y027107D01*
X043005D01*
X042952Y027055D01*
Y027002D01*
X043005Y02695D01*
X043162D01*
X042848Y026055D02*
X042795Y026107D01*
X04269D01*
X042638Y026055D01*
Y025845D01*
X04269Y025793D01*
X042795D01*
X042848Y025845D01*
X042952Y026055D02*
X043005Y026107D01*
X04311D01*
X043162Y026055D01*
Y026002D01*
X04311Y02595D01*
X043162Y025898D01*
Y025845D01*
X04311Y025793D01*
X043005D01*
X042952Y025845D01*
Y025898D01*
X043005Y02595D01*
X042952Y026002D01*
Y026055D01*
X043005Y02595D02*
X04311D01*
D14*
X0159Y04285D02*
G03*
X0159Y04285I-00005J0D01*
G01*
D15*
X016084Y03864D02*
G03*
X016235Y03853I00013J000021D01*
G01*
X017616Y042521D02*
G03*
X017426Y04267I-00017J-000021D01*
G01*
X017466Y03853D02*
G03*
X017616Y03868I0J00015D01*
G01*
X016193Y04267D02*
G03*
X016084Y042519I000021J-00013D01*
G01*
X01659Y04265D02*
G03*
X01709Y04265I00025J0D01*
G01*
X038002Y0364D02*
Y0365D01*
Y0359D02*
Y036D01*
Y0354D02*
Y0355D01*
X036502Y0354D02*
Y0355D01*
Y0359D02*
Y036D01*
Y0364D02*
Y0365D01*
X036541Y035005D02*
X036699D01*
X036541Y036895D02*
X036699D01*
Y035005D02*
Y036895D01*
X037959D01*
X036699Y035005D02*
X037959D01*
X015248Y029D02*
Y0291D01*
Y0295D02*
Y0296D01*
Y03D02*
Y0301D01*
X016748Y03D02*
Y0301D01*
Y0295D02*
Y0296D01*
Y029D02*
Y0291D01*
X016551Y030495D02*
X016709D01*
X016551Y028605D02*
X016709D01*
X016551D02*
Y030495D01*
X015291Y028605D02*
X016551D01*
X015291Y030495D02*
X016551D01*
X017616Y03868D02*
Y04252D01*
X016084Y038641D02*
Y04252D01*
X016234Y03853D02*
X017466D01*
X01709Y04267D02*
X017422D01*
X016194D02*
X01659D01*
D16*
X0132Y0369D02*
Y037D01*
X01225Y0369D02*
Y037D01*
Y0369D02*
X0132D01*
X0122Y0346D02*
Y0347D01*
X0132D01*
Y0346D02*
Y0347D01*
X01325Y0318D02*
Y0319D01*
X01225D02*
X01325D01*
X01225Y0318D02*
Y0319D01*
X0123Y0341D02*
X01325D01*
X0123D02*
Y0342D01*
X01325Y0341D02*
Y0342D01*
D17*
X00915Y01375D02*
Y01705D01*
X0146Y01375D02*
Y01705D01*
X00915D02*
X0146D01*
X00915Y01375D02*
X0146D01*
X00985D02*
Y01705D01*
M02*
