G04*
G04 #@! TF.GenerationSoftware,Altium Limited,Altium Designer,21.3.2 (30)*
G04*
G04 Layer_Color=2752767*
%FSTAX24Y24*%
%MOIN*%
G70*
G04*
G04 #@! TF.SameCoordinates,AAB4DB19-2E37-4297-9B89-C5A600987651*
G04*
G04*
G04 #@! TF.FilePolarity,Positive*
G04*
G01*
G75*
%ADD16C,0.0020*%
%ADD116C,0.0027*%
%ADD117C,0.0013*%
D16*
X03632Y043305D02*
Y043465D01*
X03648D01*
Y043305D01*
X03632D01*
X012363Y041404D02*
X012283Y041564D01*
X012443D01*
X012363Y041404D01*
Y039436D02*
X012283Y039596D01*
X012443D01*
X012363Y039436D01*
X01142Y03661D02*
X01146Y03665D01*
X0115D01*
X01146Y03669D01*
X0115Y03673D01*
X01146D01*
X01142Y03677D01*
X01138Y03673D01*
X01134D01*
X01138Y03669D01*
X01134Y03665D01*
X01138D01*
X01142Y03661D01*
Y03483D02*
X01146Y03487D01*
X0115D01*
X01146Y03491D01*
X0115Y03495D01*
X01146D01*
X01142Y03499D01*
X01138Y03495D01*
X01134D01*
X01138Y03491D01*
X01134Y03487D01*
X01138D01*
X01142Y03483D01*
X01398Y03661D02*
X01402Y03665D01*
X01406D01*
X01402Y03669D01*
X01406Y03673D01*
X01402D01*
X01398Y03677D01*
X01394Y03673D01*
X0139D01*
X01394Y03669D01*
X0139Y03665D01*
X01394D01*
X01398Y03661D01*
Y03483D02*
X01402Y03487D01*
X01406D01*
X01402Y03491D01*
X01406Y03495D01*
X01402D01*
X01398Y03499D01*
X01394Y03495D01*
X0139D01*
X01394Y03491D01*
X0139Y03487D01*
X01394D01*
X01398Y03483D01*
X041213Y035378D02*
X041253Y035458D01*
X041213Y035538D01*
X041293Y035498D01*
X041373Y035538D01*
X041333Y035458D01*
X041373Y035378D01*
X041293Y035418D01*
X041213Y035378D01*
Y036362D02*
X041253Y036442D01*
X041213Y036522D01*
X041293Y036482D01*
X041373Y036522D01*
X041333Y036442D01*
X041373Y036362D01*
X041293Y036402D01*
X041213Y036362D01*
X037817Y02117D02*
X037857Y02125D01*
X037817Y02133D01*
X037897Y02129D01*
X037977Y02133D01*
X037937Y02125D01*
X037977Y02117D01*
X037897Y02121D01*
X037817Y02117D01*
X04077D02*
X04081Y02125D01*
X04077Y02133D01*
X04085Y02129D01*
X04093Y02133D01*
X04089Y02125D01*
X04093Y02117D01*
X04085Y02121D01*
X04077Y02117D01*
X02946Y02001D02*
Y01997D01*
X02954D01*
Y02001D01*
X02958D01*
Y02009D01*
X02954D01*
Y02013D01*
X02946D01*
Y02009D01*
X02942D01*
Y02001D01*
X02946D01*
Y01441D02*
Y01437D01*
X02954D01*
Y01441D01*
X02958D01*
Y01449D01*
X02954D01*
Y01453D01*
X02946D01*
Y01449D01*
X02942D01*
Y01441D01*
X02946D01*
X029557Y02242D02*
X029597D01*
X029637Y02246D01*
X029677Y02242D01*
X029717D01*
Y02246D01*
X029677Y0225D01*
X029717Y02254D01*
Y02258D01*
X029677D01*
X029637Y02254D01*
X029597Y02258D01*
X029557D01*
Y02254D01*
X029597Y0225D01*
X029557Y02246D01*
Y02242D01*
X028557D02*
X028597D01*
X028637Y02246D01*
X028677Y02242D01*
X028717D01*
Y02246D01*
X028677Y0225D01*
X028717Y02254D01*
Y02258D01*
X028677D01*
X028637Y02254D01*
X028597Y02258D01*
X028557D01*
Y02254D01*
X028597Y0225D01*
X028557Y02246D01*
Y02242D01*
X030557D02*
X030597D01*
X030637Y02246D01*
X030677Y02242D01*
X030717D01*
Y02246D01*
X030677Y0225D01*
X030717Y02254D01*
Y02258D01*
X030677D01*
X030637Y02254D01*
X030597Y02258D01*
X030557D01*
Y02254D01*
X030597Y0225D01*
X030557Y02246D01*
Y02242D01*
X017444Y01307D02*
X017484Y01315D01*
X017444Y01323D01*
X017524Y01319D01*
X017604Y01323D01*
X017564Y01315D01*
X017604Y01307D01*
X017524Y01311D01*
X017444Y01307D01*
X020396D02*
X020436Y01315D01*
X020396Y01323D01*
X020476Y01319D01*
X020556Y01323D01*
X020516Y01315D01*
X020556Y01307D01*
X020476Y01311D01*
X020396Y01307D01*
X02052Y015918D02*
Y016078D01*
X02068D01*
Y015918D01*
X02052D01*
X020294Y015544D02*
Y015704D01*
X020454D01*
Y015544D01*
X020294D01*
X020746D02*
Y015704D01*
X020906D01*
Y015544D01*
X020746D01*
X02052Y01517D02*
Y01533D01*
X02068D01*
Y01517D01*
X02052D01*
X017444Y02117D02*
X017484Y02125D01*
X017444Y02133D01*
X017524Y02129D01*
X017604Y02133D01*
X017564Y02125D01*
X017604Y02117D01*
X017524Y02121D01*
X017444Y02117D01*
X020396D02*
X020436Y02125D01*
X020396Y02133D01*
X020476Y02129D01*
X020556Y02133D01*
X020516Y02125D01*
X020556Y02117D01*
X020476Y02121D01*
X020396Y02117D01*
X037817Y01307D02*
X037857Y01315D01*
X037817Y01323D01*
X037897Y01319D01*
X037977Y01323D01*
X037937Y01315D01*
X037977Y01307D01*
X037897Y01311D01*
X037817Y01307D01*
X04077D02*
X04081Y01315D01*
X04077Y01323D01*
X04085Y01319D01*
X04093Y01323D01*
X04089Y01315D01*
X04093Y01307D01*
X04085Y01311D01*
X04077Y01307D01*
X01092Y0112D02*
X011Y01128D01*
X01108Y0112D01*
X011Y01112D01*
X01092Y0112D01*
X04322Y011D02*
X0433Y01108D01*
X04338Y011D01*
X0433Y01092D01*
X04322Y011D01*
Y04555D02*
X0433Y04563D01*
X04338Y04555D01*
X0433Y04547D01*
X04322Y04555D01*
X01077D02*
X01085Y04563D01*
X01093Y04555D01*
X01085Y04547D01*
X01077Y04555D01*
X01457Y01547D02*
Y01563D01*
X01473D01*
Y01547D01*
X01457D01*
X01461Y01551D02*
Y01559D01*
X01469D01*
Y01551D01*
X01461D01*
X01207Y01547D02*
Y01563D01*
X01223D01*
Y01547D01*
X01207D01*
X01211Y01551D02*
Y01559D01*
X01219D01*
Y01551D01*
X01211D01*
X01357Y01347D02*
Y01363D01*
X01373D01*
Y01347D01*
X01357D01*
X01361Y01351D02*
Y01359D01*
X01369D01*
Y01351D01*
X01361D01*
X02822Y01192D02*
X02826D01*
X0283Y01196D01*
X02834Y01192D01*
X02838D01*
Y01196D01*
X02834Y012D01*
X02838Y01204D01*
Y01208D01*
X02834D01*
X0283Y01204D01*
X02826Y01208D01*
X02822D01*
Y01204D01*
X02826Y012D01*
X02822Y01196D01*
Y01192D01*
X03022D02*
X03026D01*
X0303Y01196D01*
X03034Y01192D01*
X03038D01*
Y01196D01*
X03034Y012D01*
X03038Y01204D01*
Y01208D01*
X03034D01*
X0303Y01204D01*
X03026Y01208D01*
X03022D01*
Y01204D01*
X03026Y012D01*
X03022Y01196D01*
Y01192D01*
X02922D02*
X02926D01*
X0293Y01196D01*
X02934Y01192D01*
X02938D01*
Y01196D01*
X02934Y012D01*
X02938Y01204D01*
Y01208D01*
X02934D01*
X0293Y01204D01*
X02926Y01208D01*
X02922D01*
Y01204D01*
X02926Y012D01*
X02922Y01196D01*
Y01192D01*
X012127Y028478D02*
X012167Y028558D01*
X012127Y028638D01*
X012207Y028598D01*
X012287Y028638D01*
X012247Y028558D01*
X012287Y028478D01*
X012207Y028518D01*
X012127Y028478D01*
Y029462D02*
X012167Y029542D01*
X012127Y029622D01*
X012207Y029582D01*
X012287Y029622D01*
X012247Y029542D01*
X012287Y029462D01*
X012207Y029502D01*
X012127Y029462D01*
X036832Y04177D02*
Y04193D01*
X036992D01*
Y04177D01*
X036832D01*
X03632D02*
Y04193D01*
X03648D01*
Y04177D01*
X03632D01*
X036832Y042282D02*
Y042442D01*
X036992D01*
Y042282D01*
X036832D01*
X03632D02*
Y042442D01*
X03648D01*
Y042282D01*
X03632D01*
X036832Y042794D02*
Y042954D01*
X036992D01*
Y042794D01*
X036832D01*
X03632D02*
Y042954D01*
X03648D01*
Y042794D01*
X03632D01*
X036832Y043305D02*
Y043465D01*
X036992D01*
Y043305D01*
X036832D01*
X04052Y043254D02*
X04056Y043334D01*
X04052Y043414D01*
X0406Y043374D01*
X04068Y043414D01*
X04064Y043334D01*
X04068Y043254D01*
X0406Y043294D01*
X04052Y043254D01*
Y04227D02*
X04056Y04235D01*
X04052Y04243D01*
X0406Y04239D01*
X04068Y04243D01*
X04064Y04235D01*
X04068Y04227D01*
X0406Y04231D01*
X04052Y04227D01*
X014577Y021593D02*
X014497Y021753D01*
X014657D01*
X014577Y021593D01*
Y021633D02*
X014537Y021713D01*
X014617D01*
X014577Y021633D01*
Y022577D02*
X014497Y022737D01*
X014657D01*
X014577Y022577D01*
Y022617D02*
X014537Y022697D01*
X014617D01*
X014577Y022617D01*
Y023562D02*
X014497Y023722D01*
X014657D01*
X014577Y023562D01*
Y023602D02*
X014537Y023682D01*
X014617D01*
X014577Y023602D01*
X012064Y021593D02*
X011984Y021753D01*
X012144D01*
X012064Y021593D01*
Y021633D02*
X012024Y021713D01*
X012104D01*
X012064Y021633D01*
Y022577D02*
X011984Y022737D01*
X012144D01*
X012064Y022577D01*
Y022617D02*
X012024Y022697D01*
X012104D01*
X012064Y022617D01*
Y023562D02*
X011984Y023722D01*
X012144D01*
X012064Y023562D01*
Y023602D02*
X012024Y023682D01*
X012104D01*
X012064Y023602D01*
X01403Y03203D02*
X01407Y03207D01*
X01411D01*
X01407Y03211D01*
X01411Y03215D01*
X01407D01*
X01403Y03219D01*
X01399Y03215D01*
X01395D01*
X01399Y03211D01*
X01395Y03207D01*
X01399D01*
X01403Y03203D01*
Y03381D02*
X01407Y03385D01*
X01411D01*
X01407Y03389D01*
X01411Y03393D01*
X01407D01*
X01403Y03397D01*
X01399Y03393D01*
X01395D01*
X01399Y03389D01*
X01395Y03385D01*
X01399D01*
X01403Y03381D01*
X01147Y03203D02*
X01151Y03207D01*
X01155D01*
X01151Y03211D01*
X01155Y03215D01*
X01151D01*
X01147Y03219D01*
X01143Y03215D01*
X01139D01*
X01143Y03211D01*
X01139Y03207D01*
X01143D01*
X01147Y03203D01*
Y03381D02*
X01151Y03385D01*
X01155D01*
X01151Y03389D01*
X01155Y03393D01*
X01151D01*
X01147Y03397D01*
X01143Y03393D01*
X01139D01*
X01143Y03389D01*
X01139Y03385D01*
X01143D01*
X01147Y03381D01*
X026402Y038079D02*
Y038239D01*
X026562D01*
Y038079D01*
X026402D01*
X027125D02*
Y038239D01*
X027285D01*
Y038079D01*
X027125D01*
Y038802D02*
Y038962D01*
X027285D01*
Y038802D01*
X027125D01*
X026402D02*
Y038962D01*
X026562D01*
Y038802D01*
X026402D01*
Y039524D02*
Y039684D01*
X026562D01*
Y039524D01*
X026402D01*
X027125D02*
Y039684D01*
X027285D01*
Y039524D01*
X027125D01*
X01525Y03152D02*
X01529Y03156D01*
X01533D01*
X01529Y0316D01*
X01533Y03164D01*
X01529D01*
X01525Y03168D01*
X01521Y03164D01*
X01517D01*
X01521Y0316D01*
X01517Y03156D01*
X01521D01*
X01525Y03152D01*
Y03156D02*
X01527Y03158D01*
X01529D01*
X01527Y0316D01*
X01529Y03162D01*
X01527D01*
X01525Y03164D01*
X01523Y03162D01*
X01521D01*
X01523Y0316D01*
X01521Y03158D01*
X01523D01*
X01525Y03156D01*
X01115Y03097D02*
X01119Y03101D01*
X01123D01*
X01119Y03105D01*
X01123Y03109D01*
X01119D01*
X01115Y03113D01*
X01111Y03109D01*
X01107D01*
X01111Y03105D01*
X01107Y03101D01*
X01111D01*
X01115Y03097D01*
Y03101D02*
X01117Y03103D01*
X01119D01*
X01117Y03105D01*
X01119Y03107D01*
X01117D01*
X01115Y03109D01*
X01113Y03107D01*
X01111D01*
X01113Y03105D01*
X01111Y03103D01*
X01113D01*
X01115Y03101D01*
X01275Y03822D02*
X01279Y03826D01*
X01283D01*
X01279Y0383D01*
X01283Y03834D01*
X01279D01*
X01275Y03838D01*
X01271Y03834D01*
X01267D01*
X01271Y0383D01*
X01267Y03826D01*
X01271D01*
X01275Y03822D01*
Y03826D02*
X01277Y03828D01*
X01279D01*
X01277Y0383D01*
X01279Y03832D01*
X01277D01*
X01275Y03834D01*
X01273Y03832D01*
X01271D01*
X01273Y0383D01*
X01271Y03828D01*
X01273D01*
X01275Y03826D01*
X01235Y03857D02*
X01239Y03861D01*
X01243D01*
X01239Y03865D01*
X01243Y03869D01*
X01239D01*
X01235Y03873D01*
X01231Y03869D01*
X01227D01*
X01231Y03865D01*
X01227Y03861D01*
X01231D01*
X01235Y03857D01*
Y03861D02*
X01237Y03863D01*
X01239D01*
X01237Y03865D01*
X01239Y03867D01*
X01237D01*
X01235Y03869D01*
X01233Y03867D01*
X01231D01*
X01233Y03865D01*
X01231Y03863D01*
X01233D01*
X01235Y03861D01*
X0383Y04177D02*
X03834Y04181D01*
X03838D01*
X03834Y04185D01*
X03838Y04189D01*
X03834D01*
X0383Y04193D01*
X03826Y04189D01*
X03822D01*
X03826Y04185D01*
X03822Y04181D01*
X03826D01*
X0383Y04177D01*
Y04181D02*
X03832Y04183D01*
X03834D01*
X03832Y04185D01*
X03834Y04187D01*
X03832D01*
X0383Y04189D01*
X03828Y04187D01*
X03826D01*
X03828Y04185D01*
X03826Y04183D01*
X03828D01*
X0383Y04181D01*
X03837Y03197D02*
Y03213D01*
X03853D01*
Y03197D01*
X03837D01*
Y03152D02*
Y03168D01*
X03853D01*
Y03152D01*
X03837D01*
Y03102D02*
Y03118D01*
X03853D01*
Y03102D01*
X03837D01*
Y03057D02*
Y03073D01*
X03853D01*
Y03057D01*
X03837D01*
Y03017D02*
Y03033D01*
X03853D01*
Y03017D01*
X03837D01*
Y02972D02*
Y02988D01*
X03853D01*
Y02972D01*
X03837D01*
X03872D02*
Y02988D01*
X03888D01*
Y02972D01*
X03872D01*
Y03017D02*
Y03033D01*
X03888D01*
Y03017D01*
X03872D01*
Y03057D02*
Y03073D01*
X03888D01*
Y03057D01*
X03872D01*
Y03102D02*
Y03118D01*
X03888D01*
Y03102D01*
X03872D01*
Y03152D02*
Y03168D01*
X03888D01*
Y03152D01*
X03872D01*
Y03197D02*
Y03213D01*
X03888D01*
Y03197D01*
X03872D01*
X01285Y03987D02*
X01289Y03991D01*
X01293D01*
X01289Y03995D01*
X01293Y03999D01*
X01289D01*
X01285Y04003D01*
X01281Y03999D01*
X01277D01*
X01281Y03995D01*
X01277Y03991D01*
X01281D01*
X01285Y03987D01*
Y03991D02*
X01287Y03993D01*
X01289D01*
X01287Y03995D01*
X01289Y03997D01*
X01287D01*
X01285Y03999D01*
X01283Y03997D01*
X01281D01*
X01283Y03995D01*
X01281Y03993D01*
X01283D01*
X01285Y03991D01*
X0178Y02837D02*
X01784Y02841D01*
X01788D01*
X01784Y02845D01*
X01788Y02849D01*
X01784D01*
X0178Y02853D01*
X01776Y02849D01*
X01772D01*
X01776Y02845D01*
X01772Y02841D01*
X01776D01*
X0178Y02837D01*
Y02841D02*
X01782Y02843D01*
X01784D01*
X01782Y02845D01*
X01784Y02847D01*
X01782D01*
X0178Y02849D01*
X01778Y02847D01*
X01776D01*
X01778Y02845D01*
X01776Y02843D01*
X01778D01*
X0178Y02841D01*
X037412Y037562D02*
X037452Y037602D01*
X037492D01*
X037452Y037642D01*
X037492Y037682D01*
X037452D01*
X037412Y037722D01*
X037372Y037682D01*
X037332D01*
X037372Y037642D01*
X037332Y037602D01*
X037372D01*
X037412Y037562D01*
Y037602D02*
X037432Y037622D01*
X037452D01*
X037432Y037642D01*
X037452Y037662D01*
X037432D01*
X037412Y037682D01*
X037392Y037662D01*
X037372D01*
X037392Y037642D01*
X037372Y037622D01*
X037392D01*
X037412Y037602D01*
X036577Y036114D02*
X036617Y036194D01*
X036577Y036274D01*
X036657Y036234D01*
X036737Y036274D01*
X036697Y036194D01*
X036737Y036114D01*
X036657Y036154D01*
X036577Y036114D01*
X036617Y036154D02*
X036637Y036194D01*
X036617Y036234D01*
X036657Y036214D01*
X036697Y036234D01*
X036677Y036194D01*
X036697Y036154D01*
X036657Y036174D01*
X036617Y036154D01*
X03445Y03317D02*
X03449Y03321D01*
X03453D01*
X03449Y03325D01*
X03453Y03329D01*
X03449D01*
X03445Y03333D01*
X03441Y03329D01*
X03437D01*
X03441Y03325D01*
X03437Y03321D01*
X03441D01*
X03445Y03317D01*
Y03321D02*
X03447Y03323D01*
X03449D01*
X03447Y03325D01*
X03449Y03327D01*
X03447D01*
X03445Y03329D01*
X03443Y03327D01*
X03441D01*
X03443Y03325D01*
X03441Y03323D01*
X03443D01*
X03445Y03321D01*
X02087Y04327D02*
X02091Y04335D01*
X02087Y04343D01*
X02095Y04339D01*
X02103Y04343D01*
X02099Y04335D01*
X02103Y04327D01*
X02095Y04331D01*
X02087Y04327D01*
X02091Y04331D02*
X02093Y04335D01*
X02091Y04339D01*
X02095Y04337D01*
X02099Y04339D01*
X02097Y04335D01*
X02099Y04331D01*
X02095Y04333D01*
X02091Y04331D01*
X027211Y044913D02*
X027251Y044993D01*
X027211Y045073D01*
X027291Y045033D01*
X027371Y045073D01*
X027331Y044993D01*
X027371Y044913D01*
X027291Y044953D01*
X027211Y044913D01*
X027251Y044953D02*
X027271Y044993D01*
X027251Y045033D01*
X027291Y045013D01*
X027331Y045033D01*
X027311Y044993D01*
X027331Y044953D01*
X027291Y044973D01*
X027251Y044953D01*
X0314Y03462D02*
X03144Y03466D01*
X03148D01*
X03144Y0347D01*
X03148Y03474D01*
X03144D01*
X0314Y03478D01*
X03136Y03474D01*
X03132D01*
X03136Y0347D01*
X03132Y03466D01*
X03136D01*
X0314Y03462D01*
Y03466D02*
X03142Y03468D01*
X03144D01*
X03142Y0347D01*
X03144Y03472D01*
X03142D01*
X0314Y03474D01*
X03138Y03472D01*
X03136D01*
X03138Y0347D01*
X03136Y03468D01*
X03138D01*
X0314Y03466D01*
X02412Y03347D02*
X02416Y03355D01*
X02412Y03363D01*
X0242Y03359D01*
X02428Y03363D01*
X02424Y03355D01*
X02428Y03347D01*
X0242Y03351D01*
X02412Y03347D01*
X02416Y03351D02*
X02418Y03355D01*
X02416Y03359D01*
X0242Y03357D01*
X02424Y03359D01*
X02422Y03355D01*
X02424Y03351D01*
X0242Y03353D01*
X02416Y03351D01*
X02452Y03447D02*
X02456Y03455D01*
X02452Y03463D01*
X0246Y03459D01*
X02468Y03463D01*
X02464Y03455D01*
X02468Y03447D01*
X0246Y03451D01*
X02452Y03447D01*
X02456Y03451D02*
X02458Y03455D01*
X02456Y03459D01*
X0246Y03457D01*
X02464Y03459D01*
X02462Y03455D01*
X02464Y03451D01*
X0246Y03453D01*
X02456Y03451D01*
X03742Y03462D02*
X03746Y0347D01*
X03742Y03478D01*
X0375Y03474D01*
X03758Y03478D01*
X03754Y0347D01*
X03758Y03462D01*
X0375Y03466D01*
X03742Y03462D01*
X03746Y03466D02*
X03748Y0347D01*
X03746Y03474D01*
X0375Y03472D01*
X03754Y03474D01*
X03752Y0347D01*
X03754Y03466D01*
X0375Y03468D01*
X03746Y03466D01*
X03687Y04082D02*
Y04098D01*
X03703D01*
Y04082D01*
X03687D01*
Y04127D02*
Y04143D01*
X03703D01*
Y04127D01*
X03687D01*
X029199Y036834D02*
X029239Y036874D01*
X029279D01*
X029239Y036914D01*
X029279Y036954D01*
X029239D01*
X029199Y036994D01*
X029159Y036954D01*
X029119D01*
X029159Y036914D01*
X029119Y036874D01*
X029159D01*
X029199Y036834D01*
Y036874D02*
X029219Y036894D01*
X029239D01*
X029219Y036914D01*
X029239Y036934D01*
X029219D01*
X029199Y036954D01*
X029179Y036934D01*
X029159D01*
X029179Y036914D01*
X029159Y036894D01*
X029179D01*
X029199Y036874D01*
X0287Y04337D02*
X02874Y04341D01*
X02878D01*
X02874Y04345D01*
X02878Y04349D01*
X02874D01*
X0287Y04353D01*
X02866Y04349D01*
X02862D01*
X02866Y04345D01*
X02862Y04341D01*
X02866D01*
X0287Y04337D01*
Y04341D02*
X02872Y04343D01*
X02874D01*
X02872Y04345D01*
X02874Y04347D01*
X02872D01*
X0287Y04349D01*
X02868Y04347D01*
X02866D01*
X02868Y04345D01*
X02866Y04343D01*
X02868D01*
X0287Y04341D01*
X029195Y042758D02*
X029235Y042798D01*
X029275D01*
X029235Y042838D01*
X029275Y042878D01*
X029235D01*
X029195Y042918D01*
X029155Y042878D01*
X029115D01*
X029155Y042838D01*
X029115Y042798D01*
X029155D01*
X029195Y042758D01*
Y042798D02*
X029215Y042818D01*
X029235D01*
X029215Y042838D01*
X029235Y042858D01*
X029215D01*
X029195Y042878D01*
X029175Y042858D01*
X029155D01*
X029175Y042838D01*
X029155Y042818D01*
X029175D01*
X029195Y042798D01*
X03005Y04465D02*
X03009Y04473D01*
X03005Y04481D01*
X03013Y04477D01*
X03021Y04481D01*
X03017Y04473D01*
X03021Y04465D01*
X03013Y04469D01*
X03005Y04465D01*
X03009Y04469D02*
X03011Y04473D01*
X03009Y04477D01*
X03013Y04475D01*
X03017Y04477D01*
X03015Y04473D01*
X03017Y04469D01*
X03013Y04471D01*
X03009Y04469D01*
X02662Y04207D02*
X02666Y04215D01*
X02662Y04223D01*
X0267Y04219D01*
X02678Y04223D01*
X02674Y04215D01*
X02678Y04207D01*
X0267Y04211D01*
X02662Y04207D01*
X02666Y04211D02*
X02668Y04215D01*
X02666Y04219D01*
X0267Y04217D01*
X02674Y04219D01*
X02672Y04215D01*
X02674Y04211D01*
X0267Y04213D01*
X02666Y04211D01*
X02662Y04347D02*
X02666Y04355D01*
X02662Y04363D01*
X0267Y04359D01*
X02678Y04363D01*
X02674Y04355D01*
X02678Y04347D01*
X0267Y04351D01*
X02662Y04347D01*
X02666Y04351D02*
X02668Y04355D01*
X02666Y04359D01*
X0267Y04357D01*
X02674Y04359D01*
X02672Y04355D01*
X02674Y04351D01*
X0267Y04353D01*
X02666Y04351D01*
X01827Y04227D02*
X01831Y04235D01*
X01827Y04243D01*
X01835Y04239D01*
X01843Y04243D01*
X01839Y04235D01*
X01843Y04227D01*
X01835Y04231D01*
X01827Y04227D01*
X01831Y04231D02*
X01833Y04235D01*
X01831Y04239D01*
X01835Y04237D01*
X01839Y04239D01*
X01837Y04235D01*
X01839Y04231D01*
X01835Y04233D01*
X01831Y04231D01*
X01787Y04257D02*
X01791Y04265D01*
X01787Y04273D01*
X01795Y04269D01*
X01803Y04273D01*
X01799Y04265D01*
X01803Y04257D01*
X01795Y04261D01*
X01787Y04257D01*
X01791Y04261D02*
X01793Y04265D01*
X01791Y04269D01*
X01795Y04267D01*
X01799Y04269D01*
X01797Y04265D01*
X01799Y04261D01*
X01795Y04263D01*
X01791Y04261D01*
X01522Y04227D02*
X01526Y04235D01*
X01522Y04243D01*
X0153Y04239D01*
X01538Y04243D01*
X01534Y04235D01*
X01538Y04227D01*
X0153Y04231D01*
X01522Y04227D01*
X01526Y04231D02*
X01528Y04235D01*
X01526Y04239D01*
X0153Y04237D01*
X01534Y04239D01*
X01532Y04235D01*
X01534Y04231D01*
X0153Y04233D01*
X01526Y04231D01*
X01572Y04257D02*
X01576Y04265D01*
X01572Y04273D01*
X0158Y04269D01*
X01588Y04273D01*
X01584Y04265D01*
X01588Y04257D01*
X0158Y04261D01*
X01572Y04257D01*
X01576Y04261D02*
X01578Y04265D01*
X01576Y04269D01*
X0158Y04267D01*
X01584Y04269D01*
X01582Y04265D01*
X01584Y04261D01*
X0158Y04263D01*
X01576Y04261D01*
X01867Y02992D02*
X01871Y03D01*
X01867Y03008D01*
X01875Y03004D01*
X01883Y03008D01*
X01879Y03D01*
X01883Y02992D01*
X01875Y02996D01*
X01867Y02992D01*
X01871Y02996D02*
X01873Y03D01*
X01871Y03004D01*
X01875Y03002D01*
X01879Y03004D01*
X01877Y03D01*
X01879Y02996D01*
X01875Y02998D01*
X01871Y02996D01*
X02797Y03017D02*
X02801Y03025D01*
X02797Y03033D01*
X02805Y03029D01*
X02813Y03033D01*
X02809Y03025D01*
X02813Y03017D01*
X02805Y03021D01*
X02797Y03017D01*
X02801Y03021D02*
X02803Y03025D01*
X02801Y03029D01*
X02805Y03027D01*
X02809Y03029D01*
X02807Y03025D01*
X02809Y03021D01*
X02805Y03023D01*
X02801Y03021D01*
X02677Y03017D02*
X02681Y03025D01*
X02677Y03033D01*
X02685Y03029D01*
X02693Y03033D01*
X02689Y03025D01*
X02693Y03017D01*
X02685Y03021D01*
X02677Y03017D01*
X02681Y03021D02*
X02683Y03025D01*
X02681Y03029D01*
X02685Y03027D01*
X02689Y03029D01*
X02687Y03025D01*
X02689Y03021D01*
X02685Y03023D01*
X02681Y03021D01*
X02737Y02992D02*
X02741Y03D01*
X02737Y03008D01*
X02745Y03004D01*
X02753Y03008D01*
X02749Y03D01*
X02753Y02992D01*
X02745Y02996D01*
X02737Y02992D01*
X02741Y02996D02*
X02743Y03D01*
X02741Y03004D01*
X02745Y03002D01*
X02749Y03004D01*
X02747Y03D01*
X02749Y02996D01*
X02745Y02998D01*
X02741Y02996D01*
X03322Y03337D02*
X03326Y03345D01*
X03322Y03353D01*
X0333Y03349D01*
X03338Y03353D01*
X03334Y03345D01*
X03338Y03337D01*
X0333Y03341D01*
X03322Y03337D01*
X03326Y03341D02*
X03328Y03345D01*
X03326Y03349D01*
X0333Y03347D01*
X03334Y03349D01*
X03332Y03345D01*
X03334Y03341D01*
X0333Y03343D01*
X03326Y03341D01*
X03282Y03307D02*
X03286Y03315D01*
X03282Y03323D01*
X0329Y03319D01*
X03298Y03323D01*
X03294Y03315D01*
X03298Y03307D01*
X0329Y03311D01*
X03282Y03307D01*
X03286Y03311D02*
X03288Y03315D01*
X03286Y03319D01*
X0329Y03317D01*
X03294Y03319D01*
X03292Y03315D01*
X03294Y03311D01*
X0329Y03313D01*
X03286Y03311D01*
X03072Y03517D02*
Y03533D01*
X03088D01*
Y03517D01*
X03072D01*
X03457D02*
Y03533D01*
X03473D01*
Y03517D01*
X03457D01*
X03407D02*
Y03533D01*
X03423D01*
Y03517D01*
X03407D01*
X03327D02*
Y03533D01*
X03343D01*
Y03517D01*
X03327D01*
X03247D02*
Y03533D01*
X03263D01*
Y03517D01*
X03247D01*
X03187D02*
Y03533D01*
X03203D01*
Y03517D01*
X03187D01*
X03122D02*
Y03533D01*
X03138D01*
Y03517D01*
X03122D01*
X041816Y039079D02*
X041856Y039159D01*
X041816Y039239D01*
X041896Y039199D01*
X041976Y039239D01*
X041936Y039159D01*
X041976Y039079D01*
X041896Y039119D01*
X041816Y039079D01*
X041856Y039119D02*
X041876Y039159D01*
X041856Y039199D01*
X041896Y039179D01*
X041936Y039199D01*
X041916Y039159D01*
X041936Y039119D01*
X041896Y039139D01*
X041856Y039119D01*
X04182Y03812D02*
X04186Y0382D01*
X04182Y03828D01*
X0419Y03824D01*
X04198Y03828D01*
X04194Y0382D01*
X04198Y03812D01*
X0419Y03816D01*
X04182Y03812D01*
X04186Y03816D02*
X04188Y0382D01*
X04186Y03824D01*
X0419Y03822D01*
X04194Y03824D01*
X04192Y0382D01*
X04194Y03816D01*
X0419Y03818D01*
X04186Y03816D01*
X01597Y02657D02*
X01601Y02665D01*
X01597Y02673D01*
X01605Y02669D01*
X01613Y02673D01*
X01609Y02665D01*
X01613Y02657D01*
X01605Y02661D01*
X01597Y02657D01*
X01601Y02661D02*
X01603Y02665D01*
X01601Y02669D01*
X01605Y02667D01*
X01609Y02669D01*
X01607Y02665D01*
X01609Y02661D01*
X01605Y02663D01*
X01601Y02661D01*
X02407Y04177D02*
X02411Y04185D01*
X02407Y04193D01*
X02415Y04189D01*
X02423Y04193D01*
X02419Y04185D01*
X02423Y04177D01*
X02415Y04181D01*
X02407Y04177D01*
X02411Y04181D02*
X02413Y04185D01*
X02411Y04189D01*
X02415Y04187D01*
X02419Y04189D01*
X02417Y04185D01*
X02419Y04181D01*
X02415Y04183D01*
X02411Y04181D01*
X02407Y03902D02*
X02411Y0391D01*
X02407Y03918D01*
X02415Y03914D01*
X02423Y03918D01*
X02419Y0391D01*
X02423Y03902D01*
X02415Y03906D01*
X02407Y03902D01*
X02411Y03906D02*
X02413Y0391D01*
X02411Y03914D01*
X02415Y03912D01*
X02419Y03914D01*
X02417Y0391D01*
X02419Y03906D01*
X02415Y03908D01*
X02411Y03906D01*
X02282Y03272D02*
X02286Y0328D01*
X02282Y03288D01*
X0229Y03284D01*
X02298Y03288D01*
X02294Y0328D01*
X02298Y03272D01*
X0229Y03276D01*
X02282Y03272D01*
X02286Y03276D02*
X02288Y0328D01*
X02286Y03284D01*
X0229Y03282D01*
X02294Y03284D01*
X02292Y0328D01*
X02294Y03276D01*
X0229Y03278D01*
X02286Y03276D01*
X01282Y04097D02*
X01286Y04105D01*
X01282Y04113D01*
X0129Y04109D01*
X01298Y04113D01*
X01294Y04105D01*
X01298Y04097D01*
X0129Y04101D01*
X01282Y04097D01*
X01286Y04101D02*
X01288Y04105D01*
X01286Y04109D01*
X0129Y04107D01*
X01294Y04109D01*
X01292Y04105D01*
X01294Y04101D01*
X0129Y04103D01*
X01286Y04101D01*
X01607Y03647D02*
X01611Y03655D01*
X01607Y03663D01*
X01615Y03659D01*
X01623Y03663D01*
X01619Y03655D01*
X01623Y03647D01*
X01615Y03651D01*
X01607Y03647D01*
X01611Y03651D02*
X01613Y03655D01*
X01611Y03659D01*
X01615Y03657D01*
X01619Y03659D01*
X01617Y03655D01*
X01619Y03651D01*
X01615Y03653D01*
X01611Y03651D01*
X01607Y03362D02*
X01611Y0337D01*
X01607Y03378D01*
X01615Y03374D01*
X01623Y03378D01*
X01619Y0337D01*
X01623Y03362D01*
X01615Y03366D01*
X01607Y03362D01*
X01611Y03366D02*
X01613Y0337D01*
X01611Y03374D01*
X01615Y03372D01*
X01619Y03374D01*
X01617Y0337D01*
X01619Y03366D01*
X01615Y03368D01*
X01611Y03366D01*
X0208Y035504D02*
X02084Y035584D01*
X0208Y035664D01*
X02088Y035624D01*
X02096Y035664D01*
X02092Y035584D01*
X02096Y035504D01*
X02088Y035544D01*
X0208Y035504D01*
X02084Y035544D02*
X02086Y035584D01*
X02084Y035624D01*
X02088Y035604D01*
X02092Y035624D01*
X0209Y035584D01*
X02092Y035544D01*
X02088Y035564D01*
X02084Y035544D01*
X02172Y04087D02*
X02176Y04095D01*
X02172Y04103D01*
X0218Y04099D01*
X02188Y04103D01*
X02184Y04095D01*
X02188Y04087D01*
X0218Y04091D01*
X02172Y04087D01*
X02176Y04091D02*
X02178Y04095D01*
X02176Y04099D01*
X0218Y04097D01*
X02184Y04099D01*
X02182Y04095D01*
X02184Y04091D01*
X0218Y04093D01*
X02176Y04091D01*
X02222Y04232D02*
X02226Y0424D01*
X02222Y04248D01*
X0223Y04244D01*
X02238Y04248D01*
X02234Y0424D01*
X02238Y04232D01*
X0223Y04236D01*
X02222Y04232D01*
X02226Y04236D02*
X02228Y0424D01*
X02226Y04244D01*
X0223Y04242D01*
X02234Y04244D01*
X02232Y0424D01*
X02234Y04236D01*
X0223Y04238D01*
X02226Y04236D01*
X02082Y03507D02*
X02086Y03515D01*
X02082Y03523D01*
X0209Y03519D01*
X02098Y03523D01*
X02094Y03515D01*
X02098Y03507D01*
X0209Y03511D01*
X02082Y03507D01*
X02086Y03511D02*
X02088Y03515D01*
X02086Y03519D01*
X0209Y03517D01*
X02094Y03519D01*
X02092Y03515D01*
X02094Y03511D01*
X0209Y03513D01*
X02086Y03511D01*
X036599Y036635D02*
X036639Y036715D01*
X036599Y036795D01*
X036679Y036755D01*
X036759Y036795D01*
X036719Y036715D01*
X036759Y036635D01*
X036679Y036675D01*
X036599Y036635D01*
X036639Y036675D02*
X036659Y036715D01*
X036639Y036755D01*
X036679Y036735D01*
X036719Y036755D01*
X036699Y036715D01*
X036719Y036675D01*
X036679Y036695D01*
X036639Y036675D01*
X02802Y03367D02*
X02806Y03375D01*
X02802Y03383D01*
X0281Y03379D01*
X02818Y03383D01*
X02814Y03375D01*
X02818Y03367D01*
X0281Y03371D01*
X02802Y03367D01*
X02806Y03371D02*
X02808Y03375D01*
X02806Y03379D01*
X0281Y03377D01*
X02814Y03379D01*
X02812Y03375D01*
X02814Y03371D01*
X0281Y03373D01*
X02806Y03371D01*
X03607Y03472D02*
X03611Y0348D01*
X03607Y03488D01*
X03615Y03484D01*
X03623Y03488D01*
X03619Y0348D01*
X03623Y03472D01*
X03615Y03476D01*
X03607Y03472D01*
X03611Y03476D02*
X03613Y0348D01*
X03611Y03484D01*
X03615Y03482D01*
X03619Y03484D01*
X03617Y0348D01*
X03619Y03476D01*
X03615Y03478D01*
X03611Y03476D01*
X02797Y03417D02*
X02801Y03425D01*
X02797Y03433D01*
X02805Y03429D01*
X02813Y03433D01*
X02809Y03425D01*
X02813Y03417D01*
X02805Y03421D01*
X02797Y03417D01*
X02801Y03421D02*
X02803Y03425D01*
X02801Y03429D01*
X02805Y03427D01*
X02809Y03429D01*
X02807Y03425D01*
X02809Y03421D01*
X02805Y03423D01*
X02801Y03421D01*
X01737Y02922D02*
X01741Y0293D01*
X01737Y02938D01*
X01745Y02934D01*
X01753Y02938D01*
X01749Y0293D01*
X01753Y02922D01*
X01745Y02926D01*
X01737Y02922D01*
X01741Y02926D02*
X01743Y0293D01*
X01741Y02934D01*
X01745Y02932D01*
X01749Y02934D01*
X01747Y0293D01*
X01749Y02926D01*
X01745Y02928D01*
X01741Y02926D01*
X01927Y03022D02*
X01931Y0303D01*
X01927Y03038D01*
X01935Y03034D01*
X01943Y03038D01*
X01939Y0303D01*
X01943Y03022D01*
X01935Y03026D01*
X01927Y03022D01*
X01931Y03026D02*
X01933Y0303D01*
X01931Y03034D01*
X01935Y03032D01*
X01939Y03034D01*
X01937Y0303D01*
X01939Y03026D01*
X01935Y03028D01*
X01931Y03026D01*
X01562Y03147D02*
X01566Y03155D01*
X01562Y03163D01*
X0157Y03159D01*
X01578Y03163D01*
X01574Y03155D01*
X01578Y03147D01*
X0157Y03151D01*
X01562Y03147D01*
X01566Y03151D02*
X01568Y03155D01*
X01566Y03159D01*
X0157Y03157D01*
X01574Y03159D01*
X01572Y03155D01*
X01574Y03151D01*
X0157Y03153D01*
X01566Y03151D01*
X01587Y03112D02*
X01591Y0312D01*
X01587Y03128D01*
X01595Y03124D01*
X01603Y03128D01*
X01599Y0312D01*
X01603Y03112D01*
X01595Y03116D01*
X01587Y03112D01*
X01591Y03116D02*
X01593Y0312D01*
X01591Y03124D01*
X01595Y03122D01*
X01599Y03124D01*
X01597Y0312D01*
X01599Y03116D01*
X01595Y03118D01*
X01591Y03116D01*
X01772Y03017D02*
X01776Y03025D01*
X01772Y03033D01*
X0178Y03029D01*
X01788Y03033D01*
X01784Y03025D01*
X01788Y03017D01*
X0178Y03021D01*
X01772Y03017D01*
X01776Y03021D02*
X01778Y03025D01*
X01776Y03029D01*
X0178Y03027D01*
X01784Y03029D01*
X01782Y03025D01*
X01784Y03021D01*
X0178Y03023D01*
X01776Y03021D01*
X02242Y03582D02*
X02246Y0359D01*
X02242Y03598D01*
X0225Y03594D01*
X02258Y03598D01*
X02254Y0359D01*
X02258Y03582D01*
X0225Y03586D01*
X02242Y03582D01*
X02246Y03586D02*
X02248Y0359D01*
X02246Y03594D01*
X0225Y03592D01*
X02254Y03594D01*
X02252Y0359D01*
X02254Y03586D01*
X0225Y03588D01*
X02246Y03586D01*
X02302Y03542D02*
X02306Y0355D01*
X02302Y03558D01*
X0231Y03554D01*
X02318Y03558D01*
X02314Y0355D01*
X02318Y03542D01*
X0231Y03546D01*
X02302Y03542D01*
X02306Y03546D02*
X02308Y0355D01*
X02306Y03554D01*
X0231Y03552D01*
X02314Y03554D01*
X02312Y0355D01*
X02314Y03546D01*
X0231Y03548D01*
X02306Y03546D01*
X02362Y03582D02*
X02366Y0359D01*
X02362Y03598D01*
X0237Y03594D01*
X02378Y03598D01*
X02374Y0359D01*
X02378Y03582D01*
X0237Y03586D01*
X02362Y03582D01*
X02366Y03586D02*
X02368Y0359D01*
X02366Y03594D01*
X0237Y03592D01*
X02374Y03594D01*
X02372Y0359D01*
X02374Y03586D01*
X0237Y03588D01*
X02366Y03586D01*
X02892Y04137D02*
X02896Y04145D01*
X02892Y04153D01*
X029Y04149D01*
X02908Y04153D01*
X02904Y04145D01*
X02908Y04137D01*
X029Y04141D01*
X02892Y04137D01*
X02896Y04141D02*
X02898Y04145D01*
X02896Y04149D01*
X029Y04147D01*
X02904Y04149D01*
X02902Y04145D01*
X02904Y04141D01*
X029Y04143D01*
X02896Y04141D01*
X02832Y04077D02*
X02836Y04085D01*
X02832Y04093D01*
X0284Y04089D01*
X02848Y04093D01*
X02844Y04085D01*
X02848Y04077D01*
X0284Y04081D01*
X02832Y04077D01*
X02836Y04081D02*
X02838Y04085D01*
X02836Y04089D01*
X0284Y04087D01*
X02844Y04089D01*
X02842Y04085D01*
X02844Y04081D01*
X0284Y04083D01*
X02836Y04081D01*
X03017Y03172D02*
X03021Y0318D01*
X03017Y03188D01*
X03025Y03184D01*
X03033Y03188D01*
X03029Y0318D01*
X03033Y03172D01*
X03025Y03176D01*
X03017Y03172D01*
X03021Y03176D02*
X03023Y0318D01*
X03021Y03184D01*
X03025Y03182D01*
X03029Y03184D01*
X03027Y0318D01*
X03029Y03176D01*
X03025Y03178D01*
X03021Y03176D01*
X03017Y03222D02*
X03021Y0323D01*
X03017Y03238D01*
X03025Y03234D01*
X03033Y03238D01*
X03029Y0323D01*
X03033Y03222D01*
X03025Y03226D01*
X03017Y03222D01*
X03021Y03226D02*
X03023Y0323D01*
X03021Y03234D01*
X03025Y03232D01*
X03029Y03234D01*
X03027Y0323D01*
X03029Y03226D01*
X03025Y03228D01*
X03021Y03226D01*
X03017Y03272D02*
X03021Y0328D01*
X03017Y03288D01*
X03025Y03284D01*
X03033Y03288D01*
X03029Y0328D01*
X03033Y03272D01*
X03025Y03276D01*
X03017Y03272D01*
X03021Y03276D02*
X03023Y0328D01*
X03021Y03284D01*
X03025Y03282D01*
X03029Y03284D01*
X03027Y0328D01*
X03029Y03276D01*
X03025Y03278D01*
X03021Y03276D01*
X02282Y03172D02*
X02286Y0318D01*
X02282Y03188D01*
X0229Y03184D01*
X02298Y03188D01*
X02294Y0318D01*
X02298Y03172D01*
X0229Y03176D01*
X02282Y03172D01*
X02286Y03176D02*
X02288Y0318D01*
X02286Y03184D01*
X0229Y03182D01*
X02294Y03184D01*
X02292Y0318D01*
X02294Y03176D01*
X0229Y03178D01*
X02286Y03176D01*
X02282Y03222D02*
X02286Y0323D01*
X02282Y03238D01*
X0229Y03234D01*
X02298Y03238D01*
X02294Y0323D01*
X02298Y03222D01*
X0229Y03226D01*
X02282Y03222D01*
X02286Y03226D02*
X02288Y0323D01*
X02286Y03234D01*
X0229Y03232D01*
X02294Y03234D01*
X02292Y0323D01*
X02294Y03226D01*
X0229Y03228D01*
X02286Y03226D01*
X03627Y03712D02*
X03631Y0372D01*
X03627Y03728D01*
X03635Y03724D01*
X03643Y03728D01*
X03639Y0372D01*
X03643Y03712D01*
X03635Y03716D01*
X03627Y03712D01*
X03631Y03716D02*
X03633Y0372D01*
X03631Y03724D01*
X03635Y03722D01*
X03639Y03724D01*
X03637Y0372D01*
X03639Y03716D01*
X03635Y03718D01*
X03631Y03716D01*
X02087Y04037D02*
X02091Y04045D01*
X02087Y04053D01*
X02095Y04049D01*
X02103Y04053D01*
X02099Y04045D01*
X02103Y04037D01*
X02095Y04041D01*
X02087Y04037D01*
X02091Y04041D02*
X02093Y04045D01*
X02091Y04049D01*
X02095Y04047D01*
X02099Y04049D01*
X02097Y04045D01*
X02099Y04041D01*
X02095Y04043D01*
X02091Y04041D01*
X02482Y04487D02*
X02486Y04495D01*
X02482Y04503D01*
X0249Y04499D01*
X02498Y04503D01*
X02494Y04495D01*
X02498Y04487D01*
X0249Y04491D01*
X02482Y04487D01*
X02486Y04491D02*
X02488Y04495D01*
X02486Y04499D01*
X0249Y04497D01*
X02494Y04499D01*
X02492Y04495D01*
X02494Y04491D01*
X0249Y04493D01*
X02486Y04491D01*
X02392Y04492D02*
X02396Y045D01*
X02392Y04508D01*
X024Y04504D01*
X02408Y04508D01*
X02404Y045D01*
X02408Y04492D01*
X024Y04496D01*
X02392Y04492D01*
X02396Y04496D02*
X02398Y045D01*
X02396Y04504D01*
X024Y04502D01*
X02404Y04504D01*
X02402Y045D01*
X02404Y04496D01*
X024Y04498D01*
X02396Y04496D01*
X01982Y04292D02*
X01986Y043D01*
X01982Y04308D01*
X0199Y04304D01*
X01998Y04308D01*
X01994Y043D01*
X01998Y04292D01*
X0199Y04296D01*
X01982Y04292D01*
X01986Y04296D02*
X01988Y043D01*
X01986Y04304D01*
X0199Y04302D01*
X01994Y04304D01*
X01992Y043D01*
X01994Y04296D01*
X0199Y04298D01*
X01986Y04296D01*
X01907Y04152D02*
X01911Y0416D01*
X01907Y04168D01*
X01915Y04164D01*
X01923Y04168D01*
X01919Y0416D01*
X01923Y04152D01*
X01915Y04156D01*
X01907Y04152D01*
X01911Y04156D02*
X01913Y0416D01*
X01911Y04164D01*
X01915Y04162D01*
X01919Y04164D01*
X01917Y0416D01*
X01919Y04156D01*
X01915Y04158D01*
X01911Y04156D01*
X03622Y02737D02*
Y02753D01*
X03638D01*
Y02737D01*
X03622D01*
Y028095D02*
Y028255D01*
X03638D01*
Y028095D01*
X03622D01*
Y02882D02*
Y02898D01*
X03638D01*
Y02882D01*
X03622D01*
X02112Y01387D02*
X02116Y01395D01*
X02112Y01403D01*
X0212Y01399D01*
X02128Y01403D01*
X02124Y01395D01*
X02128Y01387D01*
X0212Y01391D01*
X02112Y01387D01*
X02116Y01391D02*
X02118Y01395D01*
X02116Y01399D01*
X0212Y01397D01*
X02124Y01399D01*
X02122Y01395D01*
X02124Y01391D01*
X0212Y01393D01*
X02116Y01391D01*
X04267Y02507D02*
Y02523D01*
X04283D01*
Y02507D01*
X04267D01*
Y02582D02*
Y02598D01*
X04283D01*
Y02582D01*
X04267D01*
Y02652D02*
Y02668D01*
X04283D01*
Y02652D01*
X04267D01*
Y02712D02*
Y02728D01*
X04283D01*
Y02712D01*
X04267D01*
Y02772D02*
Y02788D01*
X04283D01*
Y02772D01*
X04267D01*
Y02837D02*
Y02853D01*
X04283D01*
Y02837D01*
X04267D01*
Y02897D02*
Y02913D01*
X04283D01*
Y02897D01*
X04267D01*
X04017Y02712D02*
Y02728D01*
X04033D01*
Y02712D01*
X04017D01*
Y02657D02*
Y02673D01*
X04033D01*
Y02657D01*
X04017D01*
X04012Y02602D02*
Y02618D01*
X04028D01*
Y02602D01*
X04012D01*
Y02557D02*
Y02573D01*
X04028D01*
Y02557D01*
X04012D01*
Y02512D02*
Y02528D01*
X04028D01*
Y02512D01*
X04012D01*
X04057Y02557D02*
Y02573D01*
X04073D01*
Y02557D01*
X04057D01*
Y02607D02*
Y02623D01*
X04073D01*
Y02607D01*
X04057D01*
Y02657D02*
Y02673D01*
X04073D01*
Y02657D01*
X04057D01*
Y02707D02*
Y02723D01*
X04073D01*
Y02707D01*
X04057D01*
X01677Y01047D02*
Y01063D01*
X01693D01*
Y01047D01*
X01677D01*
X01752D02*
Y01063D01*
X01768D01*
Y01047D01*
X01752D01*
X01827D02*
Y01063D01*
X01843D01*
Y01047D01*
X01827D01*
X01902D02*
Y01063D01*
X01918D01*
Y01047D01*
X01902D01*
X01977D02*
Y01063D01*
X01993D01*
Y01047D01*
X01977D01*
Y01112D02*
Y01128D01*
X01993D01*
Y01112D01*
X01977D01*
X01902D02*
Y01128D01*
X01918D01*
Y01112D01*
X01902D01*
X01827D02*
Y01128D01*
X01843D01*
Y01112D01*
X01827D01*
X01752D02*
Y01128D01*
X01768D01*
Y01112D01*
X01752D01*
X01677D02*
Y01128D01*
X01693D01*
Y01112D01*
X01677D01*
Y01177D02*
Y01193D01*
X01693D01*
Y01177D01*
X01677D01*
X01752D02*
Y01193D01*
X01768D01*
Y01177D01*
X01752D01*
X01827D02*
Y01193D01*
X01843D01*
Y01177D01*
X01827D01*
X01902D02*
Y01193D01*
X01918D01*
Y01177D01*
X01902D01*
X01977D02*
Y01193D01*
X01993D01*
Y01177D01*
X01977D01*
X01842Y01742D02*
Y01758D01*
X01858D01*
Y01742D01*
X01842D01*
X02292Y01442D02*
X02296Y0145D01*
X02292Y01458D01*
X023Y01454D01*
X02308Y01458D01*
X02304Y0145D01*
X02308Y01442D01*
X023Y01446D01*
X02292Y01442D01*
X02296Y01446D02*
X02298Y0145D01*
X02296Y01454D01*
X023Y01452D01*
X02304Y01454D01*
X02302Y0145D01*
X02304Y01446D01*
X023Y01448D01*
X02296Y01446D01*
X02257Y01472D02*
X02261Y0148D01*
X02257Y01488D01*
X02265Y01484D01*
X02273Y01488D01*
X02269Y0148D01*
X02273Y01472D01*
X02265Y01476D01*
X02257Y01472D01*
X02261Y01476D02*
X02263Y0148D01*
X02261Y01484D01*
X02265Y01482D01*
X02269Y01484D01*
X02267Y0148D01*
X02269Y01476D01*
X02265Y01478D01*
X02261Y01476D01*
X02307Y01797D02*
X02311Y01805D01*
X02307Y01813D01*
X02315Y01809D01*
X02323Y01813D01*
X02319Y01805D01*
X02323Y01797D01*
X02315Y01801D01*
X02307Y01797D01*
X02311Y01801D02*
X02313Y01805D01*
X02311Y01809D01*
X02315Y01807D01*
X02319Y01809D01*
X02317Y01805D01*
X02319Y01801D01*
X02315Y01803D01*
X02311Y01801D01*
X02357Y01742D02*
X02361Y0175D01*
X02357Y01758D01*
X02365Y01754D01*
X02373Y01758D01*
X02369Y0175D01*
X02373Y01742D01*
X02365Y01746D01*
X02357Y01742D01*
X02361Y01746D02*
X02363Y0175D01*
X02361Y01754D01*
X02365Y01752D01*
X02369Y01754D01*
X02367Y0175D01*
X02369Y01746D01*
X02365Y01748D01*
X02361Y01746D01*
X03192Y01102D02*
X03196Y0111D01*
X03192Y01118D01*
X032Y01114D01*
X03208Y01118D01*
X03204Y0111D01*
X03208Y01102D01*
X032Y01106D01*
X03192Y01102D01*
X03196Y01106D02*
X03198Y0111D01*
X03196Y01114D01*
X032Y01112D01*
X03204Y01114D01*
X03202Y0111D01*
X03204Y01106D01*
X032Y01108D01*
X03196Y01106D01*
X02195Y015801D02*
Y015961D01*
X02211D01*
Y015801D01*
X02195D01*
X021627Y015804D02*
Y015964D01*
X021787D01*
Y015804D01*
X021627D01*
X021788Y01606D02*
Y01622D01*
X021948D01*
Y01606D01*
X021788D01*
X021777Y014993D02*
Y015153D01*
X021937D01*
Y014993D01*
X021777D01*
X021937Y015248D02*
Y015408D01*
X022097D01*
Y015248D01*
X021937D01*
X021614Y015252D02*
Y015412D01*
X021774D01*
Y015252D01*
X021614D01*
X01552Y01397D02*
X01556Y01405D01*
X01552Y01413D01*
X0156Y01409D01*
X01568Y01413D01*
X01564Y01405D01*
X01568Y01397D01*
X0156Y01401D01*
X01552Y01397D01*
X01556Y01401D02*
X01558Y01405D01*
X01556Y01409D01*
X0156Y01407D01*
X01564Y01409D01*
X01562Y01405D01*
X01564Y01401D01*
X0156Y01403D01*
X01556Y01401D01*
X01602Y01352D02*
X01606Y0136D01*
X01602Y01368D01*
X0161Y01364D01*
X01618Y01368D01*
X01614Y0136D01*
X01618Y01352D01*
X0161Y01356D01*
X01602Y01352D01*
X01606Y01356D02*
X01608Y0136D01*
X01606Y01364D01*
X0161Y01362D01*
X01614Y01364D01*
X01612Y0136D01*
X01614Y01356D01*
X0161Y01358D01*
X01606Y01356D01*
X01852Y01342D02*
Y01358D01*
X01868D01*
Y01342D01*
X01852D01*
X020748Y01639D02*
Y01655D01*
X020908D01*
Y01639D01*
X020748D01*
X02077Y01707D02*
Y01723D01*
X02093D01*
Y01707D01*
X02077D01*
X01977Y01632D02*
Y01648D01*
X01993D01*
Y01632D01*
X01977D01*
X01952Y01522D02*
Y01538D01*
X01968D01*
Y01522D01*
X01952D01*
X019683Y015516D02*
Y015676D01*
X019843D01*
Y015516D01*
X019683D01*
D116*
X01138Y041878D02*
G03*
X01138Y041878I-00008J0D01*
G01*
Y039122D02*
G03*
X01138Y039122I-00008J0D01*
G01*
X04063Y030716D02*
G03*
X04063Y030716I-00008J0D01*
G01*
Y032684D02*
G03*
X04063Y032684I-00008J0D01*
G01*
D117*
X04059Y030716D02*
G03*
X04059Y030716I-00004J0D01*
G01*
Y032684D02*
G03*
X04059Y032684I-00004J0D01*
G01*
M02*
