G04*
G04 #@! TF.GenerationSoftware,Altium Limited,Altium Designer,21.3.2 (30)*
G04*
G04 Layer_Physical_Order=2*
G04 Layer_Color=16711680*
%FSTAX24Y24*%
%MOIN*%
G70*
G04*
G04 #@! TF.SameCoordinates,AAB4DB19-2E37-4297-9B89-C5A600987651*
G04*
G04*
G04 #@! TF.FilePolarity,Positive*
G04*
G01*
G75*
%ADD10C,0.0079*%
%ADD18R,0.0394X0.0382*%
%ADD24R,0.0374X0.0394*%
%ADD31R,0.0394X0.0374*%
%ADD68O,0.0610X0.0305*%
%ADD88C,0.0138*%
%ADD89C,0.0394*%
%ADD91C,0.0236*%
%ADD92O,0.0374X0.0512*%
%ADD93O,0.1200X0.0600*%
%ADD94R,0.0620X0.0620*%
%ADD95C,0.0620*%
%ADD96R,0.0551X0.0551*%
%ADD97C,0.0551*%
%ADD98C,0.1110*%
%ADD99C,0.0787*%
%ADD100R,0.0787X0.0787*%
%ADD101C,0.1378*%
%ADD102O,0.1000X0.1600*%
%ADD103O,0.1600X0.1000*%
%ADD104C,0.0515*%
%ADD105R,0.0515X0.0515*%
%ADD106C,0.0594*%
%ADD107R,0.0594X0.0594*%
%ADD108C,0.0394*%
%ADD109C,0.0276*%
%ADD110R,0.0461X0.0709*%
G04:AMPARAMS|DCode=111|XSize=23.6mil|YSize=9.4mil|CornerRadius=1.2mil|HoleSize=0mil|Usage=FLASHONLY|Rotation=0.000|XOffset=0mil|YOffset=0mil|HoleType=Round|Shape=RoundedRectangle|*
%AMROUNDEDRECTD111*
21,1,0.0236,0.0071,0,0,0.0*
21,1,0.0213,0.0094,0,0,0.0*
1,1,0.0024,0.0106,-0.0035*
1,1,0.0024,-0.0106,-0.0035*
1,1,0.0024,-0.0106,0.0035*
1,1,0.0024,0.0106,0.0035*
%
%ADD111ROUNDEDRECTD111*%
G04:AMPARAMS|DCode=112|XSize=65mil|YSize=94.5mil|CornerRadius=1.6mil|HoleSize=0mil|Usage=FLASHONLY|Rotation=0.000|XOffset=0mil|YOffset=0mil|HoleType=Round|Shape=RoundedRectangle|*
%AMROUNDEDRECTD112*
21,1,0.0650,0.0912,0,0,0.0*
21,1,0.0617,0.0945,0,0,0.0*
1,1,0.0032,0.0309,-0.0456*
1,1,0.0032,-0.0309,-0.0456*
1,1,0.0032,-0.0309,0.0456*
1,1,0.0032,0.0309,0.0456*
%
%ADD112ROUNDEDRECTD112*%
G36*
X042572Y045478D02*
Y045478D01*
X0426Y045338D01*
X042655Y045205D01*
X042734Y045086D01*
X042836Y044984D01*
X042955Y044905D01*
X043088Y04485D01*
X043228Y044822D01*
X043228D01*
X0439Y04415D01*
Y02405D01*
Y0133D01*
X0408Y0102D01*
X01285D01*
X01205Y011D01*
Y0119D01*
X01045Y0135D01*
Y0169D01*
X0109Y01735D01*
X0127D01*
X01295Y0171D01*
Y01475D01*
X0135Y0142D01*
X0161Y0142D01*
X01635Y01395D01*
X01635Y0124D01*
X0165Y01225D01*
X01935Y01225D01*
X02015Y01305D01*
Y014321D01*
X020294Y014465D01*
Y015152D01*
X020275D01*
Y016096D01*
X020294D01*
Y016238D01*
X020584Y016528D01*
Y017149D01*
X020723Y017288D01*
X021066D01*
X021162Y017192D01*
Y016608D01*
X020964Y01641D01*
Y015086D01*
X0211Y01495D01*
X021251D01*
X021614Y014587D01*
Y014239D01*
X022086D01*
Y014239D01*
X022119Y014252D01*
X022414Y013958D01*
Y013609D01*
X022886D01*
Y014061D01*
X022537D01*
X022086Y014512D01*
Y014691D01*
X021737D01*
X021524Y014904D01*
X021543Y01495D01*
X02167D01*
X021717Y014903D01*
X021748Y014891D01*
X022077D01*
X022107Y014903D01*
X022154Y01495D01*
X026533D01*
X028727Y012756D01*
Y01153D01*
X029007Y01125D01*
X0394D01*
X0399Y01175D01*
Y023929D01*
X039881Y023948D01*
Y024812D01*
X039855D01*
X039067Y0256D01*
X0142D01*
X014196Y025604D01*
X010691D01*
Y04315D01*
X0133Y045759D01*
X022023D01*
X022038Y045709D01*
X02198Y04567D01*
X020749Y04444D01*
X020745Y044441D01*
X01845D01*
X018358Y044423D01*
X01828Y04437D01*
X01788Y04397D01*
X017827Y043892D01*
X017809Y0438D01*
Y04285D01*
X01778Y04282D01*
X01778Y04282D01*
X01598Y04102D01*
X015927Y040942D01*
X015909Y04085D01*
Y03655D01*
Y0337D01*
X015927Y033608D01*
X01598Y03353D01*
X01604Y03349D01*
Y032546D01*
X01532Y031827D01*
X015297Y031836D01*
X015203D01*
X015135Y031808D01*
X015106Y03185D01*
X015128Y031872D01*
X015152Y031908D01*
X01516Y03195D01*
Y03965D01*
X015152Y039692D01*
X015128Y039728D01*
X013728Y041128D01*
X013692Y041152D01*
X01365Y04116D01*
X01304D01*
X013Y0412D01*
X012935Y041227D01*
X012865D01*
X0128Y0412D01*
X01275Y04115D01*
X012723Y041085D01*
Y041015D01*
X01275Y04095D01*
X0128Y0409D01*
X012865Y040873D01*
X012935D01*
X013Y0409D01*
X01304Y04094D01*
X013604D01*
X01494Y039604D01*
Y031996D01*
X014104Y03116D01*
X01136D01*
X01135Y031184D01*
X011284Y03125D01*
X011197Y031286D01*
X011103D01*
X011016Y03125D01*
X01095Y031184D01*
X010914Y031097D01*
Y031003D01*
X01095Y030916D01*
X011016Y03085D01*
X011103Y030814D01*
X011197D01*
X011284Y03085D01*
X01135Y030916D01*
X01136Y03094D01*
X01415D01*
X014192Y030948D01*
X014228Y030972D01*
X015Y031744D01*
X015042Y031715D01*
X015014Y031647D01*
Y031553D01*
X01505Y031466D01*
X015116Y0314D01*
X015203Y031364D01*
X015297D01*
X015384Y0314D01*
X01545Y031466D01*
X015486Y031553D01*
Y031647D01*
X015477Y03167D01*
X016228Y032422D01*
X016252Y032458D01*
X01626Y0325D01*
Y03348D01*
X021871D01*
X021963Y033499D01*
X022041Y033551D01*
X0228Y034309D01*
X0246D01*
X024692Y034327D01*
X02477Y03438D01*
X02485Y034459D01*
X027961D01*
X027971Y034409D01*
X02795Y0344D01*
X0279Y03435D01*
X027873Y034285D01*
Y034215D01*
X0279Y03415D01*
X02795Y0341D01*
X028015Y034073D01*
X028085D01*
X02815Y0341D01*
X02819Y03414D01*
X0356D01*
X035642Y034148D01*
X035678Y034172D01*
X036129Y034623D01*
X036185D01*
X03625Y03465D01*
X0363Y0347D01*
X036327Y034765D01*
Y034835D01*
X0363Y0349D01*
X03625Y03495D01*
X036185Y034977D01*
X036115D01*
X03605Y03495D01*
X036Y0349D01*
X035973Y034835D01*
Y034779D01*
X035554Y03436D01*
X02819D01*
X02815Y0344D01*
X028129Y034409D01*
X028139Y034459D01*
X0314D01*
X031423Y034464D01*
X031447D01*
X031469Y034473D01*
X031492Y034477D01*
X031512Y034491D01*
X031534Y0345D01*
X031551Y034517D01*
X03157Y03453D01*
X031583Y034549D01*
X0316Y034566D01*
X031609Y034588D01*
X031623Y034608D01*
X031627Y034631D01*
X031636Y034653D01*
Y034677D01*
X031641Y0347D01*
X031636Y034723D01*
Y034747D01*
X031627Y034769D01*
X031623Y034792D01*
X031609Y034812D01*
X0316Y034834D01*
X031583Y034851D01*
X03157Y03487D01*
X031551Y034883D01*
X031534Y0349D01*
X031512Y034909D01*
X031492Y034923D01*
X031469Y034927D01*
X031447Y034936D01*
X031423D01*
X0314Y034941D01*
X02475D01*
X024658Y034923D01*
X02458Y03487D01*
X0245Y034791D01*
X0227D01*
X022608Y034773D01*
X02253Y03472D01*
X021771Y033962D01*
X016391D01*
Y03655D01*
Y04075D01*
X01812Y04248D01*
X01812Y04248D01*
X01822Y04258D01*
X018273Y042658D01*
X018291Y04275D01*
Y0437D01*
X01855Y043959D01*
X020709D01*
Y04335D01*
X020709Y04335D01*
Y04045D01*
X020727Y040358D01*
X02078Y04028D01*
X020858Y040227D01*
X02095Y040209D01*
X021042Y040227D01*
X02112Y04028D01*
X021173Y040358D01*
X021191Y04045D01*
Y04335D01*
X021191Y04335D01*
Y0442D01*
X02225Y045259D01*
X026684D01*
X027121Y044823D01*
X027199Y04477D01*
X027291Y044752D01*
X027383Y04477D01*
X027461Y044823D01*
X027514Y044901D01*
X027532Y044993D01*
X027514Y045085D01*
X027461Y045163D01*
X026954Y04567D01*
X026896Y045709D01*
X026911Y045759D01*
X03635D01*
X038059Y04405D01*
Y04185D01*
X038064Y041827D01*
Y041803D01*
X038073Y041781D01*
X038077Y041758D01*
X038091Y041738D01*
X0381Y041716D01*
X038117Y041699D01*
X03813Y04168D01*
X038149Y041667D01*
X038166Y04165D01*
X038188Y041641D01*
X038208Y041627D01*
X038231Y041623D01*
X038253Y041614D01*
X038277D01*
X0383Y041609D01*
X038323Y041614D01*
X038347D01*
X038369Y041623D01*
X038392Y041627D01*
X038412Y041641D01*
X038434Y04165D01*
X038451Y041667D01*
X03847Y04168D01*
X038483Y041699D01*
X0385Y041716D01*
X038509Y041738D01*
X038523Y041758D01*
X038527Y041781D01*
X038536Y041803D01*
Y041827D01*
X038541Y04185D01*
Y04415D01*
X038523Y044242D01*
X03847Y04432D01*
X03662Y04617D01*
X036542Y046223D01*
X03645Y046241D01*
X0132D01*
X013108Y046223D01*
X01303Y04617D01*
X01028Y04342D01*
X01025Y043376D01*
X0102Y043391D01*
Y0443D01*
X010731Y044831D01*
X010778Y044822D01*
X010922D01*
X011062Y04485D01*
X011195Y044905D01*
X011314Y044984D01*
X011416Y045086D01*
X011495Y045205D01*
X01155Y045338D01*
X011578Y045478D01*
Y045622D01*
X011569Y045669D01*
X0122Y0463D01*
X04175D01*
X042572Y045478D01*
D02*
G37*
G36*
X030094Y024356D02*
Y022321D01*
X029793Y02202D01*
X029415D01*
X02924Y022195D01*
Y023098D01*
X029088Y02325D01*
X026927D01*
X025823Y022147D01*
X019281D01*
X01865Y021515D01*
Y02045D01*
X0184Y0202D01*
X0179D01*
X0172Y0195D01*
Y0153D01*
X0173Y0152D01*
Y0144D01*
X01815Y01355D01*
Y01265D01*
X0179Y0124D01*
X01705D01*
X0168Y01265D01*
Y0142D01*
X0165Y0145D01*
X0157D01*
X01565Y01455D01*
Y015D01*
X01575Y0151D01*
X01615D01*
X01635Y0153D01*
Y02045D01*
Y02155D01*
Y02405D01*
X01695Y02465D01*
X0298D01*
X030094Y024356D01*
D02*
G37*
G36*
X03955Y024D02*
Y0122D01*
X03915Y0118D01*
X0352D01*
X0348Y0122D01*
Y0163D01*
X03385Y01725D01*
X03075D01*
X02885Y01915D01*
Y019637D01*
X028896Y019657D01*
X028896Y019657D01*
X029025Y019537D01*
X028935Y019627D01*
X028867Y019695D01*
X028867Y019743D01*
Y020445D01*
X029162Y02074D01*
X032319D01*
X036029Y02445D01*
X0391D01*
X03955Y024D01*
D02*
G37*
G36*
X031783Y023243D02*
Y021662D01*
X031213Y021092D01*
X028892D01*
X02825Y02045D01*
X02825Y018704D01*
X029772Y017182D01*
X030848Y016106D01*
Y014201D01*
X029719Y013073D01*
X029719Y011719D01*
X02955Y01155D01*
X02905D01*
X02884Y01176D01*
X02884Y013271D01*
X026886Y015226D01*
X022524D01*
X022206Y015544D01*
X021305D01*
X021263Y015585D01*
X021042D01*
X021037Y015635D01*
X021078Y015678D01*
X021279D01*
X021317Y015715D01*
X022213D01*
X022276Y015778D01*
Y015932D01*
X022381Y016037D01*
X026158Y016037D01*
X026573Y016452D01*
Y020568D01*
X027789Y021784D01*
X030053D01*
X030221Y021952D01*
Y023094D01*
X030614Y023486D01*
X03154D01*
X031783Y023243D01*
D02*
G37*
G36*
X02215Y01625D02*
X02215Y015805D01*
X022113Y015768D01*
X021044D01*
X021018Y015772D01*
Y015876D01*
X021035Y015893D01*
X021343D01*
X02175Y0163D01*
X0221D01*
X02215Y01625D01*
D02*
G37*
G36*
X0161Y01695D02*
Y0154D01*
X01595Y01525D01*
X01555D01*
X0153Y015D01*
Y01455D01*
X01525Y0145D01*
X01375D01*
X01355Y0147D01*
Y016239D01*
X0136Y016259D01*
X01448Y01538D01*
X014558Y015327D01*
X01465Y015309D01*
X014742Y015327D01*
X01482Y01538D01*
X014873Y015458D01*
X014891Y01555D01*
X014873Y015642D01*
X01482Y01572D01*
X013991Y01655D01*
Y01705D01*
X016D01*
X0161Y01695D01*
D02*
G37*
G36*
X02208Y015481D02*
X022144Y015417D01*
Y015D01*
X022077Y014933D01*
X021748D01*
X021642Y015039D01*
X021321Y015355D01*
X021046D01*
X021028Y015373D01*
Y015481D01*
X021576D01*
X02208Y015481D01*
D02*
G37*
G36*
X020206Y01527D02*
Y015076D01*
X020146Y015017D01*
X020017D01*
X019825Y014825D01*
Y014485D01*
X019747Y014407D01*
X017474D01*
X017393Y014509D01*
Y015043D01*
X01745Y0151D01*
X01975D01*
X019957Y015307D01*
X020168Y015307D01*
X020206Y01527D01*
D02*
G37*
G36*
X0199Y01415D02*
Y01315D01*
X01975Y013D01*
X01845D01*
X0183Y01315D01*
Y0137D01*
X01815Y01385D01*
Y0142D01*
X01825Y0143D01*
X01975D01*
X0199Y01415D01*
D02*
G37*
%LPC*%
G36*
X040646Y043684D02*
X040554D01*
X040465Y04366D01*
X040385Y043614D01*
X04032Y043549D01*
X040274Y043469D01*
X040251Y04338D01*
Y043288D01*
X040274Y043199D01*
X04032Y04312D01*
X040385Y043055D01*
X040465Y043009D01*
X040554Y042985D01*
X040646D01*
X040735Y043009D01*
X040815Y043055D01*
X04088Y04312D01*
X040926Y043199D01*
X040949Y043288D01*
Y04338D01*
X040926Y043469D01*
X04088Y043549D01*
X040815Y043614D01*
X040735Y04366D01*
X040646Y043684D01*
D02*
G37*
G36*
X018385Y042527D02*
X018315D01*
X01825Y0425D01*
X0182Y04245D01*
X018173Y042385D01*
Y042315D01*
X0182Y04225D01*
X01825Y0422D01*
X018315Y042173D01*
X018385D01*
X01845Y0422D01*
X0185Y04225D01*
X018527Y042315D01*
Y042385D01*
X0185Y04245D01*
X01845Y0425D01*
X018385Y042527D01*
D02*
G37*
G36*
X040949Y042699D02*
X040251D01*
Y042001D01*
X040949D01*
Y042699D01*
D02*
G37*
G36*
X026735Y043727D02*
X026665D01*
X0266Y0437D01*
X02655Y04365D01*
X026523Y043585D01*
Y043515D01*
X02655Y04345D01*
X02659Y04341D01*
Y04229D01*
X02655Y04225D01*
X026523Y042185D01*
Y042115D01*
X02655Y04205D01*
X0266Y042D01*
X026665Y041973D01*
X026735D01*
X0268Y042D01*
X02685Y04205D01*
X026877Y042115D01*
Y042185D01*
X02685Y04225D01*
X02681Y04229D01*
Y04341D01*
X02685Y04345D01*
X026877Y043515D01*
Y043585D01*
X02685Y04365D01*
X0268Y0437D01*
X026735Y043727D01*
D02*
G37*
G36*
X011453Y042074D02*
X011147D01*
X011073Y042059D01*
X011009Y042016D01*
X010967Y041953D01*
X010952Y041878D01*
X010967Y041803D01*
X011009Y04174D01*
X011073Y041697D01*
X011147Y041682D01*
X011453D01*
X011527Y041697D01*
X011591Y04174D01*
X011633Y041803D01*
X011648Y041878D01*
X011633Y041953D01*
X011591Y042016D01*
X011527Y042059D01*
X011453Y042074D01*
D02*
G37*
G36*
X019935Y043177D02*
X019865D01*
X0198Y04315D01*
X01975Y0431D01*
X019723Y043035D01*
Y042979D01*
X019072Y042328D01*
X019048Y042292D01*
X01904Y04225D01*
Y04174D01*
X019Y0417D01*
X018973Y041635D01*
Y041565D01*
X019Y0415D01*
X01905Y04145D01*
X019115Y041423D01*
X019185D01*
X01925Y04145D01*
X0193Y0415D01*
X019327Y041565D01*
Y041635D01*
X0193Y0417D01*
X01926Y04174D01*
Y042204D01*
X019879Y042823D01*
X019935D01*
X02Y04285D01*
X02005Y0429D01*
X020077Y042965D01*
Y043035D01*
X02005Y0431D01*
X02Y04315D01*
X019935Y043177D01*
D02*
G37*
G36*
X012363Y041784D02*
X012275Y041766D01*
X0122Y041716D01*
X01215Y041641D01*
X012132Y041553D01*
Y041415D01*
X01215Y041327D01*
X0122Y041252D01*
X012275Y041202D01*
X012363Y041185D01*
X012451Y041202D01*
X012526Y041252D01*
X012576Y041327D01*
X012594Y041415D01*
Y041553D01*
X012576Y041641D01*
X012526Y041716D01*
X012451Y041766D01*
X012363Y041784D01*
D02*
G37*
G36*
X029035Y041627D02*
X028965D01*
X0289Y0416D01*
X02885Y04155D01*
X028823Y041485D01*
Y041429D01*
X028421Y041027D01*
X028365D01*
X0283Y041D01*
X02825Y04095D01*
X028223Y040885D01*
Y040815D01*
X02825Y04075D01*
X0283Y0407D01*
X028365Y040673D01*
X028435D01*
X0285Y0407D01*
X02855Y04075D01*
X028577Y040815D01*
Y040871D01*
X028979Y041273D01*
X029035D01*
X0291Y0413D01*
X02915Y04135D01*
X029177Y041415D01*
Y041485D01*
X02915Y04155D01*
X0291Y0416D01*
X029035Y041627D01*
D02*
G37*
G36*
X012363Y039815D02*
X012275Y039798D01*
X0122Y039748D01*
X01215Y039673D01*
X012132Y039585D01*
Y039447D01*
X01215Y039359D01*
X0122Y039284D01*
X012275Y039234D01*
X012363Y039216D01*
X012451Y039234D01*
X012526Y039284D01*
X012576Y039359D01*
X012594Y039447D01*
Y039585D01*
X012576Y039673D01*
X012526Y039748D01*
X012451Y039798D01*
X012363Y039815D01*
D02*
G37*
G36*
X011453Y039318D02*
X011147D01*
X011073Y039303D01*
X011009Y03926D01*
X010967Y039197D01*
X010952Y039122D01*
X010967Y039047D01*
X011009Y038984D01*
X011073Y038941D01*
X011147Y038926D01*
X011453D01*
X011527Y038941D01*
X011591Y038984D01*
X011633Y039047D01*
X011648Y039122D01*
X011633Y039197D01*
X011591Y03926D01*
X011527Y039303D01*
X011453Y039318D01*
D02*
G37*
G36*
X024185Y042027D02*
X024115D01*
X02405Y042D01*
X024Y04195D01*
X023973Y041885D01*
Y041815D01*
X024Y04175D01*
X02404Y04171D01*
Y03924D01*
X024Y0392D01*
X023973Y039135D01*
Y039065D01*
X024Y039D01*
X02405Y03895D01*
X024115Y038923D01*
X024185D01*
X02425Y03895D01*
X0243Y039D01*
X024327Y039065D01*
Y039135D01*
X0243Y0392D01*
X02426Y03924D01*
Y04171D01*
X0243Y04175D01*
X024327Y041815D01*
Y041885D01*
X0243Y04195D01*
X02425Y042D01*
X024185Y042027D01*
D02*
G37*
G36*
X041935Y038377D02*
X041865D01*
X0418Y03835D01*
X04175Y0383D01*
X041723Y038235D01*
Y038165D01*
X04175Y0381D01*
X0418Y03805D01*
X041865Y038023D01*
X041935D01*
X042Y03805D01*
X04205Y0381D01*
X042077Y038165D01*
Y038235D01*
X04205Y0383D01*
X042Y03835D01*
X041935Y038377D01*
D02*
G37*
G36*
X041339Y036792D02*
X041247D01*
X041158Y036768D01*
X041079Y036722D01*
X041014Y036657D01*
X040968Y036577D01*
X040944Y036488D01*
Y036396D01*
X040968Y036307D01*
X041014Y036228D01*
X041079Y036163D01*
X041158Y036117D01*
X041247Y036093D01*
X041339D01*
X041428Y036117D01*
X041508Y036163D01*
X041573Y036228D01*
X041619Y036307D01*
X041643Y036396D01*
Y036488D01*
X041619Y036577D01*
X041573Y036657D01*
X041508Y036722D01*
X041428Y036768D01*
X041339Y036792D01*
D02*
G37*
G36*
X022335Y042577D02*
X022265D01*
X0222Y04255D01*
X02215Y0425D01*
X022123Y042435D01*
Y042379D01*
X022072Y042328D01*
X022048Y042292D01*
X02204Y04225D01*
Y036446D01*
X021088Y035495D01*
X021046Y035523D01*
X021057Y035549D01*
Y035605D01*
X021878Y036426D01*
X021902Y036462D01*
X02191Y036504D01*
Y04081D01*
X02195Y04085D01*
X021977Y040915D01*
Y040985D01*
X02195Y04105D01*
X0219Y0411D01*
X021835Y041127D01*
X021765D01*
X0217Y0411D01*
X02165Y04105D01*
X021623Y040985D01*
Y040915D01*
X02165Y04085D01*
X02169Y04081D01*
Y03655D01*
X020901Y035761D01*
X020844D01*
X020779Y035734D01*
X020729Y035684D01*
X020702Y035619D01*
Y035563D01*
X020372Y035232D01*
X020348Y035197D01*
X02034Y035154D01*
Y0348D01*
X020348Y034758D01*
X020372Y034722D01*
X020622Y034472D01*
X020658Y034448D01*
X0207Y03444D01*
X02105D01*
X021092Y034448D01*
X021128Y034472D01*
X021796Y03514D01*
X027535D01*
X027577Y035148D01*
X027613Y035172D01*
X029129Y036688D01*
X029152Y036678D01*
X029246D01*
X029333Y036714D01*
X0294Y03678D01*
X029436Y036867D01*
Y036961D01*
X0294Y037048D01*
X029333Y037114D01*
X029246Y03715D01*
X029152D01*
X029065Y037114D01*
X028999Y037048D01*
X028963Y036961D01*
Y036867D01*
X028973Y036844D01*
X027489Y03536D01*
X02175D01*
X021708Y035352D01*
X021672Y035328D01*
X021004Y03466D01*
X020746D01*
X02056Y034846D01*
Y035109D01*
X020691Y035239D01*
X020734Y035211D01*
X020723Y035185D01*
Y035115D01*
X02075Y03505D01*
X0208Y035D01*
X020865Y034973D01*
X020935D01*
X021Y035D01*
X02105Y03505D01*
X021077Y035115D01*
Y035171D01*
X022228Y036322D01*
X022252Y036358D01*
X02226Y0364D01*
Y042204D01*
X022279Y042223D01*
X022335D01*
X0224Y04225D01*
X02245Y0423D01*
X022477Y042365D01*
Y042435D01*
X02245Y0425D01*
X0224Y04255D01*
X022335Y042577D01*
D02*
G37*
G36*
X041643Y035807D02*
X040944D01*
Y035108D01*
X041643D01*
Y035807D01*
D02*
G37*
G36*
X01428Y035252D02*
X01368D01*
X013591Y035241D01*
X013509Y035206D01*
X013438Y035152D01*
X013384Y035081D01*
X013349Y034999D01*
X013338Y03491D01*
X013349Y034821D01*
X013384Y034739D01*
X013438Y034668D01*
X013509Y034614D01*
X013591Y034579D01*
X01368Y034568D01*
X01428D01*
X014369Y034579D01*
X014451Y034614D01*
X014522Y034668D01*
X014576Y034739D01*
X014611Y034821D01*
X014622Y03491D01*
X014611Y034999D01*
X014576Y035081D01*
X014522Y035152D01*
X014451Y035206D01*
X014369Y035241D01*
X01428Y035252D01*
D02*
G37*
G36*
X01172D02*
X01112D01*
X011031Y035241D01*
X010949Y035206D01*
X010878Y035152D01*
X010824Y035081D01*
X010789Y034999D01*
X010778Y03491D01*
X010789Y034821D01*
X010824Y034739D01*
X010878Y034668D01*
X010949Y034614D01*
X011031Y034579D01*
X01112Y034568D01*
X01172D01*
X011809Y034579D01*
X011891Y034614D01*
X011962Y034668D01*
X012016Y034739D01*
X012051Y034821D01*
X012062Y03491D01*
X012051Y034999D01*
X012016Y035081D01*
X011962Y035152D01*
X011891Y035206D01*
X011809Y035241D01*
X01172Y035252D01*
D02*
G37*
G36*
X036714Y036892D02*
X036643D01*
X036578Y036865D01*
X036528Y036815D01*
X036501Y03675D01*
Y036679D01*
X036528Y036614D01*
X036578Y036564D01*
X036643Y036537D01*
X036706D01*
X03684Y036404D01*
Y035096D01*
X035604Y03386D01*
X02824D01*
X0282Y0339D01*
X028135Y033927D01*
X028065D01*
X028Y0339D01*
X02795Y03385D01*
X027923Y033785D01*
Y033715D01*
X02795Y03365D01*
X028Y0336D01*
X028065Y033573D01*
X028135D01*
X0282Y0336D01*
X02824Y03364D01*
X03565D01*
X035692Y033648D01*
X035728Y033672D01*
X037028Y034972D01*
X037052Y035008D01*
X03706Y03505D01*
Y03645D01*
X037052Y036492D01*
X037028Y036528D01*
X036856Y0367D01*
Y03675D01*
X036829Y036815D01*
X036779Y036865D01*
X036714Y036892D01*
D02*
G37*
G36*
X037459Y037878D02*
X037365D01*
X037278Y037842D01*
X037212Y037775D01*
X037176Y037689D01*
Y037595D01*
X037186Y037571D01*
X037172Y037557D01*
X037148Y037522D01*
X03714Y037479D01*
Y034996D01*
X035504Y03336D01*
X03466D01*
X03465Y033384D01*
X034584Y03345D01*
X034497Y033486D01*
X034403D01*
X034316Y03345D01*
X03425Y033384D01*
X034214Y033297D01*
Y033203D01*
X03425Y033116D01*
X034316Y03305D01*
X034403Y033014D01*
X034497D01*
X034584Y03305D01*
X03465Y033116D01*
X03466Y03314D01*
X03555D01*
X035592Y033148D01*
X035628Y033172D01*
X037328Y034872D01*
X037352Y034908D01*
X03736Y03495D01*
Y037402D01*
X037365Y037405D01*
X037459D01*
X037546Y037441D01*
X037612Y037508D01*
X037648Y037595D01*
Y037689D01*
X037612Y037775D01*
X037546Y037842D01*
X037459Y037878D01*
D02*
G37*
G36*
X030285Y032977D02*
X030215D01*
X03015Y03295D01*
X03011Y03291D01*
X02304D01*
X023Y03295D01*
X022935Y032977D01*
X022865D01*
X0228Y03295D01*
X02275Y0329D01*
X022723Y032835D01*
Y032765D01*
X02275Y0327D01*
X0228Y03265D01*
X022865Y032623D01*
X022935D01*
X023Y03265D01*
X02304Y03269D01*
X03011D01*
X03015Y03265D01*
X030215Y032623D01*
X030285D01*
X03035Y03265D01*
X0304Y0327D01*
X030427Y032765D01*
Y032835D01*
X0304Y0329D01*
X03035Y03295D01*
X030285Y032977D01*
D02*
G37*
G36*
Y032477D02*
X030215D01*
X03015Y03245D01*
X03011Y03241D01*
X02304D01*
X023Y03245D01*
X022935Y032477D01*
X022865D01*
X0228Y03245D01*
X02275Y0324D01*
X022723Y032335D01*
Y032265D01*
X02275Y0322D01*
X0228Y03215D01*
X022865Y032123D01*
X022935D01*
X023Y03215D01*
X02304Y03219D01*
X03011D01*
X03015Y03215D01*
X030215Y032123D01*
X030285D01*
X03035Y03215D01*
X0304Y0322D01*
X030427Y032265D01*
Y032335D01*
X0304Y0324D01*
X03035Y03245D01*
X030285Y032477D01*
D02*
G37*
G36*
X040847Y032981D02*
X040253D01*
Y032387D01*
X040847D01*
Y032981D01*
D02*
G37*
G36*
X030285Y031977D02*
X030215D01*
X03015Y03195D01*
X03011Y03191D01*
X02304D01*
X023Y03195D01*
X022935Y031977D01*
X022865D01*
X0228Y03195D01*
X02275Y0319D01*
X022723Y031835D01*
Y031765D01*
X02275Y0317D01*
X0228Y03165D01*
X022865Y031623D01*
X022935D01*
X023Y03165D01*
X02304Y03169D01*
X03011D01*
X03015Y03165D01*
X030215Y031623D01*
X030285D01*
X03035Y03165D01*
X0304Y0317D01*
X030427Y031765D01*
Y031835D01*
X0304Y0319D01*
X03035Y03195D01*
X030285Y031977D01*
D02*
G37*
G36*
X01433Y032452D02*
X01373D01*
X013641Y032441D01*
X013559Y032406D01*
X013488Y032352D01*
X013434Y032281D01*
X013399Y032199D01*
X013388Y03211D01*
X013399Y032021D01*
X013434Y031939D01*
X013488Y031868D01*
X013559Y031814D01*
X013641Y031779D01*
X01373Y031768D01*
X01433D01*
X014419Y031779D01*
X014501Y031814D01*
X014572Y031868D01*
X014626Y031939D01*
X014661Y032021D01*
X014672Y03211D01*
X014661Y032199D01*
X014626Y032281D01*
X014572Y032352D01*
X014501Y032406D01*
X014419Y032441D01*
X01433Y032452D01*
D02*
G37*
G36*
X01177D02*
X01117D01*
X011081Y032441D01*
X010999Y032406D01*
X010928Y032352D01*
X010874Y032281D01*
X010839Y032199D01*
X010828Y03211D01*
X010839Y032021D01*
X010874Y031939D01*
X010928Y031868D01*
X010999Y031814D01*
X011081Y031779D01*
X01117Y031768D01*
X01177D01*
X011859Y031779D01*
X011941Y031814D01*
X012012Y031868D01*
X012066Y031939D01*
X012101Y032021D01*
X012112Y03211D01*
X012101Y032199D01*
X012066Y032281D01*
X012012Y032352D01*
X011941Y032406D01*
X011859Y032441D01*
X01177Y032452D01*
D02*
G37*
G36*
X012556Y029892D02*
X011857D01*
Y029193D01*
X012556D01*
Y029892D01*
D02*
G37*
G36*
X036331Y029057D02*
X036269D01*
X036211Y029034D01*
X036166Y028989D01*
X036143Y028931D01*
Y028869D01*
X036166Y028811D01*
X036211Y028766D01*
X036269Y028743D01*
X036331D01*
X036389Y028766D01*
X036434Y028811D01*
X036457Y028869D01*
Y028931D01*
X036434Y028989D01*
X036389Y029034D01*
X036331Y029057D01*
D02*
G37*
G36*
X017835Y030427D02*
X017765D01*
X0177Y0304D01*
X01765Y03035D01*
X017623Y030285D01*
Y030215D01*
X01765Y03015D01*
X01769Y03011D01*
Y02866D01*
X017666Y02865D01*
X0176Y028584D01*
X017564Y028497D01*
Y028403D01*
X0176Y028316D01*
X017666Y02825D01*
X017753Y028214D01*
X017847D01*
X017934Y02825D01*
X018Y028316D01*
X018036Y028403D01*
Y028497D01*
X018Y028584D01*
X017934Y02865D01*
X01791Y02866D01*
Y03011D01*
X01795Y03015D01*
X017977Y030215D01*
Y030285D01*
X01795Y03035D01*
X0179Y0304D01*
X017835Y030427D01*
D02*
G37*
G36*
X012253Y028907D02*
X012161D01*
X012072Y028883D01*
X011992Y028837D01*
X011927Y028772D01*
X011881Y028693D01*
X011857Y028604D01*
Y028512D01*
X011881Y028423D01*
X011927Y028343D01*
X011992Y028278D01*
X012072Y028232D01*
X012161Y028208D01*
X012253D01*
X012342Y028232D01*
X012421Y028278D01*
X012486Y028343D01*
X012532Y028423D01*
X012556Y028512D01*
Y028604D01*
X012532Y028693D01*
X012486Y028772D01*
X012421Y028837D01*
X012342Y028883D01*
X012253Y028907D01*
D02*
G37*
G36*
X036331Y028332D02*
X036269D01*
X036211Y028309D01*
X036166Y028264D01*
X036143Y028206D01*
Y028144D01*
X036166Y028086D01*
X036211Y028041D01*
X036269Y028018D01*
X036331D01*
X036389Y028041D01*
X036434Y028086D01*
X036457Y028144D01*
Y028206D01*
X036434Y028264D01*
X036389Y028309D01*
X036331Y028332D01*
D02*
G37*
G36*
Y027607D02*
X036269D01*
X036211Y027584D01*
X036166Y027539D01*
X036143Y027481D01*
Y027419D01*
X036166Y027361D01*
X036211Y027316D01*
X036269Y027293D01*
X036331D01*
X036389Y027316D01*
X036434Y027361D01*
X036457Y027419D01*
Y027481D01*
X036434Y027539D01*
X036389Y027584D01*
X036331Y027607D01*
D02*
G37*
G36*
X021235Y014127D02*
X021165D01*
X0211Y0141D01*
X02105Y01405D01*
X021023Y013985D01*
Y013915D01*
X02105Y01385D01*
X0211Y0138D01*
X021165Y013773D01*
X021221D01*
X021237Y013757D01*
X021273Y013733D01*
X021315Y013725D01*
X021614D01*
Y013609D01*
X022086D01*
Y014061D01*
X021614D01*
Y013945D01*
X021377D01*
Y013985D01*
X02135Y01405D01*
X0213Y0141D01*
X021235Y014127D01*
D02*
G37*
%LPD*%
D10*
X018735Y0171D02*
Y017265D01*
X0185Y0175D02*
X018735Y017265D01*
X022965Y014465D02*
X023Y0145D01*
X02265Y014465D02*
X022965D01*
X02265D02*
Y0148D01*
X0318Y012D02*
X032Y0122D01*
X0303Y012D02*
X0318D01*
X02255Y01865D02*
X02315Y01805D01*
Y018D02*
Y01805D01*
X020815Y01865D02*
X02255D01*
X02315Y018D02*
X02365Y0175D01*
X032Y0111D02*
Y01157D01*
X022535Y01643D02*
X02255Y016415D01*
X02128Y01643D02*
X022535D01*
X021151Y015163D02*
Y01523D01*
Y015163D02*
X021849Y014465D01*
X02185D01*
X018477Y013623D02*
X0186Y0135D01*
X018477Y013623D02*
Y014052D01*
X021151Y016301D02*
X02128Y01643D01*
X021151Y016018D02*
Y016301D01*
X020815Y016483D02*
X020828Y01647D01*
X020815Y016483D02*
Y0168D01*
Y017115D02*
X02085Y01715D01*
X020815Y0168D02*
Y017115D01*
Y0177D02*
Y01865D01*
X019535Y018D02*
X020185Y01865D01*
X019315Y018D02*
X019535D01*
X018685Y01775D02*
X01935Y017085D01*
X018685Y01775D02*
Y018D01*
X019365Y0171D02*
X019585D01*
X020185Y0177D01*
X01966Y01536D02*
X019674Y015346D01*
X01985Y0164D02*
Y016465D01*
X020185Y0168D01*
X019861Y015832D02*
X019872Y015821D01*
X020049D01*
X019486D02*
X019654D01*
X019763Y015591D02*
Y015596D01*
X019674Y015346D02*
X019839D01*
X019889Y015396D02*
X019919D01*
X019839Y015346D02*
X019889Y015396D01*
X019665Y015832D02*
X019861D01*
X019763Y015591D02*
X019771Y015582D01*
X019951Y015427D02*
X020049D01*
X0196Y0153D02*
X01966Y01536D01*
X019654Y015821D02*
X019665Y015832D01*
X019919Y015396D02*
X019951Y015427D01*
X019647Y016018D02*
X020049D01*
X01935Y016315D02*
X019647Y016018D01*
X019782Y015582D02*
X019824Y015624D01*
X019771Y015582D02*
X019782D01*
X019824Y015624D02*
X020049D01*
X017835Y0156D02*
Y0164D01*
X018465D02*
X01855Y016315D01*
X01935D01*
Y017085D02*
X019365Y0171D01*
X01935Y016315D02*
Y017085D01*
Y015685D02*
X019486Y015821D01*
X02202Y014465D02*
X02265Y013835D01*
D18*
X017061Y014752D02*
D03*
X01764D02*
D03*
D24*
X017835Y0156D02*
D03*
X018465D02*
D03*
Y0164D02*
D03*
X017835D02*
D03*
X020185Y01865D02*
D03*
X020815D02*
D03*
X020185Y0177D02*
D03*
X020815D02*
D03*
X018685Y018D02*
D03*
X019315D02*
D03*
X018735Y0171D02*
D03*
X019365D02*
D03*
X020815Y0168D02*
D03*
X020185D02*
D03*
D31*
X02185Y013835D02*
D03*
Y014465D02*
D03*
X01935Y016315D02*
D03*
Y015685D02*
D03*
X032Y01157D02*
D03*
Y0122D02*
D03*
X02255Y015785D02*
D03*
Y016415D02*
D03*
X02265Y014465D02*
D03*
Y013835D02*
D03*
X01935Y014052D02*
D03*
Y014682D02*
D03*
X018477Y014052D02*
D03*
Y014682D02*
D03*
X0161Y014085D02*
D03*
Y014715D02*
D03*
D68*
X0113Y041878D02*
D03*
Y039122D02*
D03*
D88*
X01505Y03195D02*
Y03965D01*
X01115Y03105D02*
X01415D01*
X01505Y03195D01*
X01525Y0316D02*
X01615Y0325D01*
X01365Y04105D02*
X01505Y03965D01*
X01615Y0325D02*
Y0337D01*
X0129Y04105D02*
X01365D01*
X0178Y02845D02*
Y03025D01*
X03445Y03325D02*
X03555D01*
X03725Y03495D01*
Y037479D01*
X037412Y037642D01*
X03565Y03375D02*
X03695Y03505D01*
Y03645D01*
X0281Y03375D02*
X03565D01*
X02805Y03425D02*
X0356D01*
X03615Y0348D01*
X02175Y03525D02*
X027535D01*
X029199Y036914D01*
X02105Y03455D02*
X02175Y03525D01*
X0207Y03455D02*
X02105D01*
X02045Y0348D02*
X0207Y03455D01*
X02045Y0348D02*
Y035154D01*
X02088Y035584D01*
X0267Y04215D02*
Y04355D01*
X02415Y0391D02*
Y04185D01*
X02088Y035584D02*
X0218Y036504D01*
Y04095D01*
X02215Y04225D02*
X0223Y0424D01*
X02215Y0364D02*
Y04225D01*
X0209Y03515D02*
X02215Y0364D01*
X036685Y036715D02*
X03695Y03645D01*
X036679Y036715D02*
X036685D01*
X0284Y04085D02*
X029Y04145D01*
X0229Y0318D02*
X03025D01*
X0229Y0323D02*
X03025D01*
X0229Y0328D02*
X03025D01*
X01915Y04225D02*
X0199Y043D01*
X01915Y0416D02*
Y04225D01*
X0212Y01395D02*
X021315Y013835D01*
X02185D01*
X019265Y0156D02*
X01935Y015685D01*
X018465Y0156D02*
X019265D01*
D89*
X0383Y04185D02*
Y04415D01*
X03645Y046D02*
X0383Y04415D01*
X0132Y046D02*
X03645D01*
X01045Y04325D02*
X0132Y046D01*
X01045Y0217D02*
Y04325D01*
Y0217D02*
X01375Y0184D01*
Y01645D02*
Y0184D01*
Y01645D02*
X01465Y01555D01*
X01615Y033721D02*
X021871D01*
X02095Y04335D02*
Y0443D01*
X02095D02*
X02095Y0443D01*
X02095Y04335D02*
X02095Y04335D01*
X026784Y0455D02*
X027291Y044993D01*
X02215Y0455D02*
X026784D01*
X0209Y04425D02*
X02215Y0455D01*
X01845Y0442D02*
X020745D01*
X02095Y04045D02*
Y04335D01*
X01615Y04085D02*
X01795Y04265D01*
X01805Y04275D01*
Y0438D02*
X01845Y0442D01*
X01805Y04275D02*
Y0438D01*
X01615Y03655D02*
Y04085D01*
Y033721D02*
Y03655D01*
Y0337D02*
Y033721D01*
X021871D02*
X0227Y03455D01*
X0246D01*
X02475Y0347D01*
X0314D01*
X0156Y01405D02*
X016065D01*
X0161Y014085D01*
Y0136D02*
Y014085D01*
D91*
X0364Y043385D02*
D03*
X0206Y015998D02*
D03*
X020374Y015624D02*
D03*
X020826D02*
D03*
X0206Y01525D02*
D03*
X036912Y04185D02*
D03*
X0364D02*
D03*
X036912Y042362D02*
D03*
X0364D02*
D03*
X036912Y042874D02*
D03*
X0364D02*
D03*
X036912Y043385D02*
D03*
X026482Y038159D02*
D03*
X027205D02*
D03*
Y038882D02*
D03*
X026482D02*
D03*
Y039604D02*
D03*
X027205D02*
D03*
X03845Y03205D02*
D03*
Y0316D02*
D03*
Y0311D02*
D03*
Y03065D02*
D03*
Y03025D02*
D03*
Y0298D02*
D03*
X0388D02*
D03*
Y03025D02*
D03*
Y03065D02*
D03*
Y0311D02*
D03*
Y0316D02*
D03*
Y03205D02*
D03*
X03695Y0409D02*
D03*
Y04135D02*
D03*
X0308Y03525D02*
D03*
X03465D02*
D03*
X03415D02*
D03*
X03335D02*
D03*
X03255D02*
D03*
X03195D02*
D03*
X0313D02*
D03*
X0363Y02745D02*
D03*
Y028175D02*
D03*
Y0289D02*
D03*
X04275Y02515D02*
D03*
Y0259D02*
D03*
Y0266D02*
D03*
Y0272D02*
D03*
Y0278D02*
D03*
Y02845D02*
D03*
Y02905D02*
D03*
X04025Y0272D02*
D03*
Y02665D02*
D03*
X0402Y0261D02*
D03*
Y02565D02*
D03*
Y0252D02*
D03*
X04065Y02565D02*
D03*
Y02615D02*
D03*
Y02665D02*
D03*
Y02715D02*
D03*
X01685Y01055D02*
D03*
X0176D02*
D03*
X01835D02*
D03*
X0191D02*
D03*
X01985D02*
D03*
Y0112D02*
D03*
X0191D02*
D03*
X01835D02*
D03*
X0176D02*
D03*
X01685D02*
D03*
Y01185D02*
D03*
X0176D02*
D03*
X01835D02*
D03*
X0191D02*
D03*
X01985D02*
D03*
X0185Y0175D02*
D03*
X02203Y015881D02*
D03*
X021707Y015884D02*
D03*
X021867Y01614D02*
D03*
X021857Y015073D02*
D03*
X022017Y015328D02*
D03*
X021694Y015332D02*
D03*
X0186Y0135D02*
D03*
X020828Y01647D02*
D03*
X02085Y01715D02*
D03*
X01985Y0164D02*
D03*
X0196Y0153D02*
D03*
X019763Y015596D02*
D03*
D92*
X012363Y041484D02*
D03*
Y039516D02*
D03*
D93*
X01142Y03669D02*
D03*
Y03491D02*
D03*
X01398Y03669D02*
D03*
Y03491D02*
D03*
X01403Y03211D02*
D03*
Y03389D02*
D03*
X01147Y03211D02*
D03*
Y03389D02*
D03*
D94*
X041293Y035458D02*
D03*
X012207Y029542D02*
D03*
X0406Y04235D02*
D03*
D95*
X041293Y036442D02*
D03*
X012207Y028558D02*
D03*
X0406Y043334D02*
D03*
D96*
X037897Y02125D02*
D03*
X017524Y01315D02*
D03*
Y02125D02*
D03*
X037897Y01315D02*
D03*
D97*
X04085Y02125D02*
D03*
X020476Y01315D02*
D03*
Y02125D02*
D03*
X04085Y01315D02*
D03*
D98*
X0295Y02005D02*
D03*
Y01445D02*
D03*
D99*
X029637Y0225D02*
D03*
X030637D02*
D03*
X0283Y012D02*
D03*
X0293D02*
D03*
D100*
X028637Y0225D02*
D03*
X0303Y012D02*
D03*
D101*
X011Y0112D02*
D03*
X0433Y011D02*
D03*
Y04555D02*
D03*
X01085D02*
D03*
D102*
X01465Y01555D02*
D03*
X01215D02*
D03*
D103*
X01365Y01355D02*
D03*
D104*
X04055Y030716D02*
D03*
D105*
Y032684D02*
D03*
D106*
X014577Y021673D02*
D03*
Y022657D02*
D03*
X012064Y021673D02*
D03*
Y022657D02*
D03*
D107*
X014577Y023642D02*
D03*
X012064D02*
D03*
D108*
X01525Y0316D02*
D03*
X01115Y03105D02*
D03*
X01275Y0383D02*
D03*
X01235Y03865D02*
D03*
X0383Y04185D02*
D03*
X01285Y03995D02*
D03*
X0178Y02845D02*
D03*
X037412Y037642D02*
D03*
X03445Y03325D02*
D03*
X0314Y0347D02*
D03*
X029199Y036914D02*
D03*
X0287Y04345D02*
D03*
X029195Y042838D02*
D03*
D109*
X036657Y036194D02*
D03*
X02095Y04335D02*
D03*
X027291Y044993D02*
D03*
X0242Y03355D02*
D03*
X0246Y03455D02*
D03*
X0375Y0347D02*
D03*
X03013Y04473D02*
D03*
X0267Y04215D02*
D03*
Y04355D02*
D03*
X01835Y04235D02*
D03*
X01795Y04265D02*
D03*
X0153Y04235D02*
D03*
X0158Y04265D02*
D03*
X01875Y03D02*
D03*
X02805Y03025D02*
D03*
X02685D02*
D03*
X02745Y03D02*
D03*
X0333Y03345D02*
D03*
X0329Y03315D02*
D03*
X041896Y039159D02*
D03*
X0419Y0382D02*
D03*
X01605Y02665D02*
D03*
X02415Y04185D02*
D03*
Y0391D02*
D03*
X0229Y0328D02*
D03*
X0129Y04105D02*
D03*
X01615Y03655D02*
D03*
Y0337D02*
D03*
X02088Y035584D02*
D03*
X0218Y04095D02*
D03*
X0223Y0424D02*
D03*
X0209Y03515D02*
D03*
X036679Y036715D02*
D03*
X0281Y03375D02*
D03*
X03615Y0348D02*
D03*
X02805Y03425D02*
D03*
X01745Y0293D02*
D03*
X01935Y0303D02*
D03*
X0157Y03155D02*
D03*
X01595Y0312D02*
D03*
X0178Y03025D02*
D03*
X0225Y0359D02*
D03*
X0231Y0355D02*
D03*
X0237Y0359D02*
D03*
X029Y04145D02*
D03*
X0284Y04085D02*
D03*
X03025Y0318D02*
D03*
Y0323D02*
D03*
Y0328D02*
D03*
X0229Y0318D02*
D03*
Y0323D02*
D03*
X03635Y0372D02*
D03*
X02095Y04045D02*
D03*
X0249Y04495D02*
D03*
X024Y045D02*
D03*
X0199Y043D02*
D03*
X01915Y0416D02*
D03*
X0212Y01395D02*
D03*
X023Y0145D02*
D03*
X02265Y0148D02*
D03*
X02315Y01805D02*
D03*
X02365Y0175D02*
D03*
X032Y0111D02*
D03*
X0156Y01405D02*
D03*
X0161Y0136D02*
D03*
D110*
X015671Y01575D02*
D03*
X016829D02*
D03*
D111*
X020049Y01523D02*
D03*
Y015427D02*
D03*
Y015624D02*
D03*
Y015821D02*
D03*
Y016018D02*
D03*
X021151D02*
D03*
Y015821D02*
D03*
Y015624D02*
D03*
Y015427D02*
D03*
Y01523D02*
D03*
D112*
X0206Y015624D02*
D03*
M02*
