G04*
G04 #@! TF.GenerationSoftware,Altium Limited,Altium Designer,21.3.2 (30)*
G04*
G04 Layer_Color=255*
%FSTAX24Y24*%
%MOIN*%
G70*
G04*
G04 #@! TF.SameCoordinates,AAB4DB19-2E37-4297-9B89-C5A600987651*
G04*
G04*
G04 #@! TF.FilePolarity,Positive*
G04*
G01*
G75*
%ADD18R,0.0394X0.0382*%
%ADD24R,0.0374X0.0394*%
%ADD31R,0.0394X0.0374*%
%ADD68O,0.0610X0.0305*%
%ADD91C,0.0236*%
%ADD92O,0.0374X0.0512*%
%ADD93O,0.1200X0.0600*%
%ADD94R,0.0620X0.0620*%
%ADD95C,0.0620*%
%ADD96R,0.0551X0.0551*%
%ADD97C,0.0551*%
%ADD98C,0.1110*%
%ADD99C,0.0787*%
%ADD100R,0.0787X0.0787*%
%ADD101C,0.1378*%
%ADD102O,0.1000X0.1600*%
%ADD103O,0.1600X0.1000*%
%ADD104C,0.0515*%
%ADD105R,0.0515X0.0515*%
%ADD106C,0.0594*%
%ADD107R,0.0594X0.0594*%
%ADD110R,0.0461X0.0709*%
G04:AMPARAMS|DCode=111|XSize=23.6mil|YSize=9.4mil|CornerRadius=1.2mil|HoleSize=0mil|Usage=FLASHONLY|Rotation=0.000|XOffset=0mil|YOffset=0mil|HoleType=Round|Shape=RoundedRectangle|*
%AMROUNDEDRECTD111*
21,1,0.0236,0.0071,0,0,0.0*
21,1,0.0213,0.0094,0,0,0.0*
1,1,0.0024,0.0106,-0.0035*
1,1,0.0024,-0.0106,-0.0035*
1,1,0.0024,-0.0106,0.0035*
1,1,0.0024,0.0106,0.0035*
%
%ADD111ROUNDEDRECTD111*%
G04:AMPARAMS|DCode=112|XSize=65mil|YSize=94.5mil|CornerRadius=1.6mil|HoleSize=0mil|Usage=FLASHONLY|Rotation=0.000|XOffset=0mil|YOffset=0mil|HoleType=Round|Shape=RoundedRectangle|*
%AMROUNDEDRECTD112*
21,1,0.0650,0.0912,0,0,0.0*
21,1,0.0617,0.0945,0,0,0.0*
1,1,0.0032,0.0309,-0.0456*
1,1,0.0032,-0.0309,-0.0456*
1,1,0.0032,-0.0309,0.0456*
1,1,0.0032,0.0309,0.0456*
%
%ADD112ROUNDEDRECTD112*%
D18*
X017061Y014752D02*
D03*
X01764D02*
D03*
D24*
X017835Y0156D02*
D03*
X018465D02*
D03*
Y0164D02*
D03*
X017835D02*
D03*
X020185Y01865D02*
D03*
X020815D02*
D03*
X020185Y0177D02*
D03*
X020815D02*
D03*
X018685Y018D02*
D03*
X019315D02*
D03*
X018735Y0171D02*
D03*
X019365D02*
D03*
X020815Y0168D02*
D03*
X020185D02*
D03*
D31*
X02185Y013835D02*
D03*
Y014465D02*
D03*
X01935Y016315D02*
D03*
Y015685D02*
D03*
X032Y01157D02*
D03*
Y0122D02*
D03*
X02255Y015785D02*
D03*
Y016415D02*
D03*
X02265Y014465D02*
D03*
Y013835D02*
D03*
X01935Y014052D02*
D03*
Y014682D02*
D03*
X018477Y014052D02*
D03*
Y014682D02*
D03*
X0161Y014085D02*
D03*
Y014715D02*
D03*
D68*
X0113Y041878D02*
D03*
Y039122D02*
D03*
D91*
X0364Y043385D02*
D03*
X0206Y015998D02*
D03*
X020374Y015624D02*
D03*
X020826D02*
D03*
X0206Y01525D02*
D03*
X036912Y04185D02*
D03*
X0364D02*
D03*
X036912Y042362D02*
D03*
X0364D02*
D03*
X036912Y042874D02*
D03*
X0364D02*
D03*
X036912Y043385D02*
D03*
D92*
X012363Y041484D02*
D03*
Y039516D02*
D03*
D93*
X01142Y03669D02*
D03*
Y03491D02*
D03*
X01398Y03669D02*
D03*
Y03491D02*
D03*
X01403Y03211D02*
D03*
Y03389D02*
D03*
X01147Y03211D02*
D03*
Y03389D02*
D03*
D94*
X041293Y035458D02*
D03*
X012207Y029542D02*
D03*
X0406Y04235D02*
D03*
D95*
X041293Y036442D02*
D03*
X012207Y028558D02*
D03*
X0406Y043334D02*
D03*
D96*
X037897Y02125D02*
D03*
X017524Y01315D02*
D03*
Y02125D02*
D03*
X037897Y01315D02*
D03*
D97*
X04085Y02125D02*
D03*
X020476Y01315D02*
D03*
Y02125D02*
D03*
X04085Y01315D02*
D03*
D98*
X0295Y02005D02*
D03*
Y01445D02*
D03*
D99*
X029637Y0225D02*
D03*
X030637D02*
D03*
X0283Y012D02*
D03*
X0293D02*
D03*
D100*
X028637Y0225D02*
D03*
X0303Y012D02*
D03*
D101*
X011Y0112D02*
D03*
X0433Y011D02*
D03*
Y04555D02*
D03*
X01085D02*
D03*
D102*
X01465Y01555D02*
D03*
X01215D02*
D03*
D103*
X01365Y01355D02*
D03*
D104*
X04055Y030716D02*
D03*
D105*
Y032684D02*
D03*
D106*
X014577Y021673D02*
D03*
Y022657D02*
D03*
X012064Y021673D02*
D03*
Y022657D02*
D03*
D107*
X014577Y023642D02*
D03*
X012064D02*
D03*
D110*
X015671Y01575D02*
D03*
X016829D02*
D03*
D111*
X020049Y01523D02*
D03*
Y015427D02*
D03*
Y015624D02*
D03*
Y015821D02*
D03*
Y016018D02*
D03*
X021151D02*
D03*
Y015821D02*
D03*
Y015624D02*
D03*
Y015427D02*
D03*
Y01523D02*
D03*
D112*
X0206Y015624D02*
D03*
M02*
