G04*
G04 #@! TF.GenerationSoftware,Altium Limited,Altium Designer,21.3.2 (30)*
G04*
G04 Layer_Color=255*
%FSTAX24Y24*%
%MOIN*%
G70*
G04*
G04 #@! TF.SameCoordinates,AAB4DB19-2E37-4297-9B89-C5A600987651*
G04*
G04*
G04 #@! TF.FilePolarity,Positive*
G04*
G01*
G75*
%ADD18R,0.0394X0.0382*%
%ADD19R,0.0472X0.0551*%
%ADD20R,0.0591X0.0610*%
%ADD21R,0.0236X0.0394*%
%ADD22R,0.0236X0.0472*%
%ADD23R,0.0236X0.0512*%
%ADD24R,0.0374X0.0394*%
%ADD25R,0.0382X0.0394*%
G04:AMPARAMS|DCode=26|XSize=36.6mil|YSize=51.6mil|CornerRadius=2.7mil|HoleSize=0mil|Usage=FLASHONLY|Rotation=90.000|XOffset=0mil|YOffset=0mil|HoleType=Round|Shape=RoundedRectangle|*
%AMROUNDEDRECTD26*
21,1,0.0366,0.0461,0,0,90.0*
21,1,0.0311,0.0516,0,0,90.0*
1,1,0.0055,0.0230,0.0156*
1,1,0.0055,0.0230,-0.0156*
1,1,0.0055,-0.0230,-0.0156*
1,1,0.0055,-0.0230,0.0156*
%
%ADD26ROUNDEDRECTD26*%
G04:AMPARAMS|DCode=27|XSize=127.6mil|YSize=51.6mil|CornerRadius=3.9mil|HoleSize=0mil|Usage=FLASHONLY|Rotation=90.000|XOffset=0mil|YOffset=0mil|HoleType=Round|Shape=RoundedRectangle|*
%AMROUNDEDRECTD27*
21,1,0.1276,0.0438,0,0,90.0*
21,1,0.1198,0.0516,0,0,90.0*
1,1,0.0077,0.0219,0.0599*
1,1,0.0077,0.0219,-0.0599*
1,1,0.0077,-0.0219,-0.0599*
1,1,0.0077,-0.0219,0.0599*
%
%ADD27ROUNDEDRECTD27*%
%ADD28R,0.0531X0.0157*%
%ADD29R,0.0610X0.0591*%
%ADD30R,0.0394X0.0236*%
%ADD31R,0.0394X0.0374*%
%ADD32R,0.0512X0.0236*%
%ADD33R,0.0780X0.0220*%
%ADD34R,0.0551X0.0472*%
%ADD35R,0.0244X0.0224*%
G04:AMPARAMS|DCode=36|XSize=35.8mil|YSize=32.7mil|CornerRadius=8.7mil|HoleSize=0mil|Usage=FLASHONLY|Rotation=180.000|XOffset=0mil|YOffset=0mil|HoleType=Round|Shape=RoundedRectangle|*
%AMROUNDEDRECTD36*
21,1,0.0358,0.0154,0,0,180.0*
21,1,0.0185,0.0327,0,0,180.0*
1,1,0.0173,-0.0093,0.0077*
1,1,0.0173,0.0093,0.0077*
1,1,0.0173,0.0093,-0.0077*
1,1,0.0173,-0.0093,-0.0077*
%
%ADD36ROUNDEDRECTD36*%
G04:AMPARAMS|DCode=37|XSize=61mil|YSize=23.6mil|CornerRadius=0.6mil|HoleSize=0mil|Usage=FLASHONLY|Rotation=0.000|XOffset=0mil|YOffset=0mil|HoleType=Round|Shape=RoundedRectangle|*
%AMROUNDEDRECTD37*
21,1,0.0610,0.0224,0,0,0.0*
21,1,0.0598,0.0236,0,0,0.0*
1,1,0.0012,0.0299,-0.0112*
1,1,0.0012,-0.0299,-0.0112*
1,1,0.0012,-0.0299,0.0112*
1,1,0.0012,0.0299,0.0112*
%
%ADD37ROUNDEDRECTD37*%
G04:AMPARAMS|DCode=38|XSize=35.8mil|YSize=32.7mil|CornerRadius=8.7mil|HoleSize=0mil|Usage=FLASHONLY|Rotation=90.000|XOffset=0mil|YOffset=0mil|HoleType=Round|Shape=RoundedRectangle|*
%AMROUNDEDRECTD38*
21,1,0.0358,0.0154,0,0,90.0*
21,1,0.0185,0.0327,0,0,90.0*
1,1,0.0173,0.0077,0.0093*
1,1,0.0173,0.0077,-0.0093*
1,1,0.0173,-0.0077,-0.0093*
1,1,0.0173,-0.0077,0.0093*
%
%ADD38ROUNDEDRECTD38*%
%ADD39R,0.0472X0.0236*%
%ADD40R,0.0787X0.0354*%
%ADD41R,0.0354X0.0787*%
%ADD42R,0.0524X0.0524*%
%ADD68O,0.0610X0.0305*%
%ADD87R,0.1161X0.1929*%
%ADD91C,0.0236*%
%ADD92O,0.0374X0.0512*%
%ADD93O,0.1200X0.0600*%
%ADD94R,0.0620X0.0620*%
%ADD95C,0.0620*%
%ADD96R,0.0551X0.0551*%
%ADD97C,0.0551*%
%ADD98C,0.1110*%
%ADD99C,0.0787*%
%ADD100R,0.0787X0.0787*%
%ADD101C,0.1378*%
%ADD102O,0.1000X0.1600*%
%ADD103O,0.1600X0.1000*%
%ADD104C,0.0515*%
%ADD105R,0.0515X0.0515*%
%ADD106C,0.0594*%
%ADD107R,0.0594X0.0594*%
D18*
X026482Y039604D02*
D03*
D19*
X027205D02*
D03*
X026121Y039243D02*
D03*
D20*
X026844D02*
D03*
D21*
X027566D02*
D03*
X026482Y038882D02*
D03*
X026121Y038521D02*
D03*
X026844D02*
D03*
D22*
X027566D02*
D03*
D23*
X027205Y038882D02*
D03*
Y038159D02*
D03*
X026482D02*
D03*
D24*
X042081Y02895D02*
D03*
X041452D02*
D03*
X042081Y028D02*
D03*
X041452D02*
D03*
X04208Y026D02*
D03*
X04145D02*
D03*
X042115Y02695D02*
D03*
X041485D02*
D03*
X0379Y03195D02*
D03*
X03727D02*
D03*
X037882Y031D02*
D03*
X037252D02*
D03*
X037882Y03D02*
D03*
X037252D02*
D03*
X011735Y0383D02*
D03*
X012365D02*
D03*
X013485Y04105D02*
D03*
X014115D02*
D03*
X0135Y0402D02*
D03*
X01413D02*
D03*
X019235Y0397D02*
D03*
X019865D02*
D03*
X041564Y038195D02*
D03*
X040934D02*
D03*
X040935Y03915D02*
D03*
X041565D02*
D03*
X0356Y04095D02*
D03*
X03623D02*
D03*
X036335Y0376D02*
D03*
X036965D02*
D03*
X01568Y0312D02*
D03*
X01505D02*
D03*
X01578Y02755D02*
D03*
X01515D02*
D03*
X015135Y02665D02*
D03*
X015765D02*
D03*
X03872Y02605D02*
D03*
X03935D02*
D03*
X03813Y0343D02*
D03*
X0375D02*
D03*
X021865Y04145D02*
D03*
X021235D02*
D03*
X021865Y04335D02*
D03*
X021235D02*
D03*
X02188Y04045D02*
D03*
X02125D02*
D03*
X0199Y0436D02*
D03*
X01927D02*
D03*
X021815Y03715D02*
D03*
X021185D02*
D03*
X021815Y0382D02*
D03*
X021185D02*
D03*
X021865Y0424D02*
D03*
X021235D02*
D03*
D25*
X040601Y028744D02*
D03*
Y028165D02*
D03*
X03645Y03175D02*
D03*
Y031171D02*
D03*
D26*
X0398Y02715D02*
D03*
Y028052D02*
D03*
Y028953D02*
D03*
D27*
X037166Y028052D02*
D03*
D28*
X012353Y041012D02*
D03*
Y040756D02*
D03*
Y0405D02*
D03*
Y040244D02*
D03*
Y039988D02*
D03*
D29*
X0113Y040894D02*
D03*
Y040106D02*
D03*
D30*
X020072Y04245D02*
D03*
X019128Y042076D02*
D03*
Y042824D02*
D03*
X020072Y04095D02*
D03*
X019128Y040576D02*
D03*
Y041324D02*
D03*
D31*
X0377Y040635D02*
D03*
Y041265D02*
D03*
X03205Y034165D02*
D03*
Y033535D02*
D03*
X01615Y0356D02*
D03*
Y03623D02*
D03*
X01525D02*
D03*
Y0356D02*
D03*
X01615Y032735D02*
D03*
Y033365D02*
D03*
X0152D02*
D03*
Y032735D02*
D03*
X0178Y029285D02*
D03*
Y029915D02*
D03*
X0237Y033535D02*
D03*
Y034165D02*
D03*
X0246D02*
D03*
Y033535D02*
D03*
X0329Y034165D02*
D03*
Y033535D02*
D03*
X0315Y036448D02*
D03*
Y035819D02*
D03*
X0345Y036448D02*
D03*
Y035819D02*
D03*
X0325Y036448D02*
D03*
Y035819D02*
D03*
X0335Y036448D02*
D03*
Y035819D02*
D03*
X0249Y04463D02*
D03*
Y044D02*
D03*
X0298Y04473D02*
D03*
Y0441D02*
D03*
X024Y04463D02*
D03*
Y044D02*
D03*
X0265Y044665D02*
D03*
Y044035D02*
D03*
D32*
X038293Y0367D02*
D03*
Y0362D02*
D03*
Y0357D02*
D03*
Y0352D02*
D03*
X036207D02*
D03*
Y0357D02*
D03*
Y0362D02*
D03*
Y0367D02*
D03*
X014957Y0288D02*
D03*
Y0293D02*
D03*
Y0298D02*
D03*
Y0303D02*
D03*
X017043D02*
D03*
Y0298D02*
D03*
Y0293D02*
D03*
Y0288D02*
D03*
D33*
X02233Y0343D02*
D03*
Y0338D02*
D03*
Y0333D02*
D03*
Y0328D02*
D03*
Y0323D02*
D03*
Y0318D02*
D03*
Y0313D02*
D03*
Y0308D02*
D03*
Y0303D02*
D03*
X01877D02*
D03*
Y0308D02*
D03*
Y0313D02*
D03*
Y0318D02*
D03*
Y0323D02*
D03*
Y0328D02*
D03*
Y0333D02*
D03*
Y0338D02*
D03*
Y0343D02*
D03*
X02742Y03425D02*
D03*
Y03375D02*
D03*
Y03325D02*
D03*
Y03275D02*
D03*
Y03225D02*
D03*
Y03175D02*
D03*
Y03125D02*
D03*
Y03075D02*
D03*
Y03025D02*
D03*
X03098D02*
D03*
Y03075D02*
D03*
Y03125D02*
D03*
Y03175D02*
D03*
Y03225D02*
D03*
Y03275D02*
D03*
Y03325D02*
D03*
Y03375D02*
D03*
Y03425D02*
D03*
D34*
X021083Y028935D02*
D03*
X020217D02*
D03*
Y028265D02*
D03*
X021083D02*
D03*
X029732Y028451D02*
D03*
X028866D02*
D03*
Y02912D02*
D03*
X029732D02*
D03*
D35*
X0195Y028789D02*
D03*
Y028411D02*
D03*
X02175Y028411D02*
D03*
Y028789D02*
D03*
X0281Y028611D02*
D03*
Y028989D02*
D03*
X0305D02*
D03*
Y028611D02*
D03*
D36*
X03798Y02605D02*
D03*
X03739D02*
D03*
D37*
X037719Y043368D02*
D03*
Y042868D02*
D03*
Y042368D02*
D03*
Y041868D02*
D03*
X035593D02*
D03*
Y042368D02*
D03*
Y042868D02*
D03*
Y043368D02*
D03*
D38*
X0273Y044059D02*
D03*
Y04465D02*
D03*
D39*
X015748Y04235D02*
D03*
Y04185D02*
D03*
Y04135D02*
D03*
Y04085D02*
D03*
Y04035D02*
D03*
Y03985D02*
D03*
Y03935D02*
D03*
Y03885D02*
D03*
X017952D02*
D03*
Y03935D02*
D03*
Y03985D02*
D03*
Y04035D02*
D03*
Y04085D02*
D03*
Y04135D02*
D03*
Y04185D02*
D03*
Y04235D02*
D03*
D40*
X029796Y035929D02*
D03*
Y036429D02*
D03*
Y036929D02*
D03*
Y037429D02*
D03*
Y037929D02*
D03*
Y038429D02*
D03*
Y038929D02*
D03*
Y039429D02*
D03*
Y039929D02*
D03*
Y040429D02*
D03*
Y040929D02*
D03*
Y041429D02*
D03*
Y041929D02*
D03*
Y042429D02*
D03*
X023104D02*
D03*
Y041929D02*
D03*
Y041429D02*
D03*
Y040929D02*
D03*
Y040429D02*
D03*
Y039929D02*
D03*
Y039429D02*
D03*
Y038929D02*
D03*
Y038429D02*
D03*
Y037929D02*
D03*
Y037429D02*
D03*
Y036929D02*
D03*
Y036429D02*
D03*
Y035929D02*
D03*
D41*
X0287Y042823D02*
D03*
X0282D02*
D03*
X0277D02*
D03*
X0272D02*
D03*
X0267D02*
D03*
X0262D02*
D03*
X0257D02*
D03*
X0252D02*
D03*
X0247D02*
D03*
X0242D02*
D03*
D42*
X027566Y038159D02*
D03*
X026844D02*
D03*
X026121D02*
D03*
X027566Y038882D02*
D03*
X026844D02*
D03*
X026121D02*
D03*
X027566Y039604D02*
D03*
X026844D02*
D03*
X026121D02*
D03*
D68*
X0113Y041878D02*
D03*
Y039122D02*
D03*
D87*
X036656Y042618D02*
D03*
D91*
X0364Y043385D02*
D03*
X0206Y015998D02*
D03*
X020374Y015624D02*
D03*
X020826D02*
D03*
X0206Y01525D02*
D03*
X036912Y04185D02*
D03*
X0364D02*
D03*
X036912Y042362D02*
D03*
X0364D02*
D03*
X036912Y042874D02*
D03*
X0364D02*
D03*
X036912Y043385D02*
D03*
D92*
X012363Y041484D02*
D03*
Y039516D02*
D03*
D93*
X01142Y03669D02*
D03*
Y03491D02*
D03*
X01398Y03669D02*
D03*
Y03491D02*
D03*
X01403Y03211D02*
D03*
Y03389D02*
D03*
X01147Y03211D02*
D03*
Y03389D02*
D03*
D94*
X041293Y035458D02*
D03*
X012207Y029542D02*
D03*
X0406Y04235D02*
D03*
D95*
X041293Y036442D02*
D03*
X012207Y028558D02*
D03*
X0406Y043334D02*
D03*
D96*
X037897Y02125D02*
D03*
X017524Y01315D02*
D03*
Y02125D02*
D03*
X037897Y01315D02*
D03*
D97*
X04085Y02125D02*
D03*
X020476Y01315D02*
D03*
Y02125D02*
D03*
X04085Y01315D02*
D03*
D98*
X0295Y02005D02*
D03*
Y01445D02*
D03*
D99*
X029637Y0225D02*
D03*
X030637D02*
D03*
X0283Y012D02*
D03*
X0293D02*
D03*
D100*
X028637Y0225D02*
D03*
X0303Y012D02*
D03*
D101*
X011Y0112D02*
D03*
X0433Y011D02*
D03*
Y04555D02*
D03*
X01085D02*
D03*
D102*
X01465Y01555D02*
D03*
X01215D02*
D03*
D103*
X01365Y01355D02*
D03*
D104*
X04055Y030716D02*
D03*
D105*
Y032684D02*
D03*
D106*
X014577Y021673D02*
D03*
Y022657D02*
D03*
X012064Y021673D02*
D03*
Y022657D02*
D03*
D107*
X014577Y023642D02*
D03*
X012064D02*
D03*
M02*
