G04*
G04 #@! TF.GenerationSoftware,Altium Limited,Altium Designer,21.3.2 (30)*
G04*
G04 Layer_Color=32896*
%FSTAX24Y24*%
%MOIN*%
G70*
G04*
G04 #@! TF.SameCoordinates,AAB4DB19-2E37-4297-9B89-C5A600987651*
G04*
G04*
G04 #@! TF.FilePolarity,Positive*
G04*
G01*
G75*
%ADD13C,0.0050*%
%ADD115C,0.0039*%
D13*
X022007Y014701D02*
Y014596D01*
Y014648D01*
X021692D01*
X021745Y014701D01*
Y014439D02*
X021692Y014386D01*
Y014281D01*
X021745Y014229D01*
X021955D01*
X022007Y014281D01*
Y014386D01*
X021955Y014439D01*
X021745D01*
Y014124D02*
X021692Y014071D01*
Y013966D01*
X021745Y013914D01*
X021955D01*
X022007Y013966D01*
Y014071D01*
X021955Y014124D01*
X021745D01*
X021692Y013809D02*
X022007D01*
X021902D01*
X021692Y013599D01*
X02185Y013756D01*
X022007Y013599D01*
X017651Y015757D02*
X017442D01*
X017651Y015547D01*
Y015495D01*
X017599Y015442D01*
X017494D01*
X017442Y015495D01*
X017756Y015757D02*
Y015705D01*
X017809D01*
Y015757D01*
X017756D01*
X018019Y015442D02*
X018229D01*
Y015495D01*
X018019Y015705D01*
Y015757D01*
X018334D02*
Y015547D01*
X018491D01*
X018544Y0156D01*
Y015757D01*
X018858Y015442D02*
X018649D01*
Y0156D01*
X018753D01*
X018649D01*
Y015757D01*
X019455Y016708D02*
Y016603D01*
Y016656D01*
X01914D01*
X019192Y016708D01*
Y016446D02*
X01914Y016394D01*
Y016289D01*
X019192Y016236D01*
X019402D01*
X019455Y016289D01*
Y016394D01*
X019402Y016446D01*
X019192D01*
Y016131D02*
X01914Y016079D01*
Y015974D01*
X019192Y015921D01*
X019402D01*
X019455Y015974D01*
Y016079D01*
X019402Y016131D01*
X019192D01*
X01956Y015816D02*
X019245D01*
Y015659D01*
X019297Y015606D01*
X019402D01*
X019455Y015659D01*
Y015816D01*
X01914Y015292D02*
Y015501D01*
X019297D01*
Y015396D01*
Y015501D01*
X019455D01*
X018806Y016505D02*
X018753Y016558D01*
X018649D01*
X018596Y016505D01*
Y016453D01*
X018649Y0164D01*
X018701D01*
X018649D01*
X018596Y016348D01*
Y016295D01*
X018649Y016243D01*
X018753D01*
X018806Y016295D01*
X018491Y016243D02*
Y016295D01*
X018439D01*
Y016243D01*
X018491D01*
X018229D02*
X018124D01*
X018176D01*
Y016558D01*
X018229Y016505D01*
X017756Y016558D02*
X017861Y016505D01*
X017966Y0164D01*
Y016295D01*
X017914Y016243D01*
X017809D01*
X017756Y016295D01*
Y016348D01*
X017809Y0164D01*
X017966D01*
X017651Y016243D02*
Y016558D01*
Y016348D02*
X017494Y016453D01*
X017651Y016348D02*
X017494Y016243D01*
X019765Y018492D02*
X019818Y01844D01*
X019923D01*
X019975Y018492D01*
Y018545D01*
X019923Y018597D01*
X019975Y01865D01*
Y018702D01*
X019923Y018755D01*
X019818D01*
X019765Y018702D01*
Y01865D01*
X019818Y018597D01*
X019765Y018545D01*
Y018492D01*
X019818Y018597D02*
X019923D01*
X02029Y018755D02*
X02008D01*
X02029Y018545D01*
Y018492D01*
X020238Y01844D01*
X020133D01*
X02008Y018492D01*
X020395D02*
X020448Y01844D01*
X020552D01*
X020605Y018492D01*
Y018702D01*
X020552Y018755D01*
X020448D01*
X020395Y018702D01*
Y018492D01*
X02071Y01886D02*
Y018545D01*
X020867D01*
X02092Y018597D01*
Y018702D01*
X020867Y018755D01*
X02071D01*
X021235Y01844D02*
X021025D01*
Y018597D01*
X02113D01*
X021025D01*
Y018755D01*
X020106Y017857D02*
X020211D01*
X020159D01*
Y017542D01*
X020106Y017595D01*
X020369D02*
X020421Y017542D01*
X020526D01*
X020579Y017595D01*
Y017805D01*
X020526Y017857D01*
X020421D01*
X020369Y017805D01*
Y017595D01*
X020684Y017542D02*
Y017857D01*
Y017752D01*
X020894Y017542D01*
X020736Y0177D01*
X020894Y017857D01*
X018423Y017895D02*
X018475Y017842D01*
X01858D01*
X018633Y017895D01*
Y017947D01*
X01858Y018D01*
X018528D01*
X01858D01*
X018633Y018052D01*
Y018105D01*
X01858Y018157D01*
X018475D01*
X018423Y018105D01*
X018948Y017842D02*
X018843Y017895D01*
X018738Y018D01*
Y018105D01*
X01879Y018157D01*
X018895D01*
X018948Y018105D01*
Y018052D01*
X018895Y018D01*
X018738D01*
X019052Y017895D02*
X019105Y017842D01*
X01921D01*
X019262Y017895D01*
Y018105D01*
X01921Y018157D01*
X019105D01*
X019052Y018105D01*
Y017895D01*
X019367Y018157D02*
Y017842D01*
X019525D01*
X019577Y017895D01*
Y018D01*
X019525Y018052D01*
X019367D01*
X019472D02*
X019577Y018157D01*
X018368Y017257D02*
X018473D01*
X01842D01*
Y016942D01*
X018368Y016995D01*
X01863Y017257D02*
Y017205D01*
X018683D01*
Y017257D01*
X01863D01*
X018893Y016995D02*
X018945Y016942D01*
X01905D01*
X019102Y016995D01*
Y017047D01*
X01905Y0171D01*
X018998D01*
X01905D01*
X019102Y017152D01*
Y017205D01*
X01905Y017257D01*
X018945D01*
X018893Y017205D01*
X019207Y016942D02*
X019417D01*
Y016995D01*
X019207Y017205D01*
Y017257D01*
X019522Y016942D02*
Y017257D01*
Y017152D01*
X019732Y016942D01*
X019575Y0171D01*
X019732Y017257D01*
X031843Y011491D02*
Y011596D01*
Y011544D01*
X032158D01*
X032105Y011491D01*
Y011754D02*
X032158Y011806D01*
Y011911D01*
X032105Y011964D01*
X031895D01*
X031843Y011911D01*
Y011806D01*
X031895Y011754D01*
X032105D01*
X032158Y012069D02*
X031843D01*
X031948D01*
X032158Y012279D01*
X032Y012121D01*
X031843Y012279D01*
X022393Y015392D02*
Y015497D01*
Y015444D01*
X022708D01*
X022655Y015392D01*
Y015654D02*
X022708Y015706D01*
Y015811D01*
X022655Y015864D01*
X022445D01*
X022393Y015811D01*
Y015706D01*
X022445Y015654D01*
X022655D01*
Y015969D02*
X022708Y016021D01*
Y016126D01*
X022655Y016179D01*
X022445D01*
X022393Y016126D01*
Y016021D01*
X022445Y015969D01*
X022655D01*
X022393Y016284D02*
X022603D01*
Y016441D01*
X02255Y016494D01*
X022393D01*
X022708Y016808D02*
Y016599D01*
X02255D01*
Y016703D01*
Y016599D01*
X022393D01*
X022807Y014648D02*
Y014858D01*
X022597Y014648D01*
X022545D01*
X022492Y014701D01*
Y014806D01*
X022545Y014858D01*
X022807Y014544D02*
X022755D01*
Y014491D01*
X022807D01*
Y014544D01*
Y014071D02*
Y014281D01*
X022597Y014071D01*
X022545D01*
X022492Y014124D01*
Y014229D01*
X022545Y014281D01*
X022597Y013966D02*
X022755D01*
X022807Y013914D01*
Y013756D01*
X022597D01*
X022492Y013442D02*
Y013651D01*
X02265D01*
Y013547D01*
Y013651D01*
X022807D01*
X021208Y016905D02*
X021156Y016958D01*
X021051D01*
X020998Y016905D01*
Y016853D01*
X021051Y0168D01*
X021103D01*
X021051D01*
X020998Y016748D01*
Y016695D01*
X021051Y016643D01*
X021156D01*
X021208Y016695D01*
X020894Y016643D02*
Y016695D01*
X020841D01*
Y016643D01*
X020894D01*
X020631Y016905D02*
X020579Y016958D01*
X020474D01*
X020421Y016905D01*
Y016853D01*
X020474Y0168D01*
X020526D01*
X020474D01*
X020421Y016748D01*
Y016695D01*
X020474Y016643D01*
X020579D01*
X020631Y016695D01*
X020316Y016643D02*
Y016853D01*
X020159D01*
X020106Y0168D01*
Y016643D01*
X019792Y016958D02*
X020001D01*
Y0168D01*
X019897D01*
X020001D01*
Y016643D01*
X019193Y013816D02*
Y013921D01*
Y013869D01*
X019508D01*
X019455Y013816D01*
Y014079D02*
X019508Y014131D01*
Y014236D01*
X019455Y014289D01*
X019245D01*
X019193Y014236D01*
Y014131D01*
X019245Y014079D01*
X019455D01*
X019403Y014394D02*
X019245D01*
X019193Y014446D01*
Y014603D01*
X019403D01*
X019508Y014918D02*
Y014708D01*
X01935D01*
Y014813D01*
Y014708D01*
X019193D01*
X018319Y013816D02*
Y013921D01*
Y013869D01*
X018634D01*
X018582Y013816D01*
Y014079D02*
X018634Y014131D01*
Y014236D01*
X018582Y014289D01*
X018372D01*
X018319Y014236D01*
Y014131D01*
X018372Y014079D01*
X018582D01*
X018529Y014394D02*
X018372D01*
X018319Y014446D01*
Y014603D01*
X018529D01*
X018634Y014918D02*
Y014708D01*
X018477D01*
Y014813D01*
Y014708D01*
X018319D01*
X015943Y013849D02*
Y013954D01*
Y013901D01*
X016258D01*
X016205Y013849D01*
Y014111D02*
X016258Y014164D01*
Y014269D01*
X016205Y014321D01*
X015995D01*
X015943Y014269D01*
Y014164D01*
X015995Y014111D01*
X016205D01*
X016153Y014426D02*
X015995D01*
X015943Y014479D01*
Y014636D01*
X016153D01*
X016258Y014951D02*
Y014741D01*
X0161D01*
Y014846D01*
Y014741D01*
X015943D01*
D115*
X021693Y014465D02*
X022007D01*
X021693Y013835D02*
X022007D01*
X021693D02*
Y014465D01*
X022007Y013835D02*
Y014465D01*
X017835Y015757D02*
X018465D01*
X017835Y015443D02*
X018465D01*
Y015757D01*
X017835Y015443D02*
Y015757D01*
X019507Y015685D02*
Y016315D01*
X019193Y015685D02*
Y016315D01*
Y015685D02*
X019507D01*
X019193Y016315D02*
X019507D01*
X017835Y016243D02*
X018465D01*
X017835Y016557D02*
X018465D01*
X017835Y016243D02*
Y016557D01*
X018465Y016243D02*
Y016557D01*
X020185Y018807D02*
X020815D01*
X020185Y018493D02*
X020815D01*
Y018807D01*
X020185Y018493D02*
Y018807D01*
Y017857D02*
X020815D01*
X020185Y017543D02*
X020815D01*
Y017857D01*
X020185Y017543D02*
Y017857D01*
X018685Y018157D02*
X019315D01*
X018685Y017843D02*
X019315D01*
Y018157D01*
X018685Y017843D02*
Y018157D01*
X018735Y017257D02*
X019365D01*
X018735Y016943D02*
X019365D01*
Y017257D01*
X018735Y016943D02*
Y017257D01*
X031843Y01157D02*
Y0122D01*
X032157Y01157D02*
Y0122D01*
X031843D02*
X032157D01*
X031843Y01157D02*
X032157D01*
X022393Y015785D02*
Y016415D01*
X022707Y015785D02*
Y016415D01*
X022393D02*
X022707D01*
X022393Y015785D02*
X022707D01*
X022807Y013835D02*
Y014465D01*
X022493Y013835D02*
Y014465D01*
Y013835D02*
X022807D01*
X022493Y014465D02*
X022807D01*
X020185Y016643D02*
X020815D01*
X020185Y016957D02*
X020815D01*
X020185Y016643D02*
Y016957D01*
X020815Y016643D02*
Y016957D01*
X019193Y014052D02*
Y014682D01*
X019507Y014052D02*
Y014682D01*
X019193D02*
X019507D01*
X019193Y014052D02*
X019507D01*
X018319D02*
Y014682D01*
X018634Y014052D02*
Y014682D01*
X018319D02*
X018634D01*
X018319Y014052D02*
X018634D01*
X015943Y014085D02*
Y014715D01*
X016257Y014085D02*
Y014715D01*
X015943D02*
X016257D01*
X015943Y014085D02*
X016257D01*
M02*
