G04*
G04 #@! TF.GenerationSoftware,Altium Limited,Altium Designer,21.3.2 (30)*
G04*
G04 Layer_Color=16711935*
%FSTAX24Y24*%
%MOIN*%
G70*
G04*
G04 #@! TF.SameCoordinates,AAB4DB19-2E37-4297-9B89-C5A600987651*
G04*
G04*
G04 #@! TF.FilePolarity,Positive*
G04*
G01*
G75*
%ADD114C,0.0020*%
%ADD115C,0.0039*%
D114*
X041038Y029363D02*
X042495D01*
X041038Y028537D02*
Y029363D01*
X042495Y028537D02*
Y029363D01*
X041038Y028537D02*
X042495D01*
X041038Y028413D02*
X042495D01*
X041038Y027587D02*
Y028413D01*
X042495Y027587D02*
Y028413D01*
X041038Y027587D02*
X042495D01*
X036857Y032363D02*
X038313D01*
X036857Y031537D02*
Y032363D01*
X038313Y031537D02*
Y032363D01*
X036857Y031537D02*
X038313D01*
X036838Y031413D02*
X038295D01*
X036838Y030587D02*
Y031413D01*
X038295Y030587D02*
Y031413D01*
X036838Y030587D02*
X038295D01*
X036838Y030413D02*
X038295D01*
X036838Y029587D02*
Y030413D01*
X038295Y029587D02*
Y030413D01*
X036838Y029587D02*
X038295D01*
X011322Y037887D02*
X012778D01*
Y038713D01*
X011322Y037887D02*
Y038713D01*
X012778D01*
X013072Y040637D02*
X014528D01*
Y041463D01*
X013072Y040637D02*
Y041463D01*
X014528D01*
X013087Y039787D02*
X014543D01*
Y040613D01*
X013087Y039787D02*
Y040613D01*
X014543D01*
X018822Y039287D02*
X020278D01*
Y040113D01*
X018822Y039287D02*
Y040113D01*
X020278D01*
X040521Y038608D02*
X041977D01*
X040521Y037782D02*
Y038608D01*
X041977Y037782D02*
Y038608D01*
X040521Y037782D02*
X041977D01*
X040522Y038737D02*
X041978D01*
Y039563D01*
X040522Y038737D02*
Y039563D01*
X041978D01*
X035187Y040537D02*
X036643D01*
Y041363D01*
X035187Y040537D02*
Y041363D01*
X036643D01*
X031637Y033122D02*
Y034578D01*
Y033122D02*
X032463D01*
X031637Y034578D02*
X032463D01*
Y033122D02*
Y034578D01*
X016563Y035187D02*
Y036643D01*
X015737D02*
X016563D01*
X015737Y035187D02*
X016563D01*
X015737D02*
Y036643D01*
X014837Y035187D02*
Y036643D01*
Y035187D02*
X015663D01*
X014837Y036643D02*
X015663D01*
Y035187D02*
Y036643D01*
X016563Y032322D02*
Y033778D01*
X015737D02*
X016563D01*
X015737Y032322D02*
X016563D01*
X015737D02*
Y033778D01*
X014787Y032322D02*
Y033778D01*
Y032322D02*
X015613D01*
X014787Y033778D02*
X015613D01*
Y032322D02*
Y033778D01*
X014737Y027963D02*
X016193D01*
X014737Y027137D02*
Y027963D01*
X016193Y027137D02*
Y027963D01*
X014737Y027137D02*
X016193D01*
X014722Y026237D02*
X016178D01*
Y027063D01*
X014722Y026237D02*
Y027063D01*
X016178D01*
X038307Y025637D02*
X039763D01*
Y026463D01*
X038307Y025637D02*
Y026463D01*
X039763D01*
X024113Y033122D02*
Y034578D01*
X023287D02*
X024113D01*
X023287Y033122D02*
X024113D01*
X023287D02*
Y034578D01*
X020822Y041863D02*
X022278D01*
X020822Y041037D02*
Y041863D01*
X022278Y041037D02*
Y041863D01*
X020822Y041037D02*
X022278D01*
X020822Y043763D02*
X022278D01*
X020822Y042937D02*
Y043763D01*
X022278Y042937D02*
Y043763D01*
X020822Y042937D02*
X022278D01*
X020837Y040863D02*
X022293D01*
X020837Y040037D02*
Y040863D01*
X022293Y040037D02*
Y040863D01*
X020837Y040037D02*
X022293D01*
X031087Y035405D02*
Y036862D01*
Y035405D02*
X031913D01*
X031087Y036862D02*
X031913D01*
Y035405D02*
Y036862D01*
X034087Y035405D02*
Y036862D01*
Y035405D02*
X034913D01*
X034087Y036862D02*
X034913D01*
Y035405D02*
Y036862D01*
X032087Y035405D02*
Y036862D01*
Y035405D02*
X032913D01*
X032087Y036862D02*
X032913D01*
Y035405D02*
Y036862D01*
X033087Y035405D02*
Y036862D01*
Y035405D02*
X033913D01*
X033087Y036862D02*
X033913D01*
Y035405D02*
Y036862D01*
X018857Y044013D02*
X020313D01*
X018857Y043187D02*
Y044013D01*
X020313Y043187D02*
Y044013D01*
X018857Y043187D02*
X020313D01*
X020772Y037563D02*
X022228D01*
X020772Y036737D02*
Y037563D01*
X022228Y036737D02*
Y037563D01*
X020772Y036737D02*
X022228D01*
X020772Y038613D02*
X022228D01*
X020772Y037787D02*
Y038613D01*
X022228Y037787D02*
Y038613D01*
X020772Y037787D02*
X022228D01*
X024487Y043587D02*
Y045043D01*
Y043587D02*
X025313D01*
X024487Y045043D02*
X025313D01*
Y043587D02*
Y045043D01*
X029387Y043687D02*
Y045143D01*
Y043687D02*
X030213D01*
X029387Y045143D02*
X030213D01*
Y043687D02*
Y045143D01*
X023587Y043587D02*
Y045043D01*
Y043587D02*
X024413D01*
X023587Y045043D02*
X024413D01*
Y043587D02*
Y045043D01*
X026087Y043622D02*
Y045078D01*
Y043622D02*
X026913D01*
X026087Y045078D02*
X026913D01*
Y043622D02*
Y045078D01*
X020822Y042813D02*
X022278D01*
X020822Y041987D02*
Y042813D01*
X022278Y041987D02*
Y042813D01*
X020822Y041987D02*
X022278D01*
D115*
X04157Y02895D02*
X041963D01*
X041767Y028753D02*
Y029147D01*
X04157Y028D02*
X041963D01*
X041767Y027803D02*
Y028197D01*
X037388Y03195D02*
X037782D01*
X037585Y031753D02*
Y032147D01*
X03737Y031D02*
X037763D01*
X037567Y030803D02*
Y031197D01*
X03737Y03D02*
X037763D01*
X037567Y029803D02*
Y030197D01*
X01205Y038103D02*
Y038497D01*
X011853Y0383D02*
X012247D01*
X0138Y040853D02*
Y041247D01*
X013603Y04105D02*
X013997D01*
X013815Y040003D02*
Y040397D01*
X013618Y0402D02*
X014012D01*
X01955Y039503D02*
Y039897D01*
X019353Y0397D02*
X019747D01*
X041249Y037998D02*
Y038392D01*
X041052Y038195D02*
X041446D01*
X04125Y038953D02*
Y039347D01*
X041053Y03915D02*
X041447D01*
X035915Y040753D02*
Y041147D01*
X035718Y04095D02*
X036112D01*
X031853Y03385D02*
X032247D01*
X03205Y033653D02*
Y034047D01*
X015953Y035915D02*
X016347D01*
X01615Y035718D02*
Y036112D01*
X01525Y035718D02*
Y036112D01*
X015053Y035915D02*
X015447D01*
X015953Y03305D02*
X016347D01*
X01615Y032853D02*
Y033247D01*
X0152Y032853D02*
Y033247D01*
X015003Y03305D02*
X015397D01*
X015465Y027353D02*
Y027747D01*
X015268Y02755D02*
X015662D01*
X01545Y026453D02*
Y026847D01*
X015253Y02665D02*
X015647D01*
X038838Y02605D02*
X039232D01*
X039035Y025853D02*
Y026247D01*
X0237Y033653D02*
Y034047D01*
X023503Y03385D02*
X023897D01*
X021353Y04145D02*
X021747D01*
X02155Y041253D02*
Y041647D01*
X021353Y04335D02*
X021747D01*
X02155Y043153D02*
Y043547D01*
X021368Y04045D02*
X021762D01*
X021565Y040253D02*
Y040647D01*
X031303Y036133D02*
X031697D01*
X0315Y035937D02*
Y03633D01*
X034303Y036133D02*
X034697D01*
X0345Y035937D02*
Y03633D01*
X032303Y036133D02*
X032697D01*
X0325Y035937D02*
Y03633D01*
X033303Y036133D02*
X033697D01*
X0335Y035937D02*
Y03633D01*
X019388Y0436D02*
X019782D01*
X019585Y043403D02*
Y043797D01*
X021303Y03715D02*
X021697D01*
X0215Y036953D02*
Y037347D01*
X021303Y0382D02*
X021697D01*
X0215Y038003D02*
Y038397D01*
X0249Y044118D02*
Y044512D01*
X024703Y044315D02*
X025097D01*
X0298Y044218D02*
Y044612D01*
X029603Y044415D02*
X029997D01*
X024Y044118D02*
Y044512D01*
X023803Y044315D02*
X024197D01*
X0265Y044153D02*
Y044547D01*
X026303Y04435D02*
X026697D01*
X021353Y0424D02*
X021747D01*
X02155Y042203D02*
Y042597D01*
M02*
