G04*
G04 #@! TF.GenerationSoftware,Altium Limited,Altium Designer,21.3.2 (30)*
G04*
G04 Layer_Color=16711935*
%FSTAX24Y24*%
%MOIN*%
G70*
G04*
G04 #@! TF.SameCoordinates,AAB4DB19-2E37-4297-9B89-C5A600987651*
G04*
G04*
G04 #@! TF.FilePolarity,Positive*
G04*
G01*
G75*
%ADD10C,0.0079*%
%ADD11C,0.0060*%
%ADD12C,0.0000*%
%ADD13C,0.0050*%
%ADD15C,0.0080*%
%ADD16C,0.0020*%
%ADD115C,0.0039*%
G36*
X015213Y028897D02*
Y028703D01*
X014779D01*
Y028897D01*
X015213D01*
D02*
G37*
G36*
Y029397D02*
Y029204D01*
X014779D01*
Y029397D01*
X015213D01*
D02*
G37*
G36*
Y029897D02*
Y029704D01*
X014779D01*
Y029897D01*
X015213D01*
D02*
G37*
G36*
Y030396D02*
Y030203D01*
X014779D01*
Y030396D01*
X015213D01*
D02*
G37*
G36*
X017221Y028897D02*
Y028703D01*
X016787D01*
Y028897D01*
X017221D01*
D02*
G37*
G36*
Y029397D02*
Y029204D01*
X016787D01*
Y029397D01*
X017221D01*
D02*
G37*
G36*
Y029897D02*
Y029704D01*
X016787D01*
Y029897D01*
X017221D01*
D02*
G37*
G36*
Y030396D02*
Y030203D01*
X016787D01*
Y030396D01*
X017221D01*
D02*
G37*
G36*
X01555Y03875D02*
Y03895D01*
X015955D01*
Y03875D01*
X01555D01*
D02*
G37*
G36*
Y03925D02*
Y03945D01*
X015955D01*
Y03925D01*
X01555D01*
D02*
G37*
G36*
Y03975D02*
Y03995D01*
X015955D01*
Y03975D01*
X01555D01*
D02*
G37*
G36*
Y04025D02*
Y04045D01*
X015955D01*
Y04025D01*
X01555D01*
D02*
G37*
G36*
Y04075D02*
Y04095D01*
X015955D01*
Y04075D01*
X01555D01*
D02*
G37*
G36*
Y04125D02*
Y04145D01*
X015955D01*
Y04125D01*
X01555D01*
D02*
G37*
G36*
Y04175D02*
Y04195D01*
X015955D01*
Y04175D01*
X01555D01*
D02*
G37*
G36*
Y04225D02*
Y04245D01*
X015955D01*
Y04225D01*
X01555D01*
D02*
G37*
G36*
X01775Y03875D02*
Y03895D01*
X01815D01*
Y03875D01*
X01775D01*
D02*
G37*
G36*
Y03925D02*
Y03945D01*
X01815D01*
Y03925D01*
X01775D01*
D02*
G37*
G36*
Y03975D02*
Y03995D01*
X01815D01*
Y03975D01*
X01775D01*
D02*
G37*
G36*
Y04025D02*
Y04045D01*
X01815D01*
Y04025D01*
X01775D01*
D02*
G37*
G36*
Y04075D02*
Y04095D01*
X01815D01*
Y04075D01*
X01775D01*
D02*
G37*
G36*
Y04125D02*
Y04145D01*
X01815D01*
Y04125D01*
X01775D01*
D02*
G37*
G36*
Y04175D02*
Y04195D01*
X01815D01*
Y04175D01*
X01775D01*
D02*
G37*
G36*
Y04225D02*
Y04245D01*
X018175D01*
Y04225D01*
X01775D01*
D02*
G37*
G36*
X036029Y035103D02*
Y035296D01*
X036463D01*
Y035103D01*
X036029D01*
D02*
G37*
G36*
Y035603D02*
Y035796D01*
X036463D01*
Y035603D01*
X036029D01*
D02*
G37*
G36*
Y036103D02*
Y036297D01*
X036463D01*
Y036103D01*
X036029D01*
D02*
G37*
G36*
Y036604D02*
Y036797D01*
X036463D01*
Y036604D01*
X036029D01*
D02*
G37*
G36*
X038037Y035103D02*
Y035296D01*
X038471D01*
Y035103D01*
X038037D01*
D02*
G37*
G36*
Y035603D02*
Y035796D01*
X038471D01*
Y035603D01*
X038037D01*
D02*
G37*
G36*
Y036103D02*
Y036297D01*
X038471D01*
Y036103D01*
X038037D01*
D02*
G37*
G36*
Y036604D02*
Y036797D01*
X038471D01*
Y036604D01*
X038037D01*
D02*
G37*
D10*
X039822Y026481D02*
G03*
X039822Y026481I-000039J0D01*
G01*
X012914Y041012D02*
G03*
X012914Y041012I-000039J0D01*
G01*
X041333Y034202D02*
G03*
X041333Y034202I-000039J0D01*
G01*
X021122Y029466D02*
G03*
X021122Y029466I-000039J0D01*
G01*
X029771Y029652D02*
G03*
X029771Y029652I-000039J0D01*
G01*
X035968Y02125D02*
G03*
X035968Y02125I-000039J0D01*
G01*
X027393Y022421D02*
G03*
X027393Y022421I-000039J0D01*
G01*
X015594Y01315D02*
G03*
X015594Y01315I-000039J0D01*
G01*
Y02125D02*
G03*
X015594Y02125I-000039J0D01*
G01*
X035968Y01315D02*
G03*
X035968Y01315I-000039J0D01*
G01*
X031623Y012079D02*
G03*
X031623Y012079I-000039J0D01*
G01*
X040589Y033944D02*
G03*
X040589Y033944I-000039J0D01*
G01*
X012246Y030798D02*
G03*
X012246Y030798I-000039J0D01*
G01*
X035093Y043368D02*
G03*
X035093Y043368I-000039J0D01*
G01*
X040639Y041094D02*
G03*
X040639Y041094I-000039J0D01*
G01*
X014617Y024921D02*
G03*
X014617Y024921I-000039J0D01*
G01*
X012103D02*
G03*
X012103Y024921I-000039J0D01*
G01*
X030426Y035933D02*
G03*
X030426Y035933I-000039J0D01*
G01*
D11*
X01375Y03495D02*
G03*
X01375Y03495I-0002J0D01*
G01*
X01205D02*
G03*
X01205Y03495I-0002J0D01*
G01*
Y0366D02*
G03*
X01205Y0366I-0002J0D01*
G01*
X01375Y03665D02*
G03*
X01375Y03665I-0002J0D01*
G01*
X0138Y03385D02*
G03*
X0138Y03385I-0002J0D01*
G01*
X0121Y0338D02*
G03*
X0121Y0338I-0002J0D01*
G01*
Y03215D02*
G03*
X0121Y03215I-0002J0D01*
G01*
X0138D02*
G03*
X0138Y03215I-0002J0D01*
G01*
X01355Y03595D02*
X01365Y0356D01*
Y036D02*
Y0363D01*
Y0353D02*
Y0356D01*
X0122Y0349D02*
X0132D01*
X0122Y03665D02*
X0132D01*
X0117Y0346D02*
X01185D01*
X01355D02*
X0137D01*
X01355Y037D02*
X0137D01*
X0117D02*
X01185D01*
X0139Y0362D02*
Y0368D01*
X0137Y037D02*
X0139Y0368D01*
Y0348D02*
Y0354D01*
X0137Y0346D02*
X0139Y0348D01*
X0115Y0362D02*
Y0368D01*
X0117Y037D01*
X0115Y0348D02*
X0117Y0346D01*
X0115Y0348D02*
Y0354D01*
X01907Y03003D02*
Y03457D01*
X02043D01*
X02067D01*
X02203D01*
Y03003D02*
Y03457D01*
X01907Y03003D02*
X02203D01*
Y0344D02*
X02258D01*
Y0342D02*
Y0344D01*
X02203Y0342D02*
X02258D01*
X02203D02*
Y0344D01*
Y0339D02*
X02258D01*
Y0337D02*
Y0339D01*
X02203Y0337D02*
X02258D01*
X02203D02*
Y0339D01*
Y0334D02*
X02258D01*
Y0332D02*
Y0334D01*
X02203Y0332D02*
X02258D01*
X02203D02*
Y0334D01*
Y0329D02*
X02258D01*
Y0327D02*
Y0329D01*
X02203Y0327D02*
X02258D01*
X02203D02*
Y0329D01*
Y0324D02*
X02258D01*
Y0322D02*
Y0324D01*
X02203Y0322D02*
X02258D01*
X02203D02*
Y0324D01*
Y0319D02*
X02258D01*
Y0317D02*
Y0319D01*
X02203Y0317D02*
X02258D01*
X02203D02*
Y0319D01*
Y0314D02*
X02258D01*
Y0312D02*
Y0314D01*
X02203Y0312D02*
X02258D01*
X02203D02*
Y0314D01*
Y0309D02*
X02258D01*
Y0307D02*
Y0309D01*
X02203Y0307D02*
X02258D01*
X02203D02*
Y0309D01*
Y0304D02*
X02258D01*
Y0302D02*
Y0304D01*
X02203Y0302D02*
X02258D01*
X02203D02*
Y0304D01*
X01852Y0302D02*
X01907D01*
X01852D02*
Y0304D01*
X01907D01*
Y0302D02*
Y0304D01*
X01852Y0307D02*
X01907D01*
X01852D02*
Y0309D01*
X01907D01*
Y0307D02*
Y0309D01*
X01852Y0312D02*
X01907D01*
X01852D02*
Y0314D01*
X01907D01*
Y0312D02*
Y0314D01*
X01852Y0317D02*
X01907D01*
X01852D02*
Y0319D01*
X01907D01*
Y0317D02*
Y0319D01*
X01852Y0322D02*
X01907D01*
X01852D02*
Y0324D01*
X01907D01*
Y0322D02*
Y0324D01*
X01852Y0327D02*
X01907D01*
X01852D02*
Y0329D01*
X01907D01*
Y0327D02*
Y0329D01*
X01852Y0332D02*
X01907D01*
X01852D02*
Y0334D01*
X01907D01*
Y0332D02*
Y0334D01*
X01852Y0337D02*
X01907D01*
X01852D02*
Y0339D01*
X01907D01*
Y0337D02*
Y0339D01*
X01852Y0342D02*
X01907D01*
X01852D02*
Y0344D01*
X01907D01*
Y0342D02*
Y0344D01*
X02772Y03415D02*
Y03435D01*
X02717D02*
X02772D01*
X02717Y03415D02*
Y03435D01*
Y03415D02*
X02772D01*
Y03365D02*
Y03385D01*
X02717D02*
X02772D01*
X02717Y03365D02*
Y03385D01*
Y03365D02*
X02772D01*
Y03315D02*
Y03335D01*
X02717D02*
X02772D01*
X02717Y03315D02*
Y03335D01*
Y03315D02*
X02772D01*
Y03265D02*
Y03285D01*
X02717D02*
X02772D01*
X02717Y03265D02*
Y03285D01*
Y03265D02*
X02772D01*
Y03215D02*
Y03235D01*
X02717D02*
X02772D01*
X02717Y03215D02*
Y03235D01*
Y03215D02*
X02772D01*
Y03165D02*
Y03185D01*
X02717D02*
X02772D01*
X02717Y03165D02*
Y03185D01*
Y03165D02*
X02772D01*
Y03115D02*
Y03135D01*
X02717D02*
X02772D01*
X02717Y03115D02*
Y03135D01*
Y03115D02*
X02772D01*
Y03065D02*
Y03085D01*
X02717D02*
X02772D01*
X02717Y03065D02*
Y03085D01*
Y03065D02*
X02772D01*
Y03015D02*
Y03035D01*
X02717D02*
X02772D01*
X02717Y03015D02*
Y03035D01*
Y03015D02*
X02772D01*
X03068D02*
Y03035D01*
Y03015D02*
X03123D01*
Y03035D01*
X03068D02*
X03123D01*
X03068Y03065D02*
Y03085D01*
Y03065D02*
X03123D01*
Y03085D01*
X03068D02*
X03123D01*
X03068Y03115D02*
Y03135D01*
Y03115D02*
X03123D01*
Y03135D01*
X03068D02*
X03123D01*
X03068Y03165D02*
Y03185D01*
Y03165D02*
X03123D01*
Y03185D01*
X03068D02*
X03123D01*
X03068Y03215D02*
Y03235D01*
Y03215D02*
X03123D01*
Y03235D01*
X03068D02*
X03123D01*
X03068Y03265D02*
Y03285D01*
Y03265D02*
X03123D01*
Y03285D01*
X03068D02*
X03123D01*
X03068Y03315D02*
Y03335D01*
Y03315D02*
X03123D01*
Y03335D01*
X03068D02*
X03123D01*
X03068Y03365D02*
Y03385D01*
Y03365D02*
X03123D01*
Y03385D01*
X03068D02*
X03123D01*
X03068Y03415D02*
Y03435D01*
Y03415D02*
X03123D01*
Y03435D01*
X03068D02*
X03123D01*
X02772Y02998D02*
X03068D01*
Y03452D01*
X02932D02*
X03068D01*
X02908D02*
X02932D01*
X02772D02*
X02908D01*
X02772Y02998D02*
Y03452D01*
X01155Y032D02*
Y0326D01*
Y032D02*
X01175Y0318D01*
X01155Y034D02*
X01175Y0342D01*
X01155Y0334D02*
Y034D01*
X01375Y0318D02*
X01395Y032D01*
Y0326D01*
X01375Y0342D02*
X01395Y034D01*
Y0334D02*
Y034D01*
X01175Y0342D02*
X0119D01*
X0136D02*
X01375D01*
X0136Y0318D02*
X01375D01*
X01175D02*
X0119D01*
X01225Y03385D02*
X01325D01*
X01225Y0321D02*
X01325D01*
X0137Y0325D02*
Y0328D01*
Y0332D02*
Y0335D01*
X0136Y03315D02*
X0137Y0328D01*
D12*
X02043Y03457D02*
G03*
X02067Y03457I00012J0D01*
G01*
X02908Y03452D02*
G03*
X02932Y03452I00012J0D01*
G01*
D13*
X042523Y02125D02*
G03*
X042523Y02125I-00315J0D01*
G01*
X02215Y01315D02*
G03*
X02215Y01315I-00315J0D01*
G01*
Y02125D02*
G03*
X02215Y02125I-00315J0D01*
G01*
X042523Y01315D02*
G03*
X042523Y01315I-00315J0D01*
G01*
X042519Y0317D02*
G03*
X042519Y0317I-001969J0D01*
G01*
X040412Y028108D02*
X04079D01*
X040412Y028801D02*
X04079D01*
X040412Y028108D02*
Y028801D01*
X04079Y028108D02*
Y028801D01*
X036261Y031114D02*
X036639D01*
X036261Y031807D02*
X036639D01*
X036261Y031114D02*
Y031807D01*
X036639Y031114D02*
Y031807D01*
X037793Y026771D02*
X039173D01*
X037793D02*
Y029332D01*
X039173D01*
Y026771D02*
Y029332D01*
X012422Y039043D02*
Y041957D01*
X010454Y039043D02*
X012422D01*
X010245Y038915D02*
Y042085D01*
X010454Y041957D02*
X010729D01*
X012422D01*
X010245Y042085D02*
X010454D01*
Y041957D02*
Y042085D01*
X010245Y038915D02*
X010454D01*
Y039043D01*
X042632Y034493D02*
Y037407D01*
X040368D02*
X042632D01*
X040368Y034493D02*
Y037407D01*
Y034493D02*
X042632D01*
X02128Y028108D02*
Y029092D01*
X02002Y028108D02*
X02128D01*
X02002Y029092D02*
X02128D01*
X02002Y028108D02*
Y029092D01*
X028669Y028293D02*
Y029278D01*
X029929D01*
X028669Y028293D02*
X029929D01*
Y029278D01*
X0231Y014D02*
X0359D01*
Y0205D01*
X0231D02*
X0359D01*
X0231Y014D02*
Y0205D01*
X027637Y023571D02*
X031637D01*
Y021919D02*
Y023571D01*
X027637Y021919D02*
X031637D01*
X027637D02*
Y023571D01*
X0313Y010929D02*
Y012581D01*
X0273D02*
X0313D01*
X0273Y010929D02*
Y012581D01*
Y010929D02*
X0313D01*
X03737Y025893D02*
X038D01*
X03737D02*
Y026207D01*
X038D01*
Y025893D02*
Y026207D01*
X010868Y030507D02*
X013132D01*
Y027593D02*
Y030507D01*
X010868Y027593D02*
X013132D01*
X010868D02*
Y030507D01*
X035888Y043582D02*
X037424D01*
Y041653D02*
Y043582D01*
X035888Y041653D02*
Y043582D01*
Y041653D02*
X037424D01*
X039675Y041385D02*
X041939D01*
X039675D02*
Y044299D01*
X041939D01*
Y041385D02*
Y044299D01*
X013239Y020709D02*
Y024606D01*
X015503D01*
Y020709D02*
Y024606D01*
X013239Y020709D02*
X015503D01*
X010725D02*
Y024606D01*
X012989D01*
Y020709D02*
Y024606D01*
X010725Y020709D02*
X012989D01*
X027143Y04404D02*
Y04467D01*
X027457D01*
Y04404D02*
Y04467D01*
X027143Y04404D02*
X027457D01*
X022907Y035461D02*
X029993D01*
X022907D02*
Y04302D01*
X029993D01*
Y035461D02*
Y04302D01*
X022907Y035461D02*
X029993D01*
X04195Y028845D02*
X042003Y028792D01*
X042108D01*
X04216Y028845D01*
Y029055D01*
X042108Y029107D01*
X042003D01*
X04195Y029055D01*
X041845Y029107D02*
X04174D01*
X041793D01*
Y028792D01*
X041845Y028845D01*
X041373Y028792D02*
X041583D01*
Y02895D01*
X041478Y028897D01*
X041425D01*
X041373Y02895D01*
Y029055D01*
X041425Y029107D01*
X04153D01*
X041583Y029055D01*
X04195Y027895D02*
X042003Y027842D01*
X042108D01*
X04216Y027895D01*
Y028105D01*
X042108Y028157D01*
X042003D01*
X04195Y028105D01*
X041845Y028157D02*
X04174D01*
X041793D01*
Y027842D01*
X041845Y027895D01*
X041425Y028157D02*
Y027842D01*
X041583Y028D01*
X041373D01*
X041817Y025895D02*
X04187Y025842D01*
X041975D01*
X042027Y025895D01*
Y026105D01*
X041975Y026157D01*
X04187D01*
X041817Y026105D01*
X041712Y025895D02*
X04166Y025842D01*
X041555D01*
X041503Y025895D01*
Y025947D01*
X041555Y026D01*
X041503Y026052D01*
Y026105D01*
X041555Y026157D01*
X04166D01*
X041712Y026105D01*
Y026052D01*
X04166Y026D01*
X041712Y025947D01*
Y025895D01*
X04166Y026D02*
X041555D01*
X041852Y026845D02*
X041905Y026792D01*
X04201D01*
X042062Y026845D01*
Y027055D01*
X04201Y027107D01*
X041905D01*
X041852Y027055D01*
X041747D02*
X041695Y027107D01*
X04159D01*
X041538Y027055D01*
Y026845D01*
X04159Y026792D01*
X041695D01*
X041747Y026845D01*
Y026897D01*
X041695Y02695D01*
X041538D01*
X037769Y031845D02*
X037821Y031792D01*
X037926D01*
X037979Y031845D01*
Y032055D01*
X037926Y032107D01*
X037821D01*
X037769Y032055D01*
X037664Y032107D02*
X037559D01*
X037611D01*
Y031792D01*
X037664Y031845D01*
X037401D02*
X037349Y031792D01*
X037244D01*
X037191Y031845D01*
Y031897D01*
X037244Y03195D01*
X037191Y032002D01*
Y032055D01*
X037244Y032107D01*
X037349D01*
X037401Y032055D01*
Y032002D01*
X037349Y03195D01*
X037401Y031897D01*
Y031845D01*
X037349Y03195D02*
X037244D01*
X03775Y030895D02*
X037803Y030842D01*
X037908D01*
X03796Y030895D01*
Y031105D01*
X037908Y031157D01*
X037803D01*
X03775Y031105D01*
X037645Y031157D02*
X03754D01*
X037593D01*
Y030842D01*
X037645Y030895D01*
X037383Y030842D02*
X037173D01*
Y030895D01*
X037383Y031105D01*
Y031157D01*
X03775Y029895D02*
X037803Y029842D01*
X037908D01*
X03796Y029895D01*
Y030105D01*
X037908Y030157D01*
X037803D01*
X03775Y030105D01*
X037645Y030157D02*
X03754D01*
X037593D01*
Y029842D01*
X037645Y029895D01*
X037173Y029842D02*
X037278Y029895D01*
X037383Y03D01*
Y030105D01*
X03733Y030157D01*
X037225D01*
X037173Y030105D01*
Y030052D01*
X037225Y03D01*
X037383D01*
X011141Y036901D02*
Y036586D01*
X011299Y036744D01*
X011089D01*
X014502Y036639D02*
X014449Y036586D01*
X014344D01*
X014292Y036639D01*
Y036691D01*
X014344Y036744D01*
X014397D01*
X014344D01*
X014292Y036796D01*
Y036848D01*
X014344Y036901D01*
X014449D01*
X014502Y036848D01*
X011088Y035199D02*
X011298D01*
X011088Y034989D01*
Y034937D01*
X01114Y034884D01*
X011245D01*
X011298Y034937D01*
X014401Y03515D02*
X014296D01*
X014349D01*
Y034835D01*
X014401Y034887D01*
X012417Y038457D02*
Y038142D01*
X01226D01*
X012207Y038195D01*
Y0383D01*
X01226Y038352D01*
X012417D01*
X012312D02*
X012207Y038457D01*
X012102Y038195D02*
X01205Y038142D01*
X011945D01*
X011893Y038195D01*
Y038247D01*
X011945Y0383D01*
X011997D01*
X011945D01*
X011893Y038352D01*
Y038405D01*
X011945Y038457D01*
X01205D01*
X012102Y038405D01*
X011788Y038457D02*
X011683D01*
X011735D01*
Y038142D01*
X011788Y038195D01*
X014194Y041207D02*
Y040892D01*
X014036D01*
X013984Y040945D01*
Y04105D01*
X014036Y041102D01*
X014194D01*
X014089D02*
X013984Y041207D01*
X013879D02*
X013774D01*
X013826D01*
Y040892D01*
X013879Y040945D01*
X013616Y041155D02*
X013564Y041207D01*
X013459D01*
X013406Y041155D01*
Y040945D01*
X013459Y040892D01*
X013564D01*
X013616Y040945D01*
Y040997D01*
X013564Y04105D01*
X013406D01*
X014209Y040357D02*
Y040042D01*
X014051D01*
X013999Y040095D01*
Y0402D01*
X014051Y040252D01*
X014209D01*
X014104D02*
X013999Y040357D01*
X013894D02*
X013789D01*
X013841D01*
Y040042D01*
X013894Y040095D01*
X013631D02*
X013579Y040042D01*
X013474D01*
X013421Y040095D01*
Y040147D01*
X013474Y0402D01*
X013421Y040252D01*
Y040305D01*
X013474Y040357D01*
X013579D01*
X013631Y040305D01*
Y040252D01*
X013579Y0402D01*
X013631Y040147D01*
Y040095D01*
X013579Y0402D02*
X013474D01*
X01997Y039857D02*
Y039542D01*
X019812D01*
X01976Y039595D01*
Y0397D01*
X019812Y039752D01*
X01997D01*
X019865D02*
X01976Y039857D01*
X019445D02*
X019655D01*
X019445Y039647D01*
Y039595D01*
X019497Y039542D01*
X019602D01*
X019655Y039595D01*
X01934D02*
X019288Y039542D01*
X019183D01*
X01913Y039595D01*
Y039805D01*
X019183Y039857D01*
X019288D01*
X01934Y039805D01*
Y039595D01*
X040829Y038038D02*
Y038352D01*
X040987D01*
X041039Y0383D01*
Y038195D01*
X040987Y038143D01*
X040829D01*
X040934D02*
X041039Y038038D01*
X041354D02*
X041144D01*
X041354Y038248D01*
Y0383D01*
X041301Y038352D01*
X041197D01*
X041144Y0383D01*
X041459Y03809D02*
X041511Y038038D01*
X041616D01*
X041669Y03809D01*
Y0383D01*
X041616Y038352D01*
X041511D01*
X041459Y0383D01*
Y038248D01*
X041511Y038195D01*
X041669D01*
X04167Y039307D02*
Y038992D01*
X041512D01*
X04146Y039045D01*
Y03915D01*
X041512Y039202D01*
X04167D01*
X041565D02*
X04146Y039307D01*
X041355Y039045D02*
X041302Y038992D01*
X041198D01*
X041145Y039045D01*
Y039097D01*
X041198Y03915D01*
X04125D01*
X041198D01*
X041145Y039202D01*
Y039255D01*
X041198Y039307D01*
X041302D01*
X041355Y039255D01*
X04104Y039045D02*
X040988Y038992D01*
X040883D01*
X04083Y039045D01*
Y039255D01*
X040883Y039307D01*
X040988D01*
X04104Y039255D01*
Y039045D01*
X037805Y04095D02*
X037858Y041002D01*
Y041107D01*
X037805Y04116D01*
X037595D01*
X037543Y041107D01*
Y041002D01*
X037595Y04095D01*
X037543Y040845D02*
Y04074D01*
Y040793D01*
X037858D01*
X037805Y040845D01*
X036335Y041107D02*
Y040792D01*
X036177D01*
X036125Y040845D01*
Y04095D01*
X036177Y041002D01*
X036335D01*
X03623D02*
X036125Y041107D01*
X03581D02*
X03602D01*
X03581Y040897D01*
Y040845D01*
X035862Y040792D01*
X035967D01*
X03602Y040845D01*
X035548Y041107D02*
Y040792D01*
X035705Y04095D01*
X035495D01*
X03644Y037705D02*
X036388Y037758D01*
X036283D01*
X03623Y037705D01*
Y037495D01*
X036283Y037443D01*
X036388D01*
X03644Y037495D01*
X036545Y037705D02*
X036598Y037758D01*
X036702D01*
X036755Y037705D01*
Y037653D01*
X036702Y0376D01*
X03665D01*
X036702D01*
X036755Y037548D01*
Y037495D01*
X036702Y037443D01*
X036598D01*
X036545Y037495D01*
X03707Y037758D02*
X03686D01*
Y0376D01*
X036965Y037653D01*
X037017D01*
X03707Y0376D01*
Y037495D01*
X037017Y037443D01*
X036912D01*
X03686Y037495D01*
X032207Y03343D02*
X031892D01*
Y033588D01*
X031945Y03364D01*
X03205D01*
X032102Y033588D01*
Y03343D01*
Y033535D02*
X032207Y03364D01*
Y033955D02*
Y033745D01*
X031997Y033955D01*
X031945D01*
X031892Y033902D01*
Y033798D01*
X031945Y033745D01*
X031892Y03427D02*
X031945Y034165D01*
X03205Y03406D01*
X032155D01*
X032207Y034112D01*
Y034217D01*
X032155Y03427D01*
X032102D01*
X03205Y034217D01*
Y03406D01*
X015993Y036177D02*
X016308D01*
Y03602D01*
X016255Y035967D01*
X01615D01*
X016098Y03602D01*
Y036177D01*
Y036072D02*
X015993Y035967D01*
X016255Y035862D02*
X016308Y03581D01*
Y035705D01*
X016255Y035653D01*
X016203D01*
X01615Y035705D01*
X016098Y035653D01*
X016045D01*
X015993Y035705D01*
Y03581D01*
X016045Y035862D01*
X016098D01*
X01615Y03581D01*
X016203Y035862D01*
X016255D01*
X01615Y03581D02*
Y035705D01*
X015355Y036125D02*
X015408Y036177D01*
Y036282D01*
X015355Y036335D01*
X015145D01*
X015093Y036282D01*
Y036177D01*
X015145Y036125D01*
X015093Y03581D02*
Y03602D01*
X015303Y03581D01*
X015355D01*
X015408Y035862D01*
Y035967D01*
X015355Y03602D01*
Y035705D02*
X015408Y035653D01*
Y035548D01*
X015355Y035495D01*
X015145D01*
X015093Y035548D01*
Y035653D01*
X015145Y035705D01*
X015355D01*
X015993Y03347D02*
X016308D01*
Y033312D01*
X016255Y03326D01*
X01615D01*
X016098Y033312D01*
Y03347D01*
Y033365D02*
X015993Y03326D01*
Y032945D02*
Y033155D01*
X016203Y032945D01*
X016255D01*
X016308Y032998D01*
Y033102D01*
X016255Y033155D01*
Y03284D02*
X016308Y032788D01*
Y032683D01*
X016255Y03263D01*
X016203D01*
X01615Y032683D01*
Y032735D01*
Y032683D01*
X016098Y03263D01*
X016045D01*
X015993Y032683D01*
Y032788D01*
X016045Y03284D01*
X015305Y03326D02*
X015358Y033312D01*
Y033417D01*
X015305Y03347D01*
X015095D01*
X015043Y033417D01*
Y033312D01*
X015095Y03326D01*
X015043Y032945D02*
Y033155D01*
X015253Y032945D01*
X015305D01*
X015358Y032998D01*
Y033102D01*
X015305Y033155D01*
X015358Y03263D02*
Y03284D01*
X0152D01*
X015253Y032735D01*
Y032683D01*
X0152Y03263D01*
X015095D01*
X015043Y032683D01*
Y032788D01*
X015095Y03284D01*
X015575Y031095D02*
X015627Y031042D01*
X015732D01*
X015785Y031095D01*
Y031305D01*
X015732Y031357D01*
X015627D01*
X015575Y031305D01*
X01547Y031095D02*
X015417Y031042D01*
X015312D01*
X01526Y031095D01*
Y031147D01*
X015312Y0312D01*
X015365D01*
X015312D01*
X01526Y031252D01*
Y031305D01*
X015312Y031357D01*
X015417D01*
X01547Y031305D01*
X014998Y031357D02*
Y031042D01*
X015155Y0312D01*
X014945D01*
X017695Y02939D02*
X017642Y029338D01*
Y029233D01*
X017695Y02918D01*
X017905D01*
X017957Y029233D01*
Y029338D01*
X017905Y02939D01*
X017695Y029495D02*
X017642Y029548D01*
Y029653D01*
X017695Y029705D01*
X017747D01*
X0178Y029653D01*
Y0296D01*
Y029653D01*
X017852Y029705D01*
X017905D01*
X017957Y029653D01*
Y029548D01*
X017905Y029495D01*
X017642Y02981D02*
Y03002D01*
X017695D01*
X017905Y02981D01*
X017957D01*
X015045Y027393D02*
Y027708D01*
X015203D01*
X015255Y027655D01*
Y02755D01*
X015203Y027498D01*
X015045D01*
X01515D02*
X015255Y027393D01*
X01557D02*
X01536D01*
X01557Y027603D01*
Y027655D01*
X015517Y027708D01*
X015413D01*
X01536Y027655D01*
X015675Y027708D02*
X015885D01*
Y027655D01*
X015675Y027445D01*
Y027393D01*
X01587Y026807D02*
Y026492D01*
X015712D01*
X01566Y026545D01*
Y02665D01*
X015712Y026702D01*
X01587D01*
X015765D02*
X01566Y026807D01*
X015345D02*
X015555D01*
X015345Y026597D01*
Y026545D01*
X015397Y026492D01*
X015502D01*
X015555Y026545D01*
X01524D02*
X015188Y026492D01*
X015083D01*
X01503Y026545D01*
Y026597D01*
X015083Y02665D01*
X01503Y026702D01*
Y026755D01*
X015083Y026807D01*
X015188D01*
X01524Y026755D01*
Y026702D01*
X015188Y02665D01*
X01524Y026597D01*
Y026545D01*
X015188Y02665D02*
X015083D01*
X019395Y02839D02*
X019342Y028338D01*
Y028233D01*
X019395Y02818D01*
X019605D01*
X019657Y028233D01*
Y028338D01*
X019605Y02839D01*
X019657Y028705D02*
Y028495D01*
X019447Y028705D01*
X019395D01*
X019342Y028653D01*
Y028548D01*
X019395Y028495D01*
X019342Y02881D02*
Y02902D01*
X019395D01*
X019605Y02881D01*
X019657D01*
X021855Y02881D02*
X021908Y028862D01*
Y028967D01*
X021855Y02902D01*
X021645D01*
X021593Y028967D01*
Y028862D01*
X021645Y02881D01*
X021593Y028495D02*
Y028705D01*
X021803Y028495D01*
X021855D01*
X021908Y028547D01*
Y028652D01*
X021855Y028705D01*
X021908Y02818D02*
X021855Y028285D01*
X02175Y02839D01*
X021645D01*
X021593Y028338D01*
Y028233D01*
X021645Y02818D01*
X021698D01*
X02175Y028233D01*
Y02839D01*
X027995Y02859D02*
X027942Y028538D01*
Y028433D01*
X027995Y02838D01*
X028205D01*
X028257Y028433D01*
Y028538D01*
X028205Y02859D01*
X028257Y028905D02*
Y028695D01*
X028047Y028905D01*
X027995D01*
X027942Y028853D01*
Y028748D01*
X027995Y028695D01*
X028205Y02901D02*
X028257Y029062D01*
Y029167D01*
X028205Y02922D01*
X027995D01*
X027942Y029167D01*
Y029062D01*
X027995Y02901D01*
X028047D01*
X0281Y029062D01*
Y02922D01*
X030605Y02901D02*
X030658Y029062D01*
Y029167D01*
X030605Y02922D01*
X030395D01*
X030343Y029167D01*
Y029062D01*
X030395Y02901D01*
X030343Y028695D02*
Y028905D01*
X030553Y028695D01*
X030605D01*
X030658Y028747D01*
Y028852D01*
X030605Y028905D01*
Y02859D02*
X030658Y028538D01*
Y028433D01*
X030605Y02838D01*
X030553D01*
X0305Y028433D01*
X030448Y02838D01*
X030395D01*
X030343Y028433D01*
Y028538D01*
X030395Y02859D01*
X030448D01*
X0305Y028538D01*
X030553Y02859D01*
X030605D01*
X0305Y028538D02*
Y028433D01*
X038773Y025893D02*
Y026208D01*
X03893D01*
X038983Y026155D01*
Y02605D01*
X03893Y025998D01*
X038773D01*
X038878D02*
X038983Y025893D01*
X039088Y026208D02*
X039297D01*
Y026155D01*
X039088Y025945D01*
Y025893D01*
X023857Y03343D02*
X023542D01*
Y033588D01*
X023595Y03364D01*
X0237D01*
X023752Y033588D01*
Y03343D01*
Y033535D02*
X023857Y03364D01*
Y033955D02*
Y033745D01*
X023647Y033955D01*
X023595D01*
X023542Y033902D01*
Y033798D01*
X023595Y033745D01*
X023542Y03427D02*
Y03406D01*
X0237D01*
X023647Y034165D01*
Y034217D01*
X0237Y03427D01*
X023805D01*
X023857Y034217D01*
Y034112D01*
X023805Y03406D01*
X037605Y034405D02*
X037553Y034458D01*
X037448D01*
X037395Y034405D01*
Y034195D01*
X037448Y034143D01*
X037553D01*
X037605Y034195D01*
X03771Y034405D02*
X037763Y034458D01*
X037867D01*
X03792Y034405D01*
Y034353D01*
X037867Y0343D01*
X037815D01*
X037867D01*
X03792Y034248D01*
Y034195D01*
X037867Y034143D01*
X037763D01*
X03771Y034195D01*
X038235Y034458D02*
X03813Y034405D01*
X038025Y0343D01*
Y034195D01*
X038077Y034143D01*
X038182D01*
X038235Y034195D01*
Y034248D01*
X038182Y0343D01*
X038025D01*
X024495Y03364D02*
X024442Y033588D01*
Y033483D01*
X024495Y03343D01*
X024705D01*
X024757Y033483D01*
Y033588D01*
X024705Y03364D01*
X024495Y033745D02*
X024442Y033798D01*
Y033902D01*
X024495Y033955D01*
X024547D01*
X0246Y033902D01*
Y03385D01*
Y033902D01*
X024652Y033955D01*
X024705D01*
X024757Y033902D01*
Y033798D01*
X024705Y033745D01*
X024757Y03427D02*
Y03406D01*
X024547Y03427D01*
X024495D01*
X024442Y034217D01*
Y034112D01*
X024495Y03406D01*
X032795Y03364D02*
X032742Y033588D01*
Y033483D01*
X032795Y03343D01*
X033005D01*
X033057Y033483D01*
Y033588D01*
X033005Y03364D01*
X032795Y033745D02*
X032742Y033798D01*
Y033902D01*
X032795Y033955D01*
X032847D01*
X0329Y033902D01*
Y03385D01*
Y033902D01*
X032952Y033955D01*
X033005D01*
X033057Y033902D01*
Y033798D01*
X033005Y033745D01*
X032795Y03406D02*
X032742Y034112D01*
Y034217D01*
X032795Y03427D01*
X033005D01*
X033057Y034217D01*
Y034112D01*
X033005Y03406D01*
X032795D01*
X021812Y041607D02*
Y041292D01*
X021655D01*
X021602Y041345D01*
Y04145D01*
X021655Y041502D01*
X021812D01*
X021707D02*
X021602Y041607D01*
X021497Y041555D02*
X021445Y041607D01*
X02134D01*
X021288Y041555D01*
Y041345D01*
X02134Y041292D01*
X021445D01*
X021497Y041345D01*
Y041397D01*
X021445Y04145D01*
X021288D01*
X021891Y043507D02*
Y043192D01*
X021734D01*
X021681Y043245D01*
Y04335D01*
X021734Y043402D01*
X021891D01*
X021786D02*
X021681Y043507D01*
X021576D02*
X021471D01*
X021524D01*
Y043192D01*
X021576Y043245D01*
X021314Y043507D02*
X021209D01*
X021261D01*
Y043192D01*
X021314Y043245D01*
X021959Y040607D02*
Y040292D01*
X021801D01*
X021749Y040345D01*
Y04045D01*
X021801Y040502D01*
X021959D01*
X021854D02*
X021749Y040607D01*
X021644D02*
X021539D01*
X021591D01*
Y040292D01*
X021644Y040345D01*
X021381D02*
X021329Y040292D01*
X021224D01*
X021171Y040345D01*
Y040555D01*
X021224Y040607D01*
X021329D01*
X021381Y040555D01*
Y040345D01*
X031395Y035924D02*
X031342Y035871D01*
Y035766D01*
X031395Y035714D01*
X031605D01*
X031657Y035766D01*
Y035871D01*
X031605Y035924D01*
X031657Y036238D02*
Y036029D01*
X031447Y036238D01*
X031395D01*
X031342Y036186D01*
Y036081D01*
X031395Y036029D01*
X031657Y036501D02*
X031342D01*
X0315Y036343D01*
Y036553D01*
X034395Y035924D02*
X034342Y035871D01*
Y035766D01*
X034395Y035714D01*
X034605D01*
X034657Y035766D01*
Y035871D01*
X034605Y035924D01*
X034657Y036238D02*
Y036029D01*
X034447Y036238D01*
X034395D01*
X034342Y036186D01*
Y036081D01*
X034395Y036029D01*
Y036343D02*
X034342Y036396D01*
Y036501D01*
X034395Y036553D01*
X034447D01*
X0345Y036501D01*
Y036448D01*
Y036501D01*
X034552Y036553D01*
X034605D01*
X034657Y036501D01*
Y036396D01*
X034605Y036343D01*
X032395Y035924D02*
X032342Y035871D01*
Y035766D01*
X032395Y035714D01*
X032605D01*
X032657Y035766D01*
Y035871D01*
X032605Y035924D01*
X032657Y036238D02*
Y036029D01*
X032447Y036238D01*
X032395D01*
X032342Y036186D01*
Y036081D01*
X032395Y036029D01*
X032657Y036553D02*
Y036343D01*
X032447Y036553D01*
X032395D01*
X032342Y036501D01*
Y036396D01*
X032395Y036343D01*
X033395Y035976D02*
X033342Y035924D01*
Y035819D01*
X033395Y035766D01*
X033605D01*
X033657Y035819D01*
Y035924D01*
X033605Y035976D01*
X033657Y036291D02*
Y036081D01*
X033447Y036291D01*
X033395D01*
X033342Y036238D01*
Y036133D01*
X033395Y036081D01*
X033657Y036396D02*
Y036501D01*
Y036448D01*
X033342D01*
X033395Y036396D01*
X019979Y043757D02*
Y043442D01*
X019821D01*
X019769Y043495D01*
Y0436D01*
X019821Y043652D01*
X019979D01*
X019874D02*
X019769Y043757D01*
X019664D02*
X019559D01*
X019611D01*
Y043442D01*
X019664Y043495D01*
X019191Y043757D02*
X019401D01*
X019191Y043547D01*
Y043495D01*
X019244Y043442D01*
X019349D01*
X019401Y043495D01*
X021894Y037307D02*
Y036992D01*
X021736D01*
X021684Y037045D01*
Y03715D01*
X021736Y037202D01*
X021894D01*
X021789D02*
X021684Y037307D01*
X021579D02*
X021474D01*
X021526D01*
Y036992D01*
X021579Y037045D01*
X021316D02*
X021264Y036992D01*
X021159D01*
X021106Y037045D01*
Y037097D01*
X021159Y03715D01*
X021211D01*
X021159D01*
X021106Y037202D01*
Y037255D01*
X021159Y037307D01*
X021264D01*
X021316Y037255D01*
X021894Y038357D02*
Y038042D01*
X021736D01*
X021684Y038095D01*
Y0382D01*
X021736Y038252D01*
X021894D01*
X021789D02*
X021684Y038357D01*
X021579D02*
X021474D01*
X021526D01*
Y038042D01*
X021579Y038095D01*
X021316Y038042D02*
X021106D01*
Y038095D01*
X021316Y038305D01*
Y038357D01*
X024743Y044709D02*
X025058D01*
Y044551D01*
X025005Y044499D01*
X0249D01*
X024848Y044551D01*
Y044709D01*
Y044604D02*
X024743Y044499D01*
Y044394D02*
Y044289D01*
Y044341D01*
X025058D01*
X025005Y044394D01*
X025058Y043921D02*
X025005Y044026D01*
X0249Y044131D01*
X024795D01*
X024743Y044079D01*
Y043974D01*
X024795Y043921D01*
X024848D01*
X0249Y043974D01*
Y044131D01*
X029643Y044809D02*
X029958D01*
Y044651D01*
X029905Y044599D01*
X0298D01*
X029748Y044651D01*
Y044809D01*
Y044704D02*
X029643Y044599D01*
Y044494D02*
Y044389D01*
Y044441D01*
X029958D01*
X029905Y044494D01*
X029958Y044021D02*
Y044231D01*
X0298D01*
X029853Y044126D01*
Y044074D01*
X0298Y044021D01*
X029695D01*
X029643Y044074D01*
Y044179D01*
X029695Y044231D01*
X023843Y044709D02*
X024158D01*
Y044551D01*
X024105Y044499D01*
X024D01*
X023948Y044551D01*
Y044709D01*
Y044604D02*
X023843Y044499D01*
Y044394D02*
Y044289D01*
Y044341D01*
X024158D01*
X024105Y044394D01*
X023843Y043974D02*
X024158D01*
X024Y044131D01*
Y043921D01*
X026343Y044717D02*
X026658D01*
Y04456D01*
X026605Y044507D01*
X0265D01*
X026448Y04456D01*
Y044717D01*
Y044612D02*
X026343Y044507D01*
Y044193D02*
Y044402D01*
X026553Y044193D01*
X026605D01*
X026658Y044245D01*
Y04435D01*
X026605Y044402D01*
X026343Y044088D02*
Y043983D01*
Y044035D01*
X026658D01*
X026605Y044088D01*
X02197Y042557D02*
Y042242D01*
X021812D01*
X02176Y042295D01*
Y0424D01*
X021812Y042452D01*
X02197D01*
X021865D02*
X02176Y042557D01*
X021445D02*
X021655D01*
X021445Y042347D01*
Y042295D01*
X021497Y042242D01*
X021602D01*
X021655Y042295D01*
X02113Y042557D02*
X02134D01*
X02113Y042347D01*
Y042295D01*
X021183Y042242D01*
X021288D01*
X02134Y042295D01*
X014451Y03235D02*
X014346D01*
X014399D01*
Y032035D01*
X014451Y032087D01*
X011138Y032399D02*
X011348D01*
X011138Y032189D01*
Y032137D01*
X01119Y032084D01*
X011295D01*
X011348Y032137D01*
X014552Y033839D02*
X014499Y033786D01*
X014394D01*
X014342Y033839D01*
Y033891D01*
X014394Y033944D01*
X014447D01*
X014394D01*
X014342Y033996D01*
Y034048D01*
X014394Y034101D01*
X014499D01*
X014552Y034048D01*
X011191Y034101D02*
Y033786D01*
X011349Y033944D01*
X011139D01*
D15*
X036699Y035005D02*
X037998D01*
X036699Y036895D02*
X037998D01*
Y035005D02*
Y036895D01*
X036502D02*
X036699D01*
X036502Y035005D02*
Y036895D01*
Y035005D02*
X036699D01*
X015252Y030495D02*
X016551D01*
X015252Y028605D02*
X016551D01*
X015252D02*
Y030495D01*
X016551Y028605D02*
X016748D01*
Y030495D01*
X016551D02*
X016748D01*
D16*
X01295Y0358D02*
G03*
X01295Y0358I-00025J0D01*
G01*
X013Y033D02*
G03*
X013Y033I-00025J0D01*
G01*
X0122Y0353D02*
X0132D01*
X0122D02*
Y0363D01*
X0132D01*
Y0353D02*
Y0363D01*
X01325Y0325D02*
Y0335D01*
X01225D02*
X01325D01*
X01225Y0325D02*
Y0335D01*
Y0325D02*
X01325D01*
D115*
X041452Y029107D02*
X042081D01*
X041452Y028793D02*
X042081D01*
X041452D02*
Y029107D01*
X042081Y028793D02*
Y029107D01*
X041452Y028157D02*
X042081D01*
X041452Y027843D02*
X042081D01*
X041452D02*
Y028157D01*
X042081Y027843D02*
Y028157D01*
X04145Y026157D02*
X04208D01*
X04145Y025843D02*
X04208D01*
X04145D02*
Y026157D01*
X04208Y025843D02*
Y026157D01*
X041485Y027107D02*
X042115D01*
X041485Y026793D02*
X042115D01*
X041485D02*
Y027107D01*
X042115Y026793D02*
Y027107D01*
X03727Y032107D02*
X0379D01*
X03727Y031793D02*
X0379D01*
X03727D02*
Y032107D01*
X0379Y031793D02*
Y032107D01*
X037252Y031157D02*
X037882D01*
X037252Y030843D02*
X037882D01*
X037252D02*
Y031157D01*
X037882Y030843D02*
Y031157D01*
X037252Y030157D02*
X037882D01*
X037252Y029843D02*
X037882D01*
X037252D02*
Y030157D01*
X037882Y029843D02*
Y030157D01*
X012365Y038143D02*
Y038457D01*
X011735Y038143D02*
Y038457D01*
Y038143D02*
X012365D01*
X011735Y038457D02*
X012365D01*
X014115Y040893D02*
Y041207D01*
X013485Y040893D02*
Y041207D01*
Y040893D02*
X014115D01*
X013485Y041207D02*
X014115D01*
X01413Y040043D02*
Y040357D01*
X0135Y040043D02*
Y040357D01*
Y040043D02*
X01413D01*
X0135Y040357D02*
X01413D01*
X019324Y041859D02*
X019876D01*
X019324Y043041D02*
X019876D01*
Y041859D02*
Y043041D01*
X019324Y041859D02*
Y043041D01*
X019865Y039543D02*
Y039857D01*
X019235Y039543D02*
Y039857D01*
Y039543D02*
X019865D01*
X019235Y039857D02*
X019865D01*
X019324Y040359D02*
X019876D01*
X019324Y041541D02*
X019876D01*
Y040359D02*
Y041541D01*
X019324Y040359D02*
Y041541D01*
X040934Y038037D02*
Y038352D01*
X041564Y038037D02*
Y038352D01*
X040934D02*
X041564D01*
X040934Y038037D02*
X041564D01*
X041565Y038993D02*
Y039307D01*
X040935Y038993D02*
Y039307D01*
Y038993D02*
X041565D01*
X040935Y039307D02*
X041565D01*
X037543Y041265D02*
X037857D01*
X037543Y040635D02*
X037857D01*
Y041265D01*
X037543Y040635D02*
Y041265D01*
X03623Y040793D02*
Y041107D01*
X0356Y040793D02*
Y041107D01*
Y040793D02*
X03623D01*
X0356Y041107D02*
X03623D01*
X036335Y037443D02*
X036965D01*
X036335Y037757D02*
X036965D01*
Y037443D02*
Y037757D01*
X036335Y037443D02*
Y037757D01*
X031893Y033535D02*
X032207D01*
X031893Y034165D02*
X032207D01*
X031893Y033535D02*
Y034165D01*
X032207Y033535D02*
Y034165D01*
X015993Y03623D02*
X016307D01*
X015993Y0356D02*
X016307D01*
Y03623D01*
X015993Y0356D02*
Y03623D01*
X015093Y0356D02*
Y03623D01*
X015407Y0356D02*
Y03623D01*
X015093Y0356D02*
X015407D01*
X015093Y03623D02*
X015407D01*
X015993Y033365D02*
X016307D01*
X015993Y032735D02*
X016307D01*
Y033365D01*
X015993Y032735D02*
Y033365D01*
X015043Y032735D02*
Y033365D01*
X015357Y032735D02*
Y033365D01*
X015043Y032735D02*
X015357D01*
X015043Y033365D02*
X015357D01*
X01505Y031357D02*
X01568D01*
X01505Y031043D02*
X01568D01*
X01505D02*
Y031357D01*
X01568Y031043D02*
Y031357D01*
X017957Y029285D02*
Y029915D01*
X017643Y029285D02*
Y029915D01*
X017957D01*
X017643Y029285D02*
X017957D01*
X01515Y027393D02*
Y027707D01*
X01578Y027393D02*
Y027707D01*
X01515D02*
X01578D01*
X01515Y027393D02*
X01578D01*
X015765Y026493D02*
Y026807D01*
X015135Y026493D02*
Y026807D01*
Y026493D02*
X015765D01*
X015135Y026807D02*
X015765D01*
X019343Y028285D02*
X019657D01*
X019343Y028915D02*
X019657D01*
X019343Y028285D02*
Y028915D01*
X019657Y028285D02*
Y028915D01*
X021593Y028915D02*
X021907D01*
X021593Y028285D02*
X021907D01*
Y028915D01*
X021593Y028285D02*
Y028915D01*
X028257Y028485D02*
Y029115D01*
X027943Y028485D02*
Y029115D01*
X028257D01*
X027943Y028485D02*
X028257D01*
X030343D02*
Y029115D01*
X030657Y028485D02*
Y029115D01*
X030343Y028485D02*
X030657D01*
X030343Y029115D02*
X030657D01*
X03872Y025893D02*
X03935D01*
X03872Y026207D02*
X03935D01*
Y025893D02*
Y026207D01*
X03872Y025893D02*
Y026207D01*
X023857Y033535D02*
Y034165D01*
X023543Y033535D02*
Y034165D01*
X023857D01*
X023543Y033535D02*
X023857D01*
X0375Y034143D02*
Y034457D01*
X03813Y034143D02*
Y034457D01*
X0375D02*
X03813D01*
X0375Y034143D02*
X03813D01*
X024443Y033535D02*
X024757D01*
X024443Y034165D02*
X024757D01*
X024443Y033535D02*
Y034165D01*
X024757Y033535D02*
Y034165D01*
X032743Y033535D02*
X033057D01*
X032743Y034165D02*
X033057D01*
X032743Y033535D02*
Y034165D01*
X033057Y033535D02*
Y034165D01*
X021235Y041607D02*
X021865D01*
X021235Y041293D02*
X021865D01*
X021235D02*
Y041607D01*
X021865Y041293D02*
Y041607D01*
X021235Y043507D02*
X021865D01*
X021235Y043193D02*
X021865D01*
X021235D02*
Y043507D01*
X021865Y043193D02*
Y043507D01*
X02125Y040607D02*
X02188D01*
X02125Y040293D02*
X02188D01*
X02125D02*
Y040607D01*
X02188Y040293D02*
Y040607D01*
X031343Y035819D02*
X031657D01*
X031343Y036448D02*
X031657D01*
X031343Y035819D02*
Y036448D01*
X031657Y035819D02*
Y036448D01*
X034343Y035819D02*
X034657D01*
X034343Y036448D02*
X034657D01*
X034343Y035819D02*
Y036448D01*
X034657Y035819D02*
Y036448D01*
X032343Y035819D02*
X032657D01*
X032343Y036448D02*
X032657D01*
X032343Y035819D02*
Y036448D01*
X032657Y035819D02*
Y036448D01*
X033343Y035819D02*
X033657D01*
X033343Y036448D02*
X033657D01*
X033343Y035819D02*
Y036448D01*
X033657Y035819D02*
Y036448D01*
X01927Y043757D02*
X0199D01*
X01927Y043443D02*
X0199D01*
X01927D02*
Y043757D01*
X0199Y043443D02*
Y043757D01*
X021185Y037307D02*
X021815D01*
X021185Y036993D02*
X021815D01*
X021185D02*
Y037307D01*
X021815Y036993D02*
Y037307D01*
X021185Y038357D02*
X021815D01*
X021185Y038043D02*
X021815D01*
X021185D02*
Y038357D01*
X021815Y038043D02*
Y038357D01*
X024743Y044D02*
Y04463D01*
X025057Y044D02*
Y04463D01*
X024743Y044D02*
X025057D01*
X024743Y04463D02*
X025057D01*
X029643Y0441D02*
Y04473D01*
X029957Y0441D02*
Y04473D01*
X029643Y0441D02*
X029957D01*
X029643Y04473D02*
X029957D01*
X023843Y044D02*
Y04463D01*
X024157Y044D02*
Y04463D01*
X023843Y044D02*
X024157D01*
X023843Y04463D02*
X024157D01*
X026343Y044035D02*
Y044665D01*
X026657Y044035D02*
Y044665D01*
X026343Y044035D02*
X026657D01*
X026343Y044665D02*
X026657D01*
X021235Y042557D02*
X021865D01*
X021235Y042243D02*
X021865D01*
X021235D02*
Y042557D01*
X021865Y042243D02*
Y042557D01*
M02*
