G04*
G04 #@! TF.GenerationSoftware,Altium Limited,Altium Designer,21.3.2 (30)*
G04*
G04 Layer_Color=128*
%FSTAX24Y24*%
%MOIN*%
G70*
G04*
G04 #@! TF.SameCoordinates,AAB4DB19-2E37-4297-9B89-C5A600987651*
G04*
G04*
G04 #@! TF.FilePolarity,Positive*
G04*
G01*
G75*
%ADD16C,0.0020*%
D16*
X036341Y043385D02*
X036459D01*
X0364Y043326D02*
Y043444D01*
X011202Y041878D02*
X011398D01*
X0113Y04178D02*
Y041976D01*
X011202Y039122D02*
X011398D01*
X0113Y039024D02*
Y03922D01*
X012255Y041484D02*
X012471D01*
X012363Y041376D02*
Y041593D01*
X012255Y039516D02*
X012471D01*
X012363Y039407D02*
Y039624D01*
X01122Y03669D02*
X01162D01*
X01142Y03649D02*
Y03689D01*
X01122Y03491D02*
X01162D01*
X01142Y03471D02*
Y03511D01*
X01378Y03669D02*
X01418D01*
X01398Y03649D02*
Y03689D01*
X01378Y03491D02*
X01418D01*
X01398Y03471D02*
Y03511D01*
X041087Y035458D02*
X0415D01*
X041293Y035251D02*
Y035665D01*
X041087Y036442D02*
X0415D01*
X041293Y036235D02*
Y036649D01*
X037691Y02125D02*
X038104D01*
X037897Y021043D02*
Y021457D01*
X040643Y02125D02*
X041057D01*
X04085Y021043D02*
Y021457D01*
X02913Y02005D02*
X02987D01*
X0295Y01968D02*
Y02042D01*
X02913Y01445D02*
X02987D01*
X0295Y01408D02*
Y01482D01*
X029375Y0225D02*
X029899D01*
X029637Y022238D02*
Y022762D01*
X028375Y0225D02*
X028899D01*
X028637Y022238D02*
Y022762D01*
X030375Y0225D02*
X030899D01*
X030637Y022238D02*
Y022762D01*
X017317Y01315D02*
X01773D01*
X017524Y012943D02*
Y013357D01*
X02027Y01315D02*
X020683D01*
X020476Y012943D02*
Y013357D01*
X020541Y015998D02*
X020659D01*
X0206Y015939D02*
Y016057D01*
X020315Y015624D02*
X020433D01*
X020374Y015565D02*
Y015683D01*
X020767Y015624D02*
X020885D01*
X020826Y015565D02*
Y015683D01*
X020541Y01525D02*
X020659D01*
X0206Y015191D02*
Y015309D01*
X017317Y02125D02*
X01773D01*
X017524Y021043D02*
Y021457D01*
X02027Y02125D02*
X020683D01*
X020476Y021043D02*
Y021457D01*
X037691Y01315D02*
X038104D01*
X037897Y012943D02*
Y013357D01*
X040643Y01315D02*
X041057D01*
X04085Y012943D02*
Y013357D01*
X010508Y0112D02*
X011492D01*
X011Y010708D02*
Y011692D01*
X042808Y011D02*
X043792D01*
X0433Y010508D02*
Y011492D01*
X042808Y04555D02*
X043792D01*
X0433Y045058D02*
Y046042D01*
X010358Y04555D02*
X011342D01*
X01085Y045058D02*
Y046042D01*
X0144Y01555D02*
X0149D01*
X01465Y0153D02*
Y0158D01*
X0119Y01555D02*
X0124D01*
X01215Y0153D02*
Y0158D01*
X0134Y01355D02*
X0139D01*
X01365Y0133D02*
Y0138D01*
X028038Y012D02*
X028562D01*
X0283Y011738D02*
Y012262D01*
X030038Y012D02*
X030562D01*
X0303Y011738D02*
Y012262D01*
X029038Y012D02*
X029562D01*
X0293Y011738D02*
Y012262D01*
X040393Y030716D02*
X040707D01*
X04055Y030558D02*
Y030873D01*
X040393Y032684D02*
X040707D01*
X04055Y032527D02*
Y032842D01*
X012Y028558D02*
X012413D01*
X012207Y028351D02*
Y028765D01*
X012Y029542D02*
X012413D01*
X012207Y029335D02*
Y029749D01*
X036853Y04185D02*
X036971D01*
X036912Y041791D02*
Y041909D01*
X036341Y04185D02*
X036459D01*
X0364Y041791D02*
Y041909D01*
X036853Y042362D02*
X036971D01*
X036912Y042303D02*
Y042421D01*
X036341Y042362D02*
X036459D01*
X0364Y042303D02*
Y042421D01*
X036853Y042874D02*
X036971D01*
X036912Y042815D02*
Y042933D01*
X036341Y042874D02*
X036459D01*
X0364Y042815D02*
Y042933D01*
X036853Y043385D02*
X036971D01*
X036912Y043326D02*
Y043444D01*
X040393Y043334D02*
X040807D01*
X0406Y043128D02*
Y043541D01*
X040393Y04235D02*
X040807D01*
X0406Y042143D02*
Y042557D01*
X014381Y021673D02*
X014774D01*
X014577Y021476D02*
Y02187D01*
X014381Y022657D02*
X014774D01*
X014577Y022461D02*
Y022854D01*
X014381Y023642D02*
X014774D01*
X014577Y023445D02*
Y023839D01*
X011867Y021673D02*
X01226D01*
X012064Y021476D02*
Y02187D01*
X011867Y022657D02*
X01226D01*
X012064Y022461D02*
Y022854D01*
X011867Y023642D02*
X01226D01*
X012064Y023445D02*
Y023839D01*
X01383Y03211D02*
X01423D01*
X01403Y03191D02*
Y03231D01*
X01383Y03389D02*
X01423D01*
X01403Y03369D02*
Y03409D01*
X01127Y03211D02*
X01167D01*
X01147Y03191D02*
Y03231D01*
X01127Y03389D02*
X01167D01*
X01147Y03369D02*
Y03409D01*
X026423Y038159D02*
X026542D01*
X026482Y0381D02*
Y038219D01*
X027146Y038159D02*
X027264D01*
X027205Y0381D02*
Y038219D01*
X027146Y038882D02*
X027264D01*
X027205Y038823D02*
Y038941D01*
X026423Y038882D02*
X026542D01*
X026482Y038823D02*
Y038941D01*
X026423Y039604D02*
X026542D01*
X026482Y039545D02*
Y039663D01*
X027146Y039604D02*
X027264D01*
X027205Y039545D02*
Y039663D01*
X015152Y0316D02*
X015348D01*
X01525Y031502D02*
Y031698D01*
X011052Y03105D02*
X011248D01*
X01115Y030952D02*
Y031148D01*
X012652Y0383D02*
X012848D01*
X01275Y038202D02*
Y038398D01*
X012252Y03865D02*
X012448D01*
X01235Y038552D02*
Y038748D01*
X038202Y04185D02*
X038398D01*
X0383Y041752D02*
Y041948D01*
X038391Y03205D02*
X038509D01*
X03845Y031991D02*
Y032109D01*
X038391Y0316D02*
X038509D01*
X03845Y031541D02*
Y031659D01*
X038391Y0311D02*
X038509D01*
X03845Y031041D02*
Y031159D01*
X038391Y03065D02*
X038509D01*
X03845Y030591D02*
Y030709D01*
X038391Y03025D02*
X038509D01*
X03845Y030191D02*
Y030309D01*
X038391Y0298D02*
X038509D01*
X03845Y029741D02*
Y029859D01*
X038741Y0298D02*
X038859D01*
X0388Y029741D02*
Y029859D01*
X038741Y03025D02*
X038859D01*
X0388Y030191D02*
Y030309D01*
X038741Y03065D02*
X038859D01*
X0388Y030591D02*
Y030709D01*
X038741Y0311D02*
X038859D01*
X0388Y031041D02*
Y031159D01*
X038741Y0316D02*
X038859D01*
X0388Y031541D02*
Y031659D01*
X038741Y03205D02*
X038859D01*
X0388Y031991D02*
Y032109D01*
X012752Y03995D02*
X012948D01*
X01285Y039852D02*
Y040048D01*
X017702Y02845D02*
X017898D01*
X0178Y028352D02*
Y028548D01*
X037314Y037642D02*
X037511D01*
X037412Y037543D02*
Y03774D01*
X036588Y036194D02*
X036726D01*
X036657Y036125D02*
Y036263D01*
X034352Y03325D02*
X034548D01*
X03445Y033152D02*
Y033348D01*
X020881Y04335D02*
X021019D01*
X02095Y043281D02*
Y043419D01*
X027222Y044993D02*
X02736D01*
X027291Y044924D02*
Y045062D01*
X031302Y0347D02*
X031498D01*
X0314Y034602D02*
Y034798D01*
X024131Y03355D02*
X024269D01*
X0242Y033481D02*
Y033619D01*
X024531Y03455D02*
X024669D01*
X0246Y034481D02*
Y034619D01*
X037431Y0347D02*
X037569D01*
X0375Y034631D02*
Y034769D01*
X036891Y0409D02*
X037009D01*
X03695Y040841D02*
Y040959D01*
X036891Y04135D02*
X037009D01*
X03695Y041291D02*
Y041409D01*
X029101Y036914D02*
X029298D01*
X029199Y036816D02*
Y037013D01*
X028602Y04345D02*
X028798D01*
X0287Y043352D02*
Y043548D01*
X029096Y042838D02*
X029293D01*
X029195Y042739D02*
Y042936D01*
X030061Y04473D02*
X030199D01*
X03013Y044661D02*
Y044799D01*
X026631Y04215D02*
X026769D01*
X0267Y042081D02*
Y042219D01*
X026631Y04355D02*
X026769D01*
X0267Y043481D02*
Y043619D01*
X018281Y04235D02*
X018419D01*
X01835Y042281D02*
Y042419D01*
X017881Y04265D02*
X018019D01*
X01795Y042581D02*
Y042719D01*
X015231Y04235D02*
X015369D01*
X0153Y042281D02*
Y042419D01*
X015731Y04265D02*
X015869D01*
X0158Y042581D02*
Y042719D01*
X018681Y03D02*
X018819D01*
X01875Y029931D02*
Y030069D01*
X027981Y03025D02*
X028119D01*
X02805Y030181D02*
Y030319D01*
X026781Y03025D02*
X026919D01*
X02685Y030181D02*
Y030319D01*
X027381Y03D02*
X027519D01*
X02745Y029931D02*
Y030069D01*
X033231Y03345D02*
X033369D01*
X0333Y033381D02*
Y033519D01*
X032831Y03315D02*
X032969D01*
X0329Y033081D02*
Y033219D01*
X030741Y03525D02*
X030859D01*
X0308Y035191D02*
Y035309D01*
X034591Y03525D02*
X034709D01*
X03465Y035191D02*
Y035309D01*
X034091Y03525D02*
X034209D01*
X03415Y035191D02*
Y035309D01*
X033291Y03525D02*
X033409D01*
X03335Y035191D02*
Y035309D01*
X032491Y03525D02*
X032609D01*
X03255Y035191D02*
Y035309D01*
X031891Y03525D02*
X032009D01*
X03195Y035191D02*
Y035309D01*
X031241Y03525D02*
X031359D01*
X0313Y035191D02*
Y035309D01*
X041827Y039159D02*
X041965D01*
X041896Y03909D02*
Y039227D01*
X041831Y0382D02*
X041969D01*
X0419Y038131D02*
Y038269D01*
X015981Y02665D02*
X016119D01*
X01605Y026581D02*
Y026719D01*
X024081Y04185D02*
X024219D01*
X02415Y041781D02*
Y041919D01*
X024081Y0391D02*
X024219D01*
X02415Y039031D02*
Y039169D01*
X022831Y0328D02*
X022969D01*
X0229Y032731D02*
Y032869D01*
X012831Y04105D02*
X012969D01*
X0129Y040981D02*
Y041119D01*
X016081Y03655D02*
X016219D01*
X01615Y036481D02*
Y036619D01*
X016081Y0337D02*
X016219D01*
X01615Y033631D02*
Y033769D01*
X020811Y035584D02*
X020949D01*
X02088Y035515D02*
Y035653D01*
X021731Y04095D02*
X021869D01*
X0218Y040881D02*
Y041019D01*
X022231Y0424D02*
X022369D01*
X0223Y042331D02*
Y042469D01*
X020831Y03515D02*
X020969D01*
X0209Y035081D02*
Y035219D01*
X03661Y036715D02*
X036747D01*
X036679Y036646D02*
Y036784D01*
X028031Y03375D02*
X028169D01*
X0281Y033681D02*
Y033819D01*
X036081Y0348D02*
X036219D01*
X03615Y034731D02*
Y034869D01*
X027981Y03425D02*
X028119D01*
X02805Y034181D02*
Y034319D01*
X017381Y0293D02*
X017519D01*
X01745Y029231D02*
Y029369D01*
X019281Y0303D02*
X019419D01*
X01935Y030231D02*
Y030369D01*
X015631Y03155D02*
X015769D01*
X0157Y031481D02*
Y031619D01*
X015881Y0312D02*
X016019D01*
X01595Y031131D02*
Y031269D01*
X017731Y03025D02*
X017869D01*
X0178Y030181D02*
Y030319D01*
X022431Y0359D02*
X022569D01*
X0225Y035831D02*
Y035969D01*
X023031Y0355D02*
X023169D01*
X0231Y035431D02*
Y035569D01*
X023631Y0359D02*
X023769D01*
X0237Y035831D02*
Y035969D01*
X028931Y04145D02*
X029069D01*
X029Y041381D02*
Y041519D01*
X028331Y04085D02*
X028469D01*
X0284Y040781D02*
Y040919D01*
X030181Y0318D02*
X030319D01*
X03025Y031731D02*
Y031869D01*
X030181Y0323D02*
X030319D01*
X03025Y032231D02*
Y032369D01*
X030181Y0328D02*
X030319D01*
X03025Y032731D02*
Y032869D01*
X022831Y0318D02*
X022969D01*
X0229Y031731D02*
Y031869D01*
X022831Y0323D02*
X022969D01*
X0229Y032231D02*
Y032369D01*
X036281Y0372D02*
X036419D01*
X03635Y037131D02*
Y037269D01*
X020881Y04045D02*
X021019D01*
X02095Y040381D02*
Y040519D01*
X024831Y04495D02*
X024969D01*
X0249Y044881D02*
Y045019D01*
X023931Y045D02*
X024069D01*
X024Y044931D02*
Y045069D01*
X019831Y043D02*
X019969D01*
X0199Y042931D02*
Y043069D01*
X019081Y0416D02*
X019219D01*
X01915Y041531D02*
Y041669D01*
X036241Y02745D02*
X036359D01*
X0363Y027391D02*
Y027509D01*
X036241Y028175D02*
X036359D01*
X0363Y028116D02*
Y028234D01*
X036241Y0289D02*
X036359D01*
X0363Y028841D02*
Y028959D01*
X021131Y01395D02*
X021269D01*
X0212Y013881D02*
Y014019D01*
X042691Y02515D02*
X042809D01*
X04275Y025091D02*
Y025209D01*
X042691Y0259D02*
X042809D01*
X04275Y025841D02*
Y025959D01*
X042691Y0266D02*
X042809D01*
X04275Y026541D02*
Y026659D01*
X042691Y0272D02*
X042809D01*
X04275Y027141D02*
Y027259D01*
X042691Y0278D02*
X042809D01*
X04275Y027741D02*
Y027859D01*
X042691Y02845D02*
X042809D01*
X04275Y028391D02*
Y028509D01*
X042691Y02905D02*
X042809D01*
X04275Y028991D02*
Y029109D01*
X040191Y0272D02*
X040309D01*
X04025Y027141D02*
Y027259D01*
X040191Y02665D02*
X040309D01*
X04025Y026591D02*
Y026709D01*
X040141Y0261D02*
X040259D01*
X0402Y026041D02*
Y026159D01*
X040141Y02565D02*
X040259D01*
X0402Y025591D02*
Y025709D01*
X040141Y0252D02*
X040259D01*
X0402Y025141D02*
Y025259D01*
X040591Y02565D02*
X040709D01*
X04065Y025591D02*
Y025709D01*
X040591Y02615D02*
X040709D01*
X04065Y026091D02*
Y026209D01*
X040591Y02665D02*
X040709D01*
X04065Y026591D02*
Y026709D01*
X040591Y02715D02*
X040709D01*
X04065Y027091D02*
Y027209D01*
X016791Y01055D02*
X016909D01*
X01685Y010491D02*
Y010609D01*
X017541Y01055D02*
X017659D01*
X0176Y010491D02*
Y010609D01*
X018291Y01055D02*
X018409D01*
X01835Y010491D02*
Y010609D01*
X019041Y01055D02*
X019159D01*
X0191Y010491D02*
Y010609D01*
X019791Y01055D02*
X019909D01*
X01985Y010491D02*
Y010609D01*
X019791Y0112D02*
X019909D01*
X01985Y011141D02*
Y011259D01*
X019041Y0112D02*
X019159D01*
X0191Y011141D02*
Y011259D01*
X018291Y0112D02*
X018409D01*
X01835Y011141D02*
Y011259D01*
X017541Y0112D02*
X017659D01*
X0176Y011141D02*
Y011259D01*
X016791Y0112D02*
X016909D01*
X01685Y011141D02*
Y011259D01*
X016791Y01185D02*
X016909D01*
X01685Y011791D02*
Y011909D01*
X017541Y01185D02*
X017659D01*
X0176Y011791D02*
Y011909D01*
X018291Y01185D02*
X018409D01*
X01835Y011791D02*
Y011909D01*
X019041Y01185D02*
X019159D01*
X0191Y011791D02*
Y011909D01*
X019791Y01185D02*
X019909D01*
X01985Y011791D02*
Y011909D01*
X018441Y0175D02*
X018559D01*
X0185Y017441D02*
Y017559D01*
X022931Y0145D02*
X023069D01*
X023Y014431D02*
Y014569D01*
X022581Y0148D02*
X022719D01*
X02265Y014731D02*
Y014869D01*
X023081Y01805D02*
X023219D01*
X02315Y017981D02*
Y018119D01*
X023581Y0175D02*
X023719D01*
X02365Y017431D02*
Y017569D01*
X031931Y0111D02*
X032069D01*
X032Y011031D02*
Y011169D01*
X021971Y015881D02*
X022089D01*
X02203Y015822D02*
Y01594D01*
X021648Y015884D02*
X021766D01*
X021707Y015825D02*
Y015943D01*
X021808Y01614D02*
X021927D01*
X021867Y016081D02*
Y016199D01*
X021798Y015073D02*
X021916D01*
X021857Y015014D02*
Y015132D01*
X021958Y015328D02*
X022077D01*
X022017Y015269D02*
Y015387D01*
X021635Y015332D02*
X021753D01*
X021694Y015273D02*
Y015391D01*
X015531Y01405D02*
X015669D01*
X0156Y013981D02*
Y014119D01*
X016031Y0136D02*
X016169D01*
X0161Y013531D02*
Y013669D01*
X018541Y0135D02*
X018659D01*
X0186Y013441D02*
Y013559D01*
X020769Y01647D02*
X020888D01*
X020828Y016411D02*
Y016529D01*
X020791Y01715D02*
X020909D01*
X02085Y017091D02*
Y017209D01*
X019791Y0164D02*
X019909D01*
X01985Y016341D02*
Y016459D01*
X019541Y0153D02*
X019659D01*
X0196Y015241D02*
Y015359D01*
X019704Y015596D02*
X019822D01*
X019763Y015537D02*
Y015655D01*
M02*
