G04*
G04 #@! TF.GenerationSoftware,Altium Limited,Altium Designer,21.3.2 (30)*
G04*
G04 Layer_Color=8388736*
%FSTAX24Y24*%
%MOIN*%
G70*
G04*
G04 #@! TF.SameCoordinates,AAB4DB19-2E37-4297-9B89-C5A600987651*
G04*
G04*
G04 #@! TF.FilePolarity,Negative*
G04*
G01*
G75*
%ADD43R,0.0474X0.0462*%
%ADD44R,0.0552X0.0631*%
%ADD45R,0.0671X0.0690*%
%ADD46R,0.0316X0.0474*%
%ADD47R,0.0316X0.0552*%
%ADD48R,0.0316X0.0592*%
%ADD49R,0.0454X0.0474*%
%ADD50R,0.0462X0.0474*%
G04:AMPARAMS|DCode=51|XSize=44.6mil|YSize=59.6mil|CornerRadius=6.7mil|HoleSize=0mil|Usage=FLASHONLY|Rotation=90.000|XOffset=0mil|YOffset=0mil|HoleType=Round|Shape=RoundedRectangle|*
%AMROUNDEDRECTD51*
21,1,0.0446,0.0461,0,0,90.0*
21,1,0.0311,0.0596,0,0,90.0*
1,1,0.0135,0.0230,0.0156*
1,1,0.0135,0.0230,-0.0156*
1,1,0.0135,-0.0230,-0.0156*
1,1,0.0135,-0.0230,0.0156*
%
%ADD51ROUNDEDRECTD51*%
G04:AMPARAMS|DCode=52|XSize=135.6mil|YSize=59.6mil|CornerRadius=7.9mil|HoleSize=0mil|Usage=FLASHONLY|Rotation=90.000|XOffset=0mil|YOffset=0mil|HoleType=Round|Shape=RoundedRectangle|*
%AMROUNDEDRECTD52*
21,1,0.1356,0.0438,0,0,90.0*
21,1,0.1198,0.0596,0,0,90.0*
1,1,0.0157,0.0219,0.0599*
1,1,0.0157,0.0219,-0.0599*
1,1,0.0157,-0.0219,-0.0599*
1,1,0.0157,-0.0219,0.0599*
%
%ADD52ROUNDEDRECTD52*%
%ADD53R,0.0611X0.0237*%
%ADD54R,0.0690X0.0671*%
%ADD55R,0.0474X0.0316*%
%ADD56R,0.0474X0.0454*%
%ADD57R,0.0592X0.0316*%
%ADD58R,0.0860X0.0300*%
%ADD59R,0.0631X0.0552*%
%ADD60R,0.0324X0.0304*%
G04:AMPARAMS|DCode=61|XSize=43.8mil|YSize=40.7mil|CornerRadius=12.7mil|HoleSize=0mil|Usage=FLASHONLY|Rotation=180.000|XOffset=0mil|YOffset=0mil|HoleType=Round|Shape=RoundedRectangle|*
%AMROUNDEDRECTD61*
21,1,0.0438,0.0154,0,0,180.0*
21,1,0.0185,0.0407,0,0,180.0*
1,1,0.0253,-0.0093,0.0077*
1,1,0.0253,0.0093,0.0077*
1,1,0.0253,0.0093,-0.0077*
1,1,0.0253,-0.0093,-0.0077*
%
%ADD61ROUNDEDRECTD61*%
G04:AMPARAMS|DCode=62|XSize=43.8mil|YSize=40.7mil|CornerRadius=12.7mil|HoleSize=0mil|Usage=FLASHONLY|Rotation=90.000|XOffset=0mil|YOffset=0mil|HoleType=Round|Shape=RoundedRectangle|*
%AMROUNDEDRECTD62*
21,1,0.0438,0.0154,0,0,90.0*
21,1,0.0185,0.0407,0,0,90.0*
1,1,0.0253,0.0077,0.0093*
1,1,0.0253,0.0077,-0.0093*
1,1,0.0253,-0.0077,-0.0093*
1,1,0.0253,-0.0077,0.0093*
%
%ADD62ROUNDEDRECTD62*%
%ADD63R,0.0552X0.0316*%
%ADD64R,0.0867X0.0434*%
%ADD65R,0.0434X0.0867*%
%ADD66R,0.0604X0.0604*%
%ADD67C,0.0316*%
%ADD68O,0.0610X0.0305*%
%ADD69O,0.0454X0.0592*%
%ADD70O,0.1280X0.0680*%
%ADD71R,0.0700X0.0700*%
%ADD72C,0.0700*%
%ADD73R,0.0631X0.0631*%
%ADD74C,0.0631*%
%ADD75C,0.1190*%
%ADD76C,0.0867*%
%ADD77R,0.0867X0.0867*%
%ADD78C,0.1458*%
%ADD79O,0.1080X0.1680*%
%ADD80O,0.1680X0.1080*%
%ADD81C,0.0595*%
%ADD82R,0.0595X0.0595*%
%ADD83C,0.0674*%
%ADD84R,0.0674X0.0674*%
%ADD85C,0.0474*%
%ADD86C,0.0356*%
G36*
X038035Y043513D02*
X038036D01*
X038037Y043513D01*
X038038D01*
X038039Y043512D01*
X03804Y043512D01*
X038041Y043511D01*
X038042Y043511D01*
X038043Y04351D01*
X038043Y043509D01*
X038044Y043509D01*
X038045Y043508D01*
X038046Y043507D01*
X038046Y043507D01*
X038047Y043506D01*
X038048Y043505D01*
X038048Y043504D01*
X038049Y043504D01*
X03805Y043503D01*
X03805Y043502D01*
X03805Y043501D01*
X038051Y0435D01*
Y043499D01*
X038051Y043498D01*
Y043497D01*
X038052Y043496D01*
Y043495D01*
Y043494D01*
Y043242D01*
Y043241D01*
Y04324D01*
X038051Y043239D01*
Y043238D01*
X038051Y043237D01*
Y043236D01*
X03805Y043235D01*
X03805Y043234D01*
X03805Y043233D01*
X038049Y043232D01*
X038048Y043231D01*
X038048Y04323D01*
X038047Y04323D01*
X038046Y043229D01*
X038046Y043228D01*
X038045Y043227D01*
X038044Y043226D01*
X038043Y043226D01*
X038043Y043225D01*
X038042Y043225D01*
X038041Y043224D01*
X03804Y043224D01*
X038039Y043223D01*
X038038Y043223D01*
X038037D01*
X038036Y043222D01*
X038035D01*
X038034Y043222D01*
X037404D01*
X037403Y043222D01*
X037402D01*
X037401Y043223D01*
X0374D01*
X037399Y043223D01*
X037398Y043224D01*
X037397Y043224D01*
X037396Y043225D01*
X037395Y043225D01*
X037394Y043226D01*
X037394Y043226D01*
X037393Y043227D01*
X037392Y043228D01*
X037391Y043229D01*
X037391Y04323D01*
X03739Y04323D01*
X037389Y043231D01*
X037389Y043232D01*
X037388Y043233D01*
X037388Y043234D01*
X037387Y043235D01*
X037387Y043236D01*
Y043237D01*
X037387Y043238D01*
Y043239D01*
X037386Y04324D01*
Y043241D01*
Y043242D01*
Y043494D01*
Y043495D01*
Y043496D01*
X037387Y043497D01*
Y043498D01*
X037387Y043499D01*
Y0435D01*
X037387Y043501D01*
X037388Y043502D01*
X037388Y043503D01*
X037389Y043504D01*
X037389Y043504D01*
X03739Y043505D01*
X037391Y043506D01*
X037391Y043507D01*
X037392Y043507D01*
X037393Y043508D01*
X037394Y043509D01*
X037394Y043509D01*
X037395Y04351D01*
X037396Y043511D01*
X037397Y043511D01*
X037398Y043512D01*
X037399Y043512D01*
X0374Y043513D01*
X037401D01*
X037402Y043513D01*
X037403D01*
X037404Y043513D01*
X038034D01*
X038035Y043513D01*
D02*
G37*
G36*
X035909D02*
X03591D01*
X035911Y043513D01*
X035912D01*
X035913Y043512D01*
X035914Y043512D01*
X035915Y043511D01*
X035916Y043511D01*
X035917Y04351D01*
X035917Y043509D01*
X035918Y043509D01*
X035919Y043508D01*
X03592Y043507D01*
X03592Y043507D01*
X035921Y043506D01*
X035922Y043505D01*
X035922Y043504D01*
X035923Y043504D01*
X035924Y043503D01*
X035924Y043502D01*
X035924Y043501D01*
X035925Y0435D01*
Y043499D01*
X035925Y043498D01*
Y043497D01*
X035926Y043496D01*
Y043495D01*
Y043494D01*
Y043242D01*
Y043241D01*
Y04324D01*
X035925Y043239D01*
Y043238D01*
X035925Y043237D01*
Y043236D01*
X035924Y043235D01*
X035924Y043234D01*
X035924Y043233D01*
X035923Y043232D01*
X035922Y043231D01*
X035922Y04323D01*
X035921Y04323D01*
X03592Y043229D01*
X03592Y043228D01*
X035919Y043227D01*
X035918Y043226D01*
X035917Y043226D01*
X035917Y043225D01*
X035916Y043225D01*
X035915Y043224D01*
X035914Y043224D01*
X035913Y043223D01*
X035912Y043223D01*
X035911D01*
X03591Y043222D01*
X035909D01*
X035908Y043222D01*
X035278D01*
X035277Y043222D01*
X035276D01*
X035275Y043223D01*
X035274D01*
X035273Y043223D01*
X035272Y043224D01*
X035271Y043224D01*
X03527Y043225D01*
X035269Y043225D01*
X035268Y043226D01*
X035268Y043226D01*
X035267Y043227D01*
X035266Y043228D01*
X035265Y043229D01*
X035265Y04323D01*
X035264Y04323D01*
X035263Y043231D01*
X035263Y043232D01*
X035262Y043233D01*
X035262Y043234D01*
X035261Y043235D01*
X035261Y043236D01*
Y043237D01*
X035261Y043238D01*
Y043239D01*
X03526Y04324D01*
Y043241D01*
Y043242D01*
Y043494D01*
Y043495D01*
Y043496D01*
X035261Y043497D01*
Y043498D01*
X035261Y043499D01*
Y0435D01*
X035261Y043501D01*
X035262Y043502D01*
X035262Y043503D01*
X035263Y043504D01*
X035263Y043504D01*
X035264Y043505D01*
X035265Y043506D01*
X035265Y043507D01*
X035266Y043507D01*
X035267Y043508D01*
X035268Y043509D01*
X035268Y043509D01*
X035269Y04351D01*
X03527Y043511D01*
X035271Y043511D01*
X035272Y043512D01*
X035273Y043512D01*
X035274Y043513D01*
X035275D01*
X035276Y043513D01*
X035277D01*
X035278Y043513D01*
X035908D01*
X035909Y043513D01*
D02*
G37*
G36*
X038035Y043013D02*
X038036D01*
X038037Y043013D01*
X038038D01*
X038039Y043012D01*
X03804Y043012D01*
X038041Y043011D01*
X038042Y043011D01*
X038043Y04301D01*
X038043Y043009D01*
X038044Y043009D01*
X038045Y043008D01*
X038046Y043007D01*
X038046Y043007D01*
X038047Y043006D01*
X038048Y043005D01*
X038048Y043004D01*
X038049Y043004D01*
X03805Y043003D01*
X03805Y043002D01*
X03805Y043001D01*
X038051Y043D01*
Y042999D01*
X038051Y042998D01*
Y042997D01*
X038052Y042996D01*
Y042995D01*
Y042994D01*
Y042742D01*
Y042741D01*
Y04274D01*
X038051Y042739D01*
Y042738D01*
X038051Y042737D01*
Y042736D01*
X03805Y042735D01*
X03805Y042734D01*
X03805Y042733D01*
X038049Y042732D01*
X038048Y042731D01*
X038048Y04273D01*
X038047Y04273D01*
X038046Y042729D01*
X038046Y042728D01*
X038045Y042727D01*
X038044Y042726D01*
X038043Y042726D01*
X038043Y042725D01*
X038042Y042725D01*
X038041Y042724D01*
X03804Y042724D01*
X038039Y042723D01*
X038038Y042723D01*
X038037D01*
X038036Y042722D01*
X038035D01*
X038034Y042722D01*
X037404D01*
X037403Y042722D01*
X037402D01*
X037401Y042723D01*
X0374D01*
X037399Y042723D01*
X037398Y042724D01*
X037397Y042724D01*
X037396Y042725D01*
X037395Y042725D01*
X037394Y042726D01*
X037394Y042726D01*
X037393Y042727D01*
X037392Y042728D01*
X037391Y042729D01*
X037391Y04273D01*
X03739Y04273D01*
X037389Y042731D01*
X037389Y042732D01*
X037388Y042733D01*
X037388Y042734D01*
X037387Y042735D01*
X037387Y042736D01*
Y042737D01*
X037387Y042738D01*
Y042739D01*
X037386Y04274D01*
Y042741D01*
Y042742D01*
Y042994D01*
Y042995D01*
Y042996D01*
X037387Y042997D01*
Y042998D01*
X037387Y042999D01*
Y043D01*
X037387Y043001D01*
X037388Y043002D01*
X037388Y043003D01*
X037389Y043004D01*
X037389Y043004D01*
X03739Y043005D01*
X037391Y043006D01*
X037391Y043007D01*
X037392Y043007D01*
X037393Y043008D01*
X037394Y043009D01*
X037394Y043009D01*
X037395Y04301D01*
X037396Y043011D01*
X037397Y043011D01*
X037398Y043012D01*
X037399Y043012D01*
X0374Y043013D01*
X037401D01*
X037402Y043013D01*
X037403D01*
X037404Y043013D01*
X038034D01*
X038035Y043013D01*
D02*
G37*
G36*
X035909D02*
X03591D01*
X035911Y043013D01*
X035912D01*
X035913Y043012D01*
X035914Y043012D01*
X035915Y043011D01*
X035916Y043011D01*
X035917Y04301D01*
X035917Y043009D01*
X035918Y043009D01*
X035919Y043008D01*
X03592Y043007D01*
X03592Y043007D01*
X035921Y043006D01*
X035922Y043005D01*
X035922Y043004D01*
X035923Y043004D01*
X035924Y043003D01*
X035924Y043002D01*
X035924Y043001D01*
X035925Y043D01*
Y042999D01*
X035925Y042998D01*
Y042997D01*
X035926Y042996D01*
Y042995D01*
Y042994D01*
Y042742D01*
Y042741D01*
Y04274D01*
X035925Y042739D01*
Y042738D01*
X035925Y042737D01*
Y042736D01*
X035924Y042735D01*
X035924Y042734D01*
X035924Y042733D01*
X035923Y042732D01*
X035922Y042731D01*
X035922Y04273D01*
X035921Y04273D01*
X03592Y042729D01*
X03592Y042728D01*
X035919Y042727D01*
X035918Y042726D01*
X035917Y042726D01*
X035917Y042725D01*
X035916Y042725D01*
X035915Y042724D01*
X035914Y042724D01*
X035913Y042723D01*
X035912Y042723D01*
X035911D01*
X03591Y042722D01*
X035909D01*
X035908Y042722D01*
X035278D01*
X035277Y042722D01*
X035276D01*
X035275Y042723D01*
X035274D01*
X035273Y042723D01*
X035272Y042724D01*
X035271Y042724D01*
X03527Y042725D01*
X035269Y042725D01*
X035268Y042726D01*
X035268Y042726D01*
X035267Y042727D01*
X035266Y042728D01*
X035265Y042729D01*
X035265Y04273D01*
X035264Y04273D01*
X035263Y042731D01*
X035263Y042732D01*
X035262Y042733D01*
X035262Y042734D01*
X035261Y042735D01*
X035261Y042736D01*
Y042737D01*
X035261Y042738D01*
Y042739D01*
X03526Y04274D01*
Y042741D01*
Y042742D01*
Y042994D01*
Y042995D01*
Y042996D01*
X035261Y042997D01*
Y042998D01*
X035261Y042999D01*
Y043D01*
X035261Y043001D01*
X035262Y043002D01*
X035262Y043003D01*
X035263Y043004D01*
X035263Y043004D01*
X035264Y043005D01*
X035265Y043006D01*
X035265Y043007D01*
X035266Y043007D01*
X035267Y043008D01*
X035268Y043009D01*
X035268Y043009D01*
X035269Y04301D01*
X03527Y043011D01*
X035271Y043011D01*
X035272Y043012D01*
X035273Y043012D01*
X035274Y043013D01*
X035275D01*
X035276Y043013D01*
X035277D01*
X035278Y043013D01*
X035908D01*
X035909Y043013D01*
D02*
G37*
G36*
X038035Y042513D02*
X038036D01*
X038037Y042513D01*
X038038D01*
X038039Y042512D01*
X03804Y042512D01*
X038041Y042511D01*
X038042Y042511D01*
X038043Y04251D01*
X038043Y042509D01*
X038044Y042509D01*
X038045Y042508D01*
X038046Y042507D01*
X038046Y042507D01*
X038047Y042506D01*
X038048Y042505D01*
X038048Y042504D01*
X038049Y042504D01*
X03805Y042503D01*
X03805Y042502D01*
X03805Y042501D01*
X038051Y0425D01*
Y042499D01*
X038051Y042498D01*
Y042497D01*
X038052Y042496D01*
Y042495D01*
Y042494D01*
Y042242D01*
Y042241D01*
Y04224D01*
X038051Y042239D01*
Y042238D01*
X038051Y042237D01*
Y042236D01*
X03805Y042235D01*
X03805Y042234D01*
X03805Y042233D01*
X038049Y042232D01*
X038048Y042231D01*
X038048Y04223D01*
X038047Y04223D01*
X038046Y042229D01*
X038046Y042228D01*
X038045Y042227D01*
X038044Y042226D01*
X038043Y042226D01*
X038043Y042225D01*
X038042Y042225D01*
X038041Y042224D01*
X03804Y042224D01*
X038039Y042223D01*
X038038Y042223D01*
X038037D01*
X038036Y042222D01*
X038035D01*
X038034Y042222D01*
X037404D01*
X037403Y042222D01*
X037402D01*
X037401Y042223D01*
X0374D01*
X037399Y042223D01*
X037398Y042224D01*
X037397Y042224D01*
X037396Y042225D01*
X037395Y042225D01*
X037394Y042226D01*
X037394Y042226D01*
X037393Y042227D01*
X037392Y042228D01*
X037391Y042229D01*
X037391Y04223D01*
X03739Y04223D01*
X037389Y042231D01*
X037389Y042232D01*
X037388Y042233D01*
X037388Y042234D01*
X037387Y042235D01*
X037387Y042236D01*
Y042237D01*
X037387Y042238D01*
Y042239D01*
X037386Y04224D01*
Y042241D01*
Y042242D01*
Y042494D01*
Y042495D01*
Y042496D01*
X037387Y042497D01*
Y042498D01*
X037387Y042499D01*
Y0425D01*
X037387Y042501D01*
X037388Y042502D01*
X037388Y042503D01*
X037389Y042504D01*
X037389Y042504D01*
X03739Y042505D01*
X037391Y042506D01*
X037391Y042507D01*
X037392Y042507D01*
X037393Y042508D01*
X037394Y042509D01*
X037394Y042509D01*
X037395Y04251D01*
X037396Y042511D01*
X037397Y042511D01*
X037398Y042512D01*
X037399Y042512D01*
X0374Y042513D01*
X037401D01*
X037402Y042513D01*
X037403D01*
X037404Y042513D01*
X038034D01*
X038035Y042513D01*
D02*
G37*
G36*
X035909D02*
X03591D01*
X035911Y042513D01*
X035912D01*
X035913Y042512D01*
X035914Y042512D01*
X035915Y042511D01*
X035916Y042511D01*
X035917Y04251D01*
X035917Y042509D01*
X035918Y042509D01*
X035919Y042508D01*
X03592Y042507D01*
X03592Y042507D01*
X035921Y042506D01*
X035922Y042505D01*
X035922Y042504D01*
X035923Y042504D01*
X035924Y042503D01*
X035924Y042502D01*
X035924Y042501D01*
X035925Y0425D01*
Y042499D01*
X035925Y042498D01*
Y042497D01*
X035926Y042496D01*
Y042495D01*
Y042494D01*
Y042242D01*
Y042241D01*
Y04224D01*
X035925Y042239D01*
Y042238D01*
X035925Y042237D01*
Y042236D01*
X035924Y042235D01*
X035924Y042234D01*
X035924Y042233D01*
X035923Y042232D01*
X035922Y042231D01*
X035922Y04223D01*
X035921Y04223D01*
X03592Y042229D01*
X03592Y042228D01*
X035919Y042227D01*
X035918Y042226D01*
X035917Y042226D01*
X035917Y042225D01*
X035916Y042225D01*
X035915Y042224D01*
X035914Y042224D01*
X035913Y042223D01*
X035912Y042223D01*
X035911D01*
X03591Y042222D01*
X035909D01*
X035908Y042222D01*
X035278D01*
X035277Y042222D01*
X035276D01*
X035275Y042223D01*
X035274D01*
X035273Y042223D01*
X035272Y042224D01*
X035271Y042224D01*
X03527Y042225D01*
X035269Y042225D01*
X035268Y042226D01*
X035268Y042226D01*
X035267Y042227D01*
X035266Y042228D01*
X035265Y042229D01*
X035265Y04223D01*
X035264Y04223D01*
X035263Y042231D01*
X035263Y042232D01*
X035262Y042233D01*
X035262Y042234D01*
X035261Y042235D01*
X035261Y042236D01*
Y042237D01*
X035261Y042238D01*
Y042239D01*
X03526Y04224D01*
Y042241D01*
Y042242D01*
Y042494D01*
Y042495D01*
Y042496D01*
X035261Y042497D01*
Y042498D01*
X035261Y042499D01*
Y0425D01*
X035261Y042501D01*
X035262Y042502D01*
X035262Y042503D01*
X035263Y042504D01*
X035263Y042504D01*
X035264Y042505D01*
X035265Y042506D01*
X035265Y042507D01*
X035266Y042507D01*
X035267Y042508D01*
X035268Y042509D01*
X035268Y042509D01*
X035269Y04251D01*
X03527Y042511D01*
X035271Y042511D01*
X035272Y042512D01*
X035273Y042512D01*
X035274Y042513D01*
X035275D01*
X035276Y042513D01*
X035277D01*
X035278Y042513D01*
X035908D01*
X035909Y042513D01*
D02*
G37*
G36*
X037189Y041948D02*
X036122D01*
Y043287D01*
X037189D01*
Y041948D01*
D02*
G37*
G36*
X038035Y042013D02*
X038036D01*
X038037Y042013D01*
X038038D01*
X038039Y042012D01*
X03804Y042012D01*
X038041Y042011D01*
X038042Y042011D01*
X038043Y04201D01*
X038043Y042009D01*
X038044Y042009D01*
X038045Y042008D01*
X038046Y042007D01*
X038046Y042007D01*
X038047Y042006D01*
X038048Y042005D01*
X038048Y042004D01*
X038049Y042004D01*
X03805Y042003D01*
X03805Y042002D01*
X03805Y042001D01*
X038051Y042D01*
Y041999D01*
X038051Y041998D01*
Y041997D01*
X038052Y041996D01*
Y041995D01*
Y041994D01*
Y041742D01*
Y041741D01*
Y04174D01*
X038051Y041739D01*
Y041738D01*
X038051Y041737D01*
Y041736D01*
X03805Y041735D01*
X03805Y041734D01*
X03805Y041733D01*
X038049Y041732D01*
X038048Y041731D01*
X038048Y04173D01*
X038047Y04173D01*
X038046Y041729D01*
X038046Y041728D01*
X038045Y041727D01*
X038044Y041726D01*
X038043Y041726D01*
X038043Y041725D01*
X038042Y041725D01*
X038041Y041724D01*
X03804Y041724D01*
X038039Y041723D01*
X038038Y041723D01*
X038037D01*
X038036Y041722D01*
X038035D01*
X038034Y041722D01*
X037404D01*
X037403Y041722D01*
X037402D01*
X037401Y041723D01*
X0374D01*
X037399Y041723D01*
X037398Y041724D01*
X037397Y041724D01*
X037396Y041725D01*
X037395Y041725D01*
X037394Y041726D01*
X037394Y041726D01*
X037393Y041727D01*
X037392Y041728D01*
X037391Y041729D01*
X037391Y04173D01*
X03739Y04173D01*
X037389Y041731D01*
X037389Y041732D01*
X037388Y041733D01*
X037388Y041734D01*
X037387Y041735D01*
X037387Y041736D01*
Y041737D01*
X037387Y041738D01*
Y041739D01*
X037386Y04174D01*
Y041741D01*
Y041742D01*
Y041994D01*
Y041995D01*
Y041996D01*
X037387Y041997D01*
Y041998D01*
X037387Y041999D01*
Y042D01*
X037387Y042001D01*
X037388Y042002D01*
X037388Y042003D01*
X037389Y042004D01*
X037389Y042004D01*
X03739Y042005D01*
X037391Y042006D01*
X037391Y042007D01*
X037392Y042007D01*
X037393Y042008D01*
X037394Y042009D01*
X037394Y042009D01*
X037395Y04201D01*
X037396Y042011D01*
X037397Y042011D01*
X037398Y042012D01*
X037399Y042012D01*
X0374Y042013D01*
X037401D01*
X037402Y042013D01*
X037403D01*
X037404Y042013D01*
X038034D01*
X038035Y042013D01*
D02*
G37*
G36*
X035909D02*
X03591D01*
X035911Y042013D01*
X035912D01*
X035913Y042012D01*
X035914Y042012D01*
X035915Y042011D01*
X035916Y042011D01*
X035917Y04201D01*
X035917Y042009D01*
X035918Y042009D01*
X035919Y042008D01*
X03592Y042007D01*
X03592Y042007D01*
X035921Y042006D01*
X035922Y042005D01*
X035922Y042004D01*
X035923Y042004D01*
X035924Y042003D01*
X035924Y042002D01*
X035924Y042001D01*
X035925Y042D01*
Y041999D01*
X035925Y041998D01*
Y041997D01*
X035926Y041996D01*
Y041995D01*
Y041994D01*
Y041742D01*
Y041741D01*
Y04174D01*
X035925Y041739D01*
Y041738D01*
X035925Y041737D01*
Y041736D01*
X035924Y041735D01*
X035924Y041734D01*
X035924Y041733D01*
X035923Y041732D01*
X035922Y041731D01*
X035922Y04173D01*
X035921Y04173D01*
X03592Y041729D01*
X03592Y041728D01*
X035919Y041727D01*
X035918Y041726D01*
X035917Y041726D01*
X035917Y041725D01*
X035916Y041725D01*
X035915Y041724D01*
X035914Y041724D01*
X035913Y041723D01*
X035912Y041723D01*
X035911D01*
X03591Y041722D01*
X035909D01*
X035908Y041722D01*
X035278D01*
X035277Y041722D01*
X035276D01*
X035275Y041723D01*
X035274D01*
X035273Y041723D01*
X035272Y041724D01*
X035271Y041724D01*
X03527Y041725D01*
X035269Y041725D01*
X035268Y041726D01*
X035268Y041726D01*
X035267Y041727D01*
X035266Y041728D01*
X035265Y041729D01*
X035265Y04173D01*
X035264Y04173D01*
X035263Y041731D01*
X035263Y041732D01*
X035262Y041733D01*
X035262Y041734D01*
X035261Y041735D01*
X035261Y041736D01*
Y041737D01*
X035261Y041738D01*
Y041739D01*
X03526Y04174D01*
Y041741D01*
Y041742D01*
Y041994D01*
Y041995D01*
Y041996D01*
X035261Y041997D01*
Y041998D01*
X035261Y041999D01*
Y042D01*
X035261Y042001D01*
X035262Y042002D01*
X035262Y042003D01*
X035263Y042004D01*
X035263Y042004D01*
X035264Y042005D01*
X035265Y042006D01*
X035265Y042007D01*
X035266Y042007D01*
X035267Y042008D01*
X035268Y042009D01*
X035268Y042009D01*
X035269Y04201D01*
X03527Y042011D01*
X035271Y042011D01*
X035272Y042012D01*
X035273Y042012D01*
X035274Y042013D01*
X035275D01*
X035276Y042013D01*
X035277D01*
X035278Y042013D01*
X035908D01*
X035909Y042013D01*
D02*
G37*
G36*
X01142Y042092D02*
X011433Y042091D01*
X011445Y04209D01*
X011457Y042087D01*
X011469Y042085D01*
X011481Y042081D01*
X011493Y042077D01*
X011504Y042072D01*
X011515Y042067D01*
X011526Y042061D01*
X011537Y042054D01*
X011547Y042047D01*
X011557Y04204D01*
X011566Y042032D01*
X011575Y042023D01*
X011584Y042014D01*
X011592Y042005D01*
X011599Y041995D01*
X011606Y041985D01*
X011613Y041974D01*
X011619Y041963D01*
X011624Y041952D01*
X011629Y041941D01*
X011633Y041929D01*
X011637Y041917D01*
X011639Y041906D01*
X011642Y041893D01*
X011643Y041881D01*
X011644Y041869D01*
X011644Y041856D01*
Y041366D01*
X010956D01*
Y041856D01*
X010956Y041869D01*
X010957Y041881D01*
X010958Y041893D01*
X010961Y041906D01*
X010963Y041917D01*
X010967Y041929D01*
X010971Y041941D01*
X010976Y041952D01*
X010981Y041963D01*
X010987Y041974D01*
X010994Y041985D01*
X011001Y041995D01*
X011008Y042005D01*
X011016Y042014D01*
X011025Y042023D01*
X011034Y042032D01*
X011043Y04204D01*
X011053Y042047D01*
X011063Y042054D01*
X011074Y042061D01*
X011085Y042067D01*
X011096Y042072D01*
X011107Y042077D01*
X011119Y042081D01*
X011131Y042085D01*
X011143Y042087D01*
X011155Y04209D01*
X011167Y042091D01*
X01118Y042092D01*
X011192Y042093D01*
X011408D01*
X01142Y042092D01*
D02*
G37*
G36*
X011644Y039144D02*
X011644Y039132D01*
X011643Y039119D01*
X011642Y039107D01*
X011639Y039094D01*
X011637Y039083D01*
X011633Y039071D01*
X011629Y039059D01*
X011624Y039048D01*
X011619Y039037D01*
X011613Y039026D01*
X011606Y039015D01*
X011599Y039005D01*
X011592Y038995D01*
X011584Y038986D01*
X011575Y038977D01*
X011566Y038968D01*
X011557Y03896D01*
X011547Y038953D01*
X011537Y038946D01*
X011526Y038939D01*
X011515Y038933D01*
X011504Y038928D01*
X011493Y038923D01*
X011481Y038919D01*
X011469Y038915D01*
X011457Y038913D01*
X011445Y03891D01*
X011433Y038909D01*
X01142Y038908D01*
X011408Y038907D01*
X011192D01*
X01118Y038908D01*
X011167Y038909D01*
X011155Y03891D01*
X011143Y038913D01*
X011131Y038915D01*
X011119Y038919D01*
X011107Y038923D01*
X011096Y038928D01*
X011085Y038933D01*
X011074Y038939D01*
X011063Y038946D01*
X011053Y038953D01*
X011043Y03896D01*
X011034Y038968D01*
X011025Y038977D01*
X011016Y038986D01*
X011008Y038995D01*
X011001Y039005D01*
X010994Y039015D01*
X010987Y039026D01*
X010981Y039037D01*
X010976Y039048D01*
X010971Y039059D01*
X010967Y039071D01*
X010963Y039083D01*
X010961Y039094D01*
X010958Y039107D01*
X010957Y039119D01*
X010956Y039132D01*
X010956Y039144D01*
Y039634D01*
X011644D01*
Y039144D01*
D02*
G37*
D43*
X026482Y039604D02*
D03*
D44*
X027205D02*
D03*
X026121Y039243D02*
D03*
D45*
X026844D02*
D03*
D46*
X027566D02*
D03*
X026482Y038882D02*
D03*
X026121Y038521D02*
D03*
X026844D02*
D03*
D47*
X027566D02*
D03*
D48*
X027205Y038882D02*
D03*
Y038159D02*
D03*
X026482D02*
D03*
D49*
X042081Y02895D02*
D03*
X041452D02*
D03*
X042081Y028D02*
D03*
X041452D02*
D03*
X04208Y026D02*
D03*
X04145D02*
D03*
X042115Y02695D02*
D03*
X041485D02*
D03*
X0379Y03195D02*
D03*
X03727D02*
D03*
X037882Y031D02*
D03*
X037252D02*
D03*
X037882Y03D02*
D03*
X037252D02*
D03*
X011735Y0383D02*
D03*
X012365D02*
D03*
X013485Y04105D02*
D03*
X014115D02*
D03*
X0135Y0402D02*
D03*
X01413D02*
D03*
X019235Y0397D02*
D03*
X019865D02*
D03*
X041564Y038195D02*
D03*
X040934D02*
D03*
X040935Y03915D02*
D03*
X041565D02*
D03*
X0356Y04095D02*
D03*
X03623D02*
D03*
X036335Y0376D02*
D03*
X036965D02*
D03*
X01568Y0312D02*
D03*
X01505D02*
D03*
X01578Y02755D02*
D03*
X01515D02*
D03*
X015135Y02665D02*
D03*
X015765D02*
D03*
X03872Y02605D02*
D03*
X03935D02*
D03*
X03813Y0343D02*
D03*
X0375D02*
D03*
X021865Y04145D02*
D03*
X021235D02*
D03*
X021865Y04335D02*
D03*
X021235D02*
D03*
X02188Y04045D02*
D03*
X02125D02*
D03*
X0199Y0436D02*
D03*
X01927D02*
D03*
X021815Y03715D02*
D03*
X021185D02*
D03*
X021815Y0382D02*
D03*
X021185D02*
D03*
X021865Y0424D02*
D03*
X021235D02*
D03*
D50*
X040601Y028744D02*
D03*
Y028165D02*
D03*
X03645Y03175D02*
D03*
Y031171D02*
D03*
D51*
X0398Y02715D02*
D03*
Y028052D02*
D03*
Y028953D02*
D03*
D52*
X037166Y028052D02*
D03*
D53*
X012353Y041012D02*
D03*
Y040756D02*
D03*
Y0405D02*
D03*
Y040244D02*
D03*
Y039988D02*
D03*
D54*
X0113Y040894D02*
D03*
Y040106D02*
D03*
D55*
X020072Y04245D02*
D03*
X019128Y042076D02*
D03*
Y042824D02*
D03*
X020072Y04095D02*
D03*
X019128Y040576D02*
D03*
Y041324D02*
D03*
D56*
X0377Y040635D02*
D03*
Y041265D02*
D03*
X03205Y034165D02*
D03*
Y033535D02*
D03*
X01615Y0356D02*
D03*
Y03623D02*
D03*
X01525D02*
D03*
Y0356D02*
D03*
X01615Y032735D02*
D03*
Y033365D02*
D03*
X0152D02*
D03*
Y032735D02*
D03*
X0178Y029285D02*
D03*
Y029915D02*
D03*
X0237Y033535D02*
D03*
Y034165D02*
D03*
X0246D02*
D03*
Y033535D02*
D03*
X0329Y034165D02*
D03*
Y033535D02*
D03*
X0315Y036448D02*
D03*
Y035819D02*
D03*
X0345Y036448D02*
D03*
Y035819D02*
D03*
X0325Y036448D02*
D03*
Y035819D02*
D03*
X0335Y036448D02*
D03*
Y035819D02*
D03*
X0249Y04463D02*
D03*
Y044D02*
D03*
X0298Y04473D02*
D03*
Y0441D02*
D03*
X024Y04463D02*
D03*
Y044D02*
D03*
X0265Y044665D02*
D03*
Y044035D02*
D03*
D57*
X038293Y0367D02*
D03*
Y0362D02*
D03*
Y0357D02*
D03*
Y0352D02*
D03*
X036207D02*
D03*
Y0357D02*
D03*
Y0362D02*
D03*
Y0367D02*
D03*
X014957Y0288D02*
D03*
Y0293D02*
D03*
Y0298D02*
D03*
Y0303D02*
D03*
X017043D02*
D03*
Y0298D02*
D03*
Y0293D02*
D03*
Y0288D02*
D03*
D58*
X02233Y0343D02*
D03*
Y0338D02*
D03*
Y0333D02*
D03*
Y0328D02*
D03*
Y0323D02*
D03*
Y0318D02*
D03*
Y0313D02*
D03*
Y0308D02*
D03*
Y0303D02*
D03*
X01877D02*
D03*
Y0308D02*
D03*
Y0313D02*
D03*
Y0318D02*
D03*
Y0323D02*
D03*
Y0328D02*
D03*
Y0333D02*
D03*
Y0338D02*
D03*
Y0343D02*
D03*
X02742Y03425D02*
D03*
Y03375D02*
D03*
Y03325D02*
D03*
Y03275D02*
D03*
Y03225D02*
D03*
Y03175D02*
D03*
Y03125D02*
D03*
Y03075D02*
D03*
Y03025D02*
D03*
X03098D02*
D03*
Y03075D02*
D03*
Y03125D02*
D03*
Y03175D02*
D03*
Y03225D02*
D03*
Y03275D02*
D03*
Y03325D02*
D03*
Y03375D02*
D03*
Y03425D02*
D03*
D59*
X021083Y028935D02*
D03*
X020217D02*
D03*
Y028265D02*
D03*
X021083D02*
D03*
X029732Y028451D02*
D03*
X028866D02*
D03*
Y02912D02*
D03*
X029732D02*
D03*
D60*
X0195Y028789D02*
D03*
Y028411D02*
D03*
X02175Y028411D02*
D03*
Y028789D02*
D03*
X0281Y028611D02*
D03*
Y028989D02*
D03*
X0305D02*
D03*
Y028611D02*
D03*
D61*
X03798Y02605D02*
D03*
X03739D02*
D03*
D62*
X0273Y044059D02*
D03*
Y04465D02*
D03*
D63*
X015748Y04235D02*
D03*
Y04185D02*
D03*
Y04135D02*
D03*
Y04085D02*
D03*
Y04035D02*
D03*
Y03985D02*
D03*
Y03935D02*
D03*
Y03885D02*
D03*
X017952D02*
D03*
Y03935D02*
D03*
Y03985D02*
D03*
Y04035D02*
D03*
Y04085D02*
D03*
Y04135D02*
D03*
Y04185D02*
D03*
Y04235D02*
D03*
D64*
X029796Y035929D02*
D03*
Y036429D02*
D03*
Y036929D02*
D03*
Y037429D02*
D03*
Y037929D02*
D03*
Y038429D02*
D03*
Y038929D02*
D03*
Y039429D02*
D03*
Y039929D02*
D03*
Y040429D02*
D03*
Y040929D02*
D03*
Y041429D02*
D03*
Y041929D02*
D03*
Y042429D02*
D03*
X023104D02*
D03*
Y041929D02*
D03*
Y041429D02*
D03*
Y040929D02*
D03*
Y040429D02*
D03*
Y039929D02*
D03*
Y039429D02*
D03*
Y038929D02*
D03*
Y038429D02*
D03*
Y037929D02*
D03*
Y037429D02*
D03*
Y036929D02*
D03*
Y036429D02*
D03*
Y035929D02*
D03*
D65*
X0287Y042823D02*
D03*
X0282D02*
D03*
X0277D02*
D03*
X0272D02*
D03*
X0267D02*
D03*
X0262D02*
D03*
X0257D02*
D03*
X0252D02*
D03*
X0247D02*
D03*
X0242D02*
D03*
D66*
X027566Y038159D02*
D03*
X026844D02*
D03*
X026121D02*
D03*
X027566Y038882D02*
D03*
X026844D02*
D03*
X026121D02*
D03*
X027566Y039604D02*
D03*
X026844D02*
D03*
X026121D02*
D03*
D67*
X0364Y043385D02*
D03*
X036912Y04185D02*
D03*
X0364D02*
D03*
X036912Y042362D02*
D03*
X0364D02*
D03*
X036912Y042874D02*
D03*
X0364D02*
D03*
X036912Y043385D02*
D03*
X026482Y038159D02*
D03*
X027205D02*
D03*
Y038882D02*
D03*
X026482D02*
D03*
Y039604D02*
D03*
X027205D02*
D03*
X03845Y03205D02*
D03*
Y0316D02*
D03*
Y0311D02*
D03*
Y03065D02*
D03*
Y03025D02*
D03*
Y0298D02*
D03*
X0388D02*
D03*
Y03025D02*
D03*
Y03065D02*
D03*
Y0311D02*
D03*
Y0316D02*
D03*
Y03205D02*
D03*
X03695Y0409D02*
D03*
Y04135D02*
D03*
X0308Y03525D02*
D03*
X03465D02*
D03*
X03415D02*
D03*
X03335D02*
D03*
X03255D02*
D03*
X03195D02*
D03*
X0313D02*
D03*
X0363Y02745D02*
D03*
Y028175D02*
D03*
Y0289D02*
D03*
X04275Y02515D02*
D03*
Y0259D02*
D03*
Y0266D02*
D03*
Y0272D02*
D03*
Y0278D02*
D03*
Y02845D02*
D03*
Y02905D02*
D03*
X04025Y0272D02*
D03*
Y02665D02*
D03*
X0402Y0261D02*
D03*
Y02565D02*
D03*
Y0252D02*
D03*
X04065Y02565D02*
D03*
Y02615D02*
D03*
Y02665D02*
D03*
Y02715D02*
D03*
X01685Y01055D02*
D03*
X0176D02*
D03*
X01835D02*
D03*
X0191D02*
D03*
X01985D02*
D03*
Y0112D02*
D03*
X0191D02*
D03*
X01835D02*
D03*
X0176D02*
D03*
X01685D02*
D03*
Y01185D02*
D03*
X0176D02*
D03*
X01835D02*
D03*
X0191D02*
D03*
X01985D02*
D03*
X0185Y0175D02*
D03*
X02203Y015881D02*
D03*
X021707Y015884D02*
D03*
X021867Y01614D02*
D03*
X021857Y015073D02*
D03*
X022017Y015328D02*
D03*
X021694Y015332D02*
D03*
X0186Y0135D02*
D03*
X020828Y01647D02*
D03*
X02085Y01715D02*
D03*
X01985Y0164D02*
D03*
X0196Y0153D02*
D03*
X019763Y015596D02*
D03*
D68*
X0113Y041878D02*
D03*
Y039122D02*
D03*
D69*
X012363Y041484D02*
D03*
Y039516D02*
D03*
D70*
X01142Y03669D02*
D03*
Y03491D02*
D03*
X01398Y03669D02*
D03*
Y03491D02*
D03*
X01403Y03211D02*
D03*
Y03389D02*
D03*
X01147Y03211D02*
D03*
Y03389D02*
D03*
D71*
X041293Y035458D02*
D03*
X012207Y029542D02*
D03*
X0406Y04235D02*
D03*
D72*
X041293Y036442D02*
D03*
X012207Y028558D02*
D03*
X0406Y043334D02*
D03*
D73*
X037897Y02125D02*
D03*
X017524Y01315D02*
D03*
Y02125D02*
D03*
X037897Y01315D02*
D03*
D74*
X04085Y02125D02*
D03*
X020476Y01315D02*
D03*
Y02125D02*
D03*
X04085Y01315D02*
D03*
D75*
X0295Y02005D02*
D03*
Y01445D02*
D03*
D76*
X029637Y0225D02*
D03*
X030637D02*
D03*
X0283Y012D02*
D03*
X0293D02*
D03*
D77*
X028637Y0225D02*
D03*
X0303Y012D02*
D03*
D78*
X011Y0112D02*
D03*
X0433Y011D02*
D03*
Y04555D02*
D03*
X01085D02*
D03*
D79*
X01465Y01555D02*
D03*
X01215D02*
D03*
D80*
X01365Y01355D02*
D03*
D81*
X04055Y030716D02*
D03*
D82*
Y032684D02*
D03*
D83*
X014577Y021673D02*
D03*
Y022657D02*
D03*
X012064Y021673D02*
D03*
Y022657D02*
D03*
D84*
X014577Y023642D02*
D03*
X012064D02*
D03*
D85*
X01525Y0316D02*
D03*
X01115Y03105D02*
D03*
X01275Y0383D02*
D03*
X01235Y03865D02*
D03*
X0383Y04185D02*
D03*
X01285Y03995D02*
D03*
X0178Y02845D02*
D03*
X037412Y037642D02*
D03*
X03445Y03325D02*
D03*
X0314Y0347D02*
D03*
X029199Y036914D02*
D03*
X0287Y04345D02*
D03*
X029195Y042838D02*
D03*
D86*
X036657Y036194D02*
D03*
X02095Y04335D02*
D03*
X027291Y044993D02*
D03*
X0242Y03355D02*
D03*
X0246Y03455D02*
D03*
X0375Y0347D02*
D03*
X03013Y04473D02*
D03*
X0267Y04215D02*
D03*
Y04355D02*
D03*
X01835Y04235D02*
D03*
X01795Y04265D02*
D03*
X0153Y04235D02*
D03*
X0158Y04265D02*
D03*
X01875Y03D02*
D03*
X02805Y03025D02*
D03*
X02685D02*
D03*
X02745Y03D02*
D03*
X0333Y03345D02*
D03*
X0329Y03315D02*
D03*
X041896Y039159D02*
D03*
X0419Y0382D02*
D03*
X01605Y02665D02*
D03*
X02415Y04185D02*
D03*
Y0391D02*
D03*
X0229Y0328D02*
D03*
X0129Y04105D02*
D03*
X01615Y03655D02*
D03*
Y0337D02*
D03*
X02088Y035584D02*
D03*
X0218Y04095D02*
D03*
X0223Y0424D02*
D03*
X0209Y03515D02*
D03*
X036679Y036715D02*
D03*
X0281Y03375D02*
D03*
X03615Y0348D02*
D03*
X02805Y03425D02*
D03*
X01745Y0293D02*
D03*
X01935Y0303D02*
D03*
X0157Y03155D02*
D03*
X01595Y0312D02*
D03*
X0178Y03025D02*
D03*
X0225Y0359D02*
D03*
X0231Y0355D02*
D03*
X0237Y0359D02*
D03*
X029Y04145D02*
D03*
X0284Y04085D02*
D03*
X03025Y0318D02*
D03*
Y0323D02*
D03*
Y0328D02*
D03*
X0229Y0318D02*
D03*
Y0323D02*
D03*
X03635Y0372D02*
D03*
X02095Y04045D02*
D03*
X0249Y04495D02*
D03*
X024Y045D02*
D03*
X0199Y043D02*
D03*
X01915Y0416D02*
D03*
X0212Y01395D02*
D03*
X023Y0145D02*
D03*
X02265Y0148D02*
D03*
X02315Y01805D02*
D03*
X02365Y0175D02*
D03*
X032Y0111D02*
D03*
X0156Y01405D02*
D03*
X0161Y0136D02*
D03*
M02*
