G04*
G04 #@! TF.GenerationSoftware,Altium Limited,Altium Designer,21.3.2 (30)*
G04*
G04 Layer_Color=8388736*
%FSTAX24Y24*%
%MOIN*%
G70*
G04*
G04 #@! TF.SameCoordinates,AAB4DB19-2E37-4297-9B89-C5A600987651*
G04*
G04*
G04 #@! TF.FilePolarity,Positive*
G04*
G01*
G75*
%ADD114C,0.0020*%
%ADD115C,0.0039*%
D114*
X041037Y026413D02*
X042493D01*
X041037Y025587D02*
Y026413D01*
X042493Y025587D02*
Y026413D01*
X041037Y025587D02*
X042493D01*
X041072Y027363D02*
X042528D01*
X041072Y026537D02*
Y027363D01*
X042528Y026537D02*
Y027363D01*
X041072Y026537D02*
X042528D01*
X018842Y041761D02*
X020358D01*
X018842Y043139D02*
X020358D01*
Y041761D02*
Y043139D01*
X018842Y041761D02*
Y043139D01*
Y040261D02*
X020358D01*
X018842Y041639D02*
X020358D01*
Y040261D02*
Y041639D01*
X018842Y040261D02*
Y041639D01*
X038113Y040222D02*
Y041678D01*
X037287D02*
X038113D01*
X037287Y040222D02*
X038113D01*
X037287D02*
Y041678D01*
X035922Y037187D02*
X037378D01*
Y038013D01*
X035922Y037187D02*
Y038013D01*
X037378D01*
X014637Y031613D02*
X016093D01*
X014637Y030787D02*
Y031613D01*
X016093Y030787D02*
Y031613D01*
X014637Y030787D02*
X016093D01*
X018213Y028872D02*
Y030328D01*
X017387D02*
X018213D01*
X017387Y028872D02*
X018213D01*
X017387D02*
Y030328D01*
X019815Y028128D02*
Y029072D01*
X019185D02*
X019815D01*
X019185Y028128D02*
Y029072D01*
Y028128D02*
X019815D01*
X021435Y028128D02*
Y029072D01*
Y028128D02*
X022065D01*
Y029072D01*
X021435D02*
X022065D01*
X027785Y028328D02*
X028415D01*
X027785D02*
Y029272D01*
X028415D01*
Y028328D02*
Y029272D01*
X030185D02*
X030815D01*
Y028328D02*
Y029272D01*
X030185Y028328D02*
X030815D01*
X030185D02*
Y029272D01*
X037087Y034713D02*
X038543D01*
X037087Y033887D02*
Y034713D01*
X038543Y033887D02*
Y034713D01*
X037087Y033887D02*
X038543D01*
X024187Y033122D02*
Y034578D01*
Y033122D02*
X025013D01*
X024187Y034578D02*
X025013D01*
Y033122D02*
Y034578D01*
X032487Y033122D02*
Y034578D01*
Y033122D02*
X033313D01*
X032487Y034578D02*
X033313D01*
Y033122D02*
Y034578D01*
D115*
X041568Y026D02*
X041962D01*
X041765Y025803D02*
Y026197D01*
X041603Y02695D02*
X041997D01*
X0418Y026753D02*
Y027147D01*
X0196Y042253D02*
Y042647D01*
X019403Y04245D02*
X019797D01*
X0196Y040753D02*
Y041147D01*
X019403Y04095D02*
X019797D01*
X037503D02*
X037897D01*
X0377Y040753D02*
Y041147D01*
X036453Y0376D02*
X036847D01*
X03665Y037403D02*
Y037797D01*
X015168Y0312D02*
X015562D01*
X015365Y031003D02*
Y031397D01*
X0178Y029403D02*
Y029797D01*
X017603Y0296D02*
X017997D01*
X019303Y0286D02*
X019697D01*
X0195Y028403D02*
Y028797D01*
X021553Y0286D02*
X021947D01*
X02175Y028403D02*
Y028797D01*
X0281Y028603D02*
Y028997D01*
X027903Y0288D02*
X028297D01*
X0305Y028603D02*
Y028997D01*
X030303Y0288D02*
X030697D01*
X037815Y034103D02*
Y034497D01*
X037618Y0343D02*
X038012D01*
X024403Y03385D02*
X024797D01*
X0246Y033653D02*
Y034047D01*
X032703Y03385D02*
X033097D01*
X0329Y033653D02*
Y034047D01*
M02*
