M48
;Layer_Color=9474304
;FILE_FORMAT=2:4
INCH,LZ
;TYPE=PLATED
T1F00S00C0.0118
T2F00S00C0.0138
T3F00S00C0.0197
T6F00S00C0.0315
T7F00S00C0.0394
T8F00S00C0.0400
T9F00S00C0.0413
T11F00S00C0.0524
T12F00S00C0.0740
T13F00S00C0.0984
%
T01
X01685Y01055
Y0112
Y01185
X0176
Y0112
Y01055
X01835
Y0112
Y01185
X0191
Y0112
Y01055
X01985
Y0112
Y01185
X0186Y0135
X0196Y0153
X019763Y015596
X020374Y015624
X020826
X0206Y01525
X021694Y015332
X022017Y015328
X021857Y015073
X0363Y02745
Y028175
Y0289
X03845Y0298
X0388
Y03025
X03845
Y03065
X0388
Y0311
X03845
X04025Y0272
X04065Y02715
Y02665
X04025
X0402Y0261
Y02565
Y0252
X04065Y02565
Y02615
X04275Y0259
Y0266
Y0272
Y0278
Y02845
Y02905
Y02515
X021867Y01614
X021707Y015884
X02203Y015881
X0206Y015998
X020828Y01647
X02085Y01715
X01985Y0164
X0185Y0175
X026482Y038159
X027205
Y038882
X026482
Y039604
X027205
X0308Y03525
X0313
X03195
X03255
X03335
X03415
X03465
X03845Y03205
X0388
Y0316
X03845
X03695Y0409
Y04135
X036912Y04185
Y042362
X0364
Y04185
Y042874
Y043385
X036912
Y042874
T02
X0156Y01405
X0161Y0136
X0212Y01395
X02265Y0148
X023Y0145
X032Y0111
X02365Y0175
X02315Y01805
X01605Y02665
X01745Y0293
X0178Y03025
X01875Y03
X01935Y0303
X01595Y0312
X02685Y03025
X02745Y03
X02805Y03025
X0153Y04235
X0129Y04105
X0158Y04265
X01795
X01835Y04235
X01915Y0416
X0199Y043
X02095Y04335
X0223Y0424
X0218Y04095
X02095Y04045
X02415Y0391
Y04185
X0267Y04215
Y04355
X027291Y044993
X0249Y04495
X024Y045
X03013Y04473
X029Y04145
X0284Y04085
X02805Y03425
X0281Y03375
X03025Y0328
Y0323
Y0318
X0229
Y0323
Y0328
X0242Y03355
X0246Y03455
X0237Y0359
X0231Y0355
X0225Y0359
X02088Y035584
X0209Y03515
X01615Y03655
Y0337
X0157Y03155
X0329Y03315
X0333Y03345
X03615Y0348
X0375Y0347
X036657Y036194
X036679Y036715
X03635Y0372
X0419Y0382
X041896Y039159
T03
X0178Y02845
X01115Y03105
X01525Y0316
X01275Y0383
X01235Y03865
X01285Y03995
X029195Y042838
X0287Y04345
X029199Y036914
X0314Y0347
X03445Y03325
X037412Y037642
X0383Y04185
T06
X04055Y030716
Y032684
T07
X012064Y021673
Y022657
Y023642
X014577
Y022657
Y021673
T08
X01147Y03211
Y03389
X01142Y03491
Y03669
X01398
Y03491
X01403Y03389
Y03211
T09
X017524Y01315
X020476
X037897
X04085
Y02125
X037897
X020476
X017524
X012207Y028558
Y029542
X041293Y035458
Y036442
X0406Y04235
Y043334
T11
X0283Y012
X0293
X0303
X030637Y0225
X029637
X028637
T12
X0295Y01445
Y02005
T13
X011Y0112
X0433Y011
X01085Y04555
X0433
M30
